rawline-100.ufo
<glyph name="exclam" format="2">
  <advance width="466"/>
  <unicode hex="0021"/>
  <outline>
    <contour>
      <point x="213" y="410" type="line"/>
      <point x="213" y="1468" type="line"/>
      <point x="254" y="1468" type="line"/>
      <point x="254" y="410" type="line"/>
    </contour>
    <contour>
      <point x="213" y="0" type="line"/>
      <point x="213" y="172" type="line"/>
      <point x="254" y="172" type="line"/>
      <point x="254" y="0" type="line"/>
    </contour>
  </outline>
</glyph>
<glyph name="quotedbl" format="2">
  <advance width="442"/>
  <unicode hex="0022"/>
  <outline>
    <contour>
      <point x="150" y="1167" type="line"/>
      <point x="150" y="1454" type="line"/>
      <point x="190" y="1454" type="line"/>
      <point x="190" y="1167" type="line"/>
    </contour>
    <contour>
      <point x="252" y="1167" type="line"/>
      <point x="252" y="1454" type="line"/>
      <point x="293" y="1454" type="line"/>
      <point x="293" y="1167" type="line"/>
    </contour>
  </outline>
</glyph>
<glyph name="numbersign" format="2">
  <advance width="1331"/>
  <unicode hex="0023"/>
  <outline>
    <contour>
      <point x="1253" y="985" type="line"/>
      <point x="1012" y="985" type="line"/>
      <point x="893" y="494" type="line"/>
      <point x="1171" y="494" type="line"/>
      <point x="1171" y="453" type="line"/>
      <point x="883" y="453" type="line"/>
      <point x="774" y="0" type="line"/>
      <point x="731" y="0" type="line"/>
      <point x="842" y="453" type="line"/>
      <point x="350" y="453" type="line"/>
      <point x="242" y="0" type="line"/>
      <point x="199" y="0" type="line"/>
      <point x="309" y="453" type="line"/>
      <point x="78" y="453" type="line"/>
      <point x="78" y="494" type="line"/>
      <point x="319" y="494" type="line"/>
      <point x="438" y="985" type="line"/>
      <point x="160" y="985" type="line"/>
      <point x="160" y="1026" type="line"/>
      <point x="449" y="1026" type="line"/>
      <point x="553" y="1454" type="line"/>
      <point x="596" y="1454" type="line"/>
      <point x="489" y="1026" type="line"/>
      <point x="981" y="1026" type="line"/>
      <point x="1085" y="1454" type="line"/>
      <point x="1128" y="1454" type="line"/>
      <point x="1022" y="1026" type="line"/>
      <point x="1253" y="1026" type="line"/>
    </contour>
    <contour>
      <point x="852" y="494" type="line"/>
      <point x="971" y="985" type="line"/>
      <point x="479" y="985" type="line"/>
      <point x="360" y="494" type="line"/>
    </contour>
  </outline>
</glyph>
<glyph name="dollar" format="2">
  <advance width="1255"/>
  <unicode hex="0024"/>
  <anchor x="655" y="1493" name="Anchor-1"/>
  <anchor x="651" y="0" name="Anchor-0"/>
  <outline>
    <contour>
      <point x="655" y="745" type="line"/>
      <point x="761" y="723"/>
      <point x="902" y="683"/>
      <point x="1042" y="621"/>
      <point x="1122" y="544"/>
      <point x="1171" y="430"/>
      <point x="1171" y="356" type="qcurve" smooth="yes"/>
      <point x="1171" y="181"/>
      <point x="899" y="-10"/>
      <point x="659" y="-10" type="qcurve" smooth="yes"/>
      <point x="655" y="-10" type="line"/>
      <point x="655" y="-190" type="line"/>
      <point x="614" y="-190" type="line"/>
      <point x="614" y="-10" type="line"/>
      <point x="456" y="-3"/>
      <point x="203" y="107"/>
      <point x="94" y="215" type="qcurve"/>
      <point x="125" y="242" type="line"/>
      <point x="227" y="137"/>
      <point x="464" y="33"/>
      <point x="614" y="27" type="qcurve"/>
      <point x="614" y="715" type="line"/>
      <point x="515" y="734"/>
      <point x="381" y="771"/>
      <point x="256" y="827"/>
      <point x="185" y="900"/>
      <point x="143" y="1004"/>
      <point x="143" y="1073" type="qcurve" smooth="yes"/>
      <point x="143" y="1252"/>
      <point x="394" y="1455"/>
      <point x="614" y="1464" type="qcurve"/>
      <point x="614" y="1669" type="line"/>
      <point x="655" y="1669" type="line"/>
      <point x="655" y="1464" type="line"/>
      <point x="794" y="1464"/>
      <point x="998" y="1382"/>
      <point x="1083" y="1290" type="qcurve"/>
      <point x="1057" y="1262" type="line"/>
      <point x="974" y="1354"/>
      <point x="789" y="1425"/>
      <point x="655" y="1425" type="qcurve"/>
    </contour>
    <contour>
      <point x="184" y="1077" type="qcurve" smooth="yes"/>
      <point x="184" y="1016"/>
      <point x="217" y="926"/>
      <point x="277" y="862"/>
      <point x="388" y="811"/>
      <point x="516" y="774"/>
      <point x="614" y="754" type="qcurve"/>
      <point x="614" y="1425" type="line"/>
      <point x="394" y="1416"/>
      <point x="184" y="1235"/>
    </contour>
    <contour>
      <point x="662" y="25" type="line" smooth="yes"/>
      <point x="883" y="25"/>
      <point x="1130" y="190"/>
      <point x="1130" y="350" type="qcurve" smooth="yes"/>
      <point x="1130" y="430"/>
      <point x="1076" y="544"/>
      <point x="952" y="626"/>
      <point x="785" y="681"/>
      <point x="655" y="707" type="qcurve"/>
      <point x="655" y="25" type="line"/>
    </contour>
  </outline>
</glyph>
<glyph name="percent" format="2">
  <advance width="1372"/>
  <unicode hex="0025"/>
  <outline>
    <contour>
      <point x="98" y="1309"/>
      <point x="264" y="1475"/>
      <point x="498" y="1475"/>
      <point x="664" y="1309"/>
      <point x="664" y="1075"/>
      <point x="498" y="909"/>
      <point x="264" y="909"/>
      <point x="98" y="1075"/>
    </contour>
    <contour>
      <point x="98" y="23" type="line"/>
      <point x="1241" y="1456" type="line"/>
      <point x="1274" y="1432" type="line"/>
      <point x="131" y="-2" type="line"/>
    </contour>
    <contour>
      <point x="623" y="1192" type="qcurve" smooth="yes"/>
      <point x="623" y="1292"/>
      <point x="478" y="1434"/>
      <point x="381" y="1434" type="qcurve" smooth="yes"/>
      <point x="281" y="1434"/>
      <point x="139" y="1289"/>
      <point x="139" y="1192" type="qcurve" smooth="yes"/>
      <point x="139" y="1091"/>
      <point x="282" y="950"/>
      <point x="381" y="950" type="qcurve" smooth="yes"/>
      <point x="481" y="950"/>
      <point x="623" y="1095"/>
    </contour>
    <contour>
      <point x="711" y="262" type="qcurve" smooth="yes"/>
      <point x="711" y="379"/>
      <point x="876" y="545"/>
      <point x="1110" y="545"/>
      <point x="1276" y="379"/>
      <point x="1276" y="262" type="qcurve" smooth="yes"/>
      <point x="1276" y="144"/>
      <point x="1110" y="-20"/>
      <point x="876" y="-20"/>
      <point x="711" y="144"/>
    </contour>
    <contour>
      <point x="1235" y="262" type="qcurve" smooth="yes"/>
      <point x="1235" y="361"/>
      <point x="1089" y="504"/>
      <point x="993" y="504" type="qcurve" smooth="yes"/>
      <point x="893" y="504"/>
      <point x="752" y="359"/>
      <point x="752" y="262" type="qcurve" smooth="yes"/>
      <point x="752" y="161"/>
      <point x="893" y="20"/>
      <point x="1093" y="20"/>
      <point x="1235" y="164"/>
    </contour>
  </outline>
</glyph>
<glyph name="ampersand" format="2">
  <advance width="1300"/>
  <unicode hex="0026"/>
  <outline>
    <contour>
      <point x="1280" y="0" type="line"/>
      <point x="1225" y="0" type="line"/>
      <point x="1010" y="225" type="line"/>
      <point x="928" y="111"/>
      <point x="695" y="-20"/>
      <point x="553" y="-20" type="qcurve" smooth="yes"/>
      <point x="469" y="-20"/>
      <point x="312" y="29"/>
      <point x="185" y="118"/>
      <point x="109" y="261"/>
      <point x="109" y="348" type="qcurve" smooth="yes"/>
      <point x="109" y="407"/>
      <point x="147" y="516"/>
      <point x="203" y="598"/>
      <point x="305" y="691"/>
      <point x="390" y="755"/>
      <point x="459" y="803" type="qcurve"/>
      <point x="329" y="939"/>
      <point x="225" y="1103"/>
      <point x="225" y="1176" type="qcurve" smooth="yes"/>
      <point x="225" y="1295"/>
      <point x="425" y="1473"/>
      <point x="567" y="1473" type="qcurve" smooth="yes"/>
      <point x="698" y="1473"/>
      <point x="872" y="1318"/>
      <point x="872" y="1210" type="qcurve" smooth="yes"/>
      <point x="872" y="1175"/>
      <point x="849" y="1105"/>
      <point x="818" y="1049"/>
      <point x="756" y="982"/>
      <point x="708" y="937"/>
      <point x="618" y="870"/>
      <point x="564" y="832"/>
      <point x="512" y="797" type="qcurve"/>
      <point x="1004" y="287" type="line"/>
      <point x="1110" y="461"/>
      <point x="1110" y="682" type="qcurve"/>
      <point x="1151" y="682" type="line"/>
      <point x="1151" y="452"/>
      <point x="1030" y="258" type="qcurve"/>
    </contour>
    <contour>
      <point x="565" y="1432" type="qcurve" smooth="yes"/>
      <point x="440" y="1432"/>
      <point x="266" y="1280"/>
      <point x="266" y="1174" type="qcurve" smooth="yes"/>
      <point x="266" y="1113"/>
      <point x="357" y="959"/>
      <point x="487" y="823" type="qcurve"/>
      <point x="562" y="874"/>
      <point x="648" y="936"/>
      <point x="747" y="1019"/>
      <point x="797" y="1084"/>
      <point x="831" y="1164"/>
      <point x="831" y="1206" type="qcurve" smooth="yes"/>
      <point x="831" y="1303"/>
      <point x="680" y="1432"/>
    </contour>
    <contour>
      <point x="559" y="16" type="qcurve" smooth="yes"/>
      <point x="690" y="16"/>
      <point x="908" y="144"/>
      <point x="983" y="254" type="qcurve"/>
      <point x="483" y="776" type="line"/>
      <point x="421" y="734"/>
      <point x="338" y="671"/>
      <point x="243" y="582"/>
      <point x="188" y="502"/>
      <point x="150" y="399"/>
      <point x="150" y="344" type="qcurve" smooth="yes"/>
      <point x="150" y="264"/>
      <point x="224" y="135"/>
      <point x="345" y="57"/>
      <point x="486" y="16"/>
    </contour>
  </outline>
</glyph>
<glyph name="parenleft" format="2">
  <advance width="479"/>
  <unicode hex="0028"/>
  <outline>
    <contour>
      <point x="375" y="1487" type="qcurve"/>
      <point x="408" y="1462" type="line"/>
      <point x="301" y="1304"/>
      <point x="141" y="875"/>
      <point x="141" y="700" type="qcurve" smooth="yes"/>
      <point x="141" y="541"/>
      <point x="282" y="150"/>
      <point x="408" y="-29" type="qcurve"/>
      <point x="375" y="-53" type="line"/>
      <point x="102" y="347"/>
      <point x="102" y="707" type="qcurve" smooth="yes"/>
      <point x="102" y="899"/>
      <point x="244" y="1269"/>
    </contour>
  </outline>
</glyph>
<glyph name="parenright" format="2">
  <advance width="477"/>
  <unicode hex="0029"/>
  <outline>
    <contour>
      <point x="104" y="-53" type="qcurve"/>
      <point x="72" y="-29" type="line"/>
      <point x="197" y="150"/>
      <point x="338" y="541"/>
      <point x="338" y="700" type="qcurve" smooth="yes"/>
      <point x="338" y="875"/>
      <point x="179" y="1304"/>
      <point x="72" y="1462" type="qcurve"/>
      <point x="104" y="1487" type="line"/>
      <point x="235" y="1269"/>
      <point x="377" y="899"/>
      <point x="377" y="707" type="qcurve" smooth="yes"/>
      <point x="377" y="347"/>
    </contour>
  </outline>
</glyph>
<glyph name="asterisk" format="2">
  <advance width="618"/>
  <unicode hex="002A"/>
  <outline>
    <contour>
      <point x="193" y="1155" type="line"/>
      <point x="276" y="1272" type="line"/>
      <point x="139" y="1317" type="line"/>
      <point x="152" y="1356" type="line"/>
      <point x="289" y="1311" type="line"/>
      <point x="289" y="1454" type="line"/>
      <point x="330" y="1454" type="line"/>
      <point x="330" y="1311" type="line"/>
      <point x="467" y="1356" type="line"/>
      <point x="479" y="1317" type="line"/>
      <point x="342" y="1272" type="line"/>
      <point x="428" y="1155" type="line"/>
      <point x="393" y="1130" type="line"/>
      <point x="309" y="1247" type="line"/>
      <point x="225" y="1130" type="line"/>
    </contour>
  </outline>
</glyph>
<glyph name="plus" format="2">
  <advance width="843"/>
  <unicode hex="002B"/>
  <outline>
    <contour>
      <point x="729" y="748" type="line"/>
      <point x="729" y="707" type="line"/>
      <point x="442" y="707" type="line"/>
      <point x="442" y="399" type="line"/>
      <point x="401" y="399" type="line"/>
      <point x="401" y="707" type="line"/>
      <point x="115" y="707" type="line"/>
      <point x="115" y="748" type="line"/>
      <point x="401" y="748" type="line"/>
      <point x="401" y="1055" type="line"/>
      <point x="442" y="1055" type="line"/>
      <point x="442" y="748" type="line"/>
    </contour>
  </outline>
</glyph>
<glyph name="comma" format="2">
  <advance width="532"/>
  <unicode hex="002C"/>
  <outline>
    <contour>
      <point x="238" y="-166" type="line"/>
      <point x="258" y="-20" type="line"/>
      <point x="240" y="-20" type="line"/>
      <point x="240" y="131" type="line"/>
      <point x="293" y="131" type="line"/>
      <point x="293" y="-20" type="line"/>
      <point x="266" y="-166" type="line"/>
    </contour>
  </outline>
</glyph>
<glyph name="period" format="2">
  <advance width="323"/>
  <unicode hex="002E"/>
  <outline>
    <contour>
      <point x="141" y="0" type="line"/>
      <point x="141" y="131" type="line"/>
      <point x="182" y="131" type="line"/>
      <point x="182" y="0" type="line"/>
    </contour>
  </outline>
</glyph>
<glyph name="slash" format="2">
  <advance width="1097"/>
  <unicode hex="002F"/>
  <outline>
    <contour>
      <point x="1040" y="1454" type="line"/>
      <point x="106" y="0" type="line"/>
      <point x="55" y="0" type="line"/>
      <point x="987" y="1454" type="line"/>
    </contour>
  </outline>
</glyph>
<glyph name="one" format="2">
  <advance width="731"/>
  <unicode hex="0031"/>
  <outline>
    <contour>
      <point x="698" y="41" type="line"/>
      <point x="698" y="0" type="line"/>
      <point x="127" y="0" type="line"/>
      <point x="127" y="41" type="line"/>
      <point x="397" y="41" type="line"/>
      <point x="397" y="1407" type="line"/>
      <point x="358" y="1353"/>
      <point x="157" y="1231"/>
      <point x="80" y="1231" type="qcurve"/>
      <point x="80" y="1272" type="line"/>
      <point x="120" y="1272"/>
      <point x="213" y="1313"/>
      <point x="290" y="1370"/>
      <point x="358" y="1431"/>
      <point x="395" y="1471"/>
      <point x="397" y="1475" type="qcurve"/>
      <point x="438" y="1475" type="line"/>
      <point x="438" y="41" type="line"/>
    </contour>
  </outline>
</glyph>
<glyph name="three" format="2">
  <advance width="1193"/>
  <unicode hex="0033"/>
  <outline>
    <contour>
      <point x="604" y="-18" type="qcurve" smooth="yes"/>
      <point x="468" y="-18"/>
      <point x="244" y="80"/>
      <point x="114" y="253"/>
      <point x="111" y="360" type="qcurve"/>
      <point x="152" y="360" type="line"/>
      <point x="158" y="217"/>
      <point x="420" y="23"/>
      <point x="606" y="23" type="qcurve" smooth="yes"/>
      <point x="793" y="23"/>
      <point x="1042" y="219"/>
      <point x="1042" y="367" type="qcurve" smooth="yes"/>
      <point x="1042" y="525"/>
      <point x="767" y="717"/>
      <point x="541" y="717" type="qcurve" smooth="yes"/>
      <point x="469" y="717" type="line"/>
      <point x="469" y="758" type="line"/>
      <point x="541" y="758" type="line" smooth="yes"/>
      <point x="765" y="758"/>
      <point x="1001" y="916"/>
      <point x="1001" y="1067" type="qcurve" smooth="yes"/>
      <point x="1001" y="1225"/>
      <point x="760" y="1432"/>
      <point x="575" y="1432" type="qcurve" smooth="yes"/>
      <point x="434" y="1432"/>
      <point x="215" y="1303"/>
      <point x="172" y="1196" type="qcurve"/>
      <point x="135" y="1212" type="line"/>
      <point x="182" y="1330"/>
      <point x="423" y="1473"/>
      <point x="575" y="1473" type="qcurve" smooth="yes"/>
      <point x="776" y="1473"/>
      <point x="1042" y="1241"/>
      <point x="1042" y="1067" type="qcurve" smooth="yes"/>
      <point x="1042" y="811"/>
      <point x="748" y="735" type="qcurve"/>
      <point x="900" y="706"/>
      <point x="1083" y="503"/>
      <point x="1083" y="365" type="qcurve" smooth="yes"/>
      <point x="1083" y="202"/>
      <point x="808" y="-18"/>
    </contour>
  </outline>
</glyph>
<glyph name="four" format="2">
  <advance width="1126"/>
  <unicode hex="0034"/>
  <outline>
    <contour>
      <point x="838" y="0" type="line"/>
      <point x="838" y="432" type="line"/>
      <point x="49" y="432" type="line"/>
      <point x="49" y="467" type="line"/>
      <point x="850" y="1454" type="line"/>
      <point x="879" y="1454" type="line"/>
      <point x="879" y="473" type="line"/>
      <point x="1059" y="473" type="line"/>
      <point x="1059" y="432" type="line"/>
      <point x="879" y="432" type="line"/>
      <point x="879" y="0" type="line"/>
    </contour>
    <contour>
      <point x="106" y="473" type="line"/>
      <point x="838" y="473" type="line"/>
      <point x="838" y="1378" type="line"/>
    </contour>
  </outline>
</glyph>
<glyph name="eight" format="2">
  <advance width="1189"/>
  <unicode hex="0038"/>
  <outline>
    <contour>
      <point x="588" y="-14" type="qcurve" smooth="yes"/>
      <point x="481" y="-14"/>
      <point x="299" y="53"/>
      <point x="177" y="164"/>
      <point x="109" y="310"/>
      <point x="109" y="389" type="qcurve" smooth="yes"/>
      <point x="109" y="532"/>
      <point x="308" y="743"/>
      <point x="444" y="780" type="qcurve"/>
      <point x="320" y="823"/>
      <point x="162" y="992"/>
      <point x="162" y="1108" type="qcurve" smooth="yes"/>
      <point x="162" y="1215"/>
      <point x="292" y="1376"/>
      <point x="486" y="1454"/>
      <point x="706" y="1454"/>
      <point x="899" y="1376"/>
      <point x="1028" y="1215"/>
      <point x="1028" y="1108" type="qcurve" smooth="yes"/>
      <point x="1028" y="992"/>
      <point x="867" y="823"/>
      <point x="743" y="780" type="qcurve"/>
      <point x="891" y="737"/>
      <point x="1081" y="526"/>
      <point x="1081" y="385" type="qcurve" smooth="yes"/>
      <point x="1081" y="267"/>
      <point x="943" y="82"/>
      <point x="720" y="-14"/>
    </contour>
    <contour>
      <point x="687" y="801"/>
      <point x="864" y="871"/>
      <point x="987" y="1015"/>
      <point x="987" y="1108" type="qcurve" smooth="yes"/>
      <point x="987" y="1202"/>
      <point x="871" y="1344"/>
      <point x="694" y="1413"/>
      <point x="592" y="1413" type="qcurve" smooth="yes"/>
      <point x="491" y="1413"/>
      <point x="316" y="1342"/>
      <point x="203" y="1198"/>
      <point x="203" y="1104" type="qcurve" smooth="yes"/>
      <point x="203" y="1012"/>
      <point x="326" y="869"/>
      <point x="501" y="801"/>
    </contour>
    <contour>
      <point x="592" y="760" type="qcurve" smooth="yes"/>
      <point x="512" y="760"/>
      <point x="354" y="706"/>
      <point x="228" y="611"/>
      <point x="150" y="468"/>
      <point x="150" y="387" type="qcurve" smooth="yes"/>
      <point x="150" y="303"/>
      <point x="232" y="161"/>
      <point x="363" y="70"/>
      <point x="520" y="20"/>
      <point x="598" y="20" type="qcurve" smooth="yes"/>
      <point x="678" y="20"/>
      <point x="835" y="73"/>
      <point x="961" y="167"/>
      <point x="1040" y="309"/>
      <point x="1040" y="391" type="qcurve" smooth="yes"/>
      <point x="1040" y="502"/>
      <point x="900" y="675"/>
      <point x="698" y="760"/>
    </contour>
  </outline>
</glyph>
<glyph name="colon" format="2">
  <advance width="323"/>
  <unicode hex="003A"/>
  <outline>
    <contour>
      <point x="141" y="928" type="line"/>
      <point x="141" y="1059" type="line"/>
      <point x="182" y="1059" type="line"/>
      <point x="182" y="928" type="line"/>
    </contour>
    <contour>
      <point x="141" y="0" type="line"/>
      <point x="141" y="131" type="line"/>
      <point x="182" y="131" type="line"/>
      <point x="182" y="0" type="line"/>
    </contour>
  </outline>
</glyph>
<glyph name="semicolon" format="2">
  <advance width="344"/>
  <unicode hex="003B"/>
  <outline>
    <contour>
      <point x="150" y="928" type="line"/>
      <point x="150" y="1059" type="line"/>
      <point x="190" y="1059" type="line"/>
      <point x="190" y="928" type="line"/>
    </contour>
    <contour>
      <point x="143" y="-166" type="line"/>
      <point x="164" y="-20" type="line"/>
      <point x="145" y="-20" type="line"/>
      <point x="145" y="131" type="line"/>
      <point x="199" y="131" type="line"/>
      <point x="199" y="-20" type="line"/>
      <point x="172" y="-166" type="line"/>
    </contour>
  </outline>
</glyph>
<glyph name="less" format="2">
  <advance width="1028"/>
  <unicode hex="003C"/>
  <outline>
    <contour>
      <point x="70" y="549" type="line"/>
      <point x="924" y="1059" type="line"/>
      <point x="924" y="1014" type="line"/>
      <point x="129" y="530" type="line"/>
      <point x="924" y="45" type="line"/>
      <point x="924" y="0" type="line"/>
      <point x="70" y="512" type="line"/>
    </contour>
  </outline>
</glyph>
<glyph name="equal" format="2">
  <advance width="890"/>
  <unicode hex="003D"/>
  <outline>
    <contour>
      <point x="145" y="616" type="line"/>
      <point x="145" y="657" type="line"/>
      <point x="745" y="657" type="line"/>
      <point x="745" y="616" type="line"/>
    </contour>
    <contour>
      <point x="145" y="473" type="line"/>
      <point x="145" y="514" type="line"/>
      <point x="745" y="514" type="line"/>
      <point x="745" y="473" type="line"/>
    </contour>
  </outline>
</glyph>
<glyph name="greater" format="2">
  <advance width="1028"/>
  <unicode hex="003E"/>
  <outline>
    <contour>
      <point x="958" y="512" type="line"/>
      <point x="104" y="0" type="line"/>
      <point x="104" y="45" type="line"/>
      <point x="899" y="530" type="line"/>
      <point x="104" y="1014" type="line"/>
      <point x="104" y="1059" type="line"/>
      <point x="958" y="549" type="line"/>
    </contour>
  </outline>
</glyph>
<glyph name="question" format="2">
  <advance width="958"/>
  <unicode hex="003F"/>
  <outline>
    <contour>
      <point x="365" y="367" type="line"/>
      <point x="365" y="462"/>
      <point x="390" y="597"/>
      <point x="443" y="681"/>
      <point x="498" y="728"/>
      <point x="541" y="750" type="qcurve" smooth="yes"/>
      <point x="559" y="759"/>
      <point x="622" y="790"/>
      <point x="663" y="810"/>
      <point x="721" y="844"/>
      <point x="758" y="876"/>
      <point x="800" y="925"/>
      <point x="824" y="979"/>
      <point x="840" y="1053"/>
      <point x="840" y="1096" type="qcurve" smooth="yes"/>
      <point x="840" y="1180"/>
      <point x="783" y="1312"/>
      <point x="686" y="1391"/>
      <point x="566" y="1432"/>
      <point x="500" y="1432" type="qcurve" smooth="yes"/>
      <point x="376" y="1432"/>
      <point x="161" y="1301"/>
      <point x="109" y="1192" type="qcurve"/>
      <point x="72" y="1208" type="line"/>
      <point x="127" y="1331"/>
      <point x="365" y="1473"/>
      <point x="498" y="1473" type="qcurve" smooth="yes"/>
      <point x="600" y="1473"/>
      <point x="771" y="1389"/>
      <point x="881" y="1211"/>
      <point x="881" y="1090" type="qcurve" smooth="yes"/>
      <point x="881" y="1045"/>
      <point x="864" y="966"/>
      <point x="839" y="909"/>
      <point x="794" y="855"/>
      <point x="754" y="820"/>
      <point x="691" y="781"/>
      <point x="647" y="758"/>
      <point x="577" y="722"/>
      <point x="557" y="711" type="qcurve" smooth="yes"/>
      <point x="519" y="691"/>
      <point x="472" y="650"/>
      <point x="427" y="576"/>
      <point x="406" y="455"/>
      <point x="406" y="367" type="qcurve"/>
    </contour>
    <contour>
      <point x="365" y="0" type="line"/>
      <point x="365" y="172" type="line"/>
      <point x="406" y="172" type="line"/>
      <point x="406" y="0" type="line"/>
    </contour>
  </outline>
</glyph>
<glyph name="at" format="2">
  <advance width="1699"/>
  <unicode hex="0040"/>
  <outline>
    <contour>
      <point x="1575" y="455" type="qcurve" smooth="yes"/>
      <point x="1575" y="424"/>
      <point x="1571" y="356"/>
      <point x="1557" y="257"/>
      <point x="1533" y="168"/>
      <point x="1489" y="76"/>
      <point x="1431" y="9"/>
      <point x="1342" y="-33"/>
      <point x="1288" y="-33" type="qcurve" smooth="yes"/>
      <point x="1241" y="-33"/>
      <point x="1182" y="-4"/>
      <point x="1151" y="60"/>
      <point x="1140" y="120"/>
      <point x="1135" y="172" type="qcurve"/>
      <point x="1080" y="109"/>
      <point x="894" y="25"/>
      <point x="793" y="25" type="qcurve" smooth="yes"/>
      <point x="659" y="25"/>
      <point x="494" y="171"/>
      <point x="494" y="287" type="qcurve" smooth="yes"/>
      <point x="494" y="357"/>
      <point x="559" y="461"/>
      <point x="669" y="517"/>
      <point x="794" y="543"/>
      <point x="864" y="543" type="qcurve" smooth="yes"/>
      <point x="1005" y="543"/>
      <point x="1143" y="496" type="qcurve"/>
      <point x="1143" y="585"/>
      <point x="1118" y="718"/>
      <point x="1058" y="824"/>
      <point x="950" y="879"/>
      <point x="872" y="879" type="qcurve" smooth="yes"/>
      <point x="721" y="879"/>
      <point x="578" y="780" type="qcurve"/>
      <point x="553" y="813" type="line"/>
      <point x="713" y="920"/>
      <point x="874" y="920" type="qcurve" smooth="yes"/>
      <point x="952" y="920"/>
      <point x="1066" y="872"/>
      <point x="1131" y="797"/>
      <point x="1170" y="683"/>
      <point x="1182" y="576"/>
      <point x="1182" y="508" type="qcurve" smooth="yes"/>
      <point x="1182" y="195" type="line" smooth="yes"/>
      <point x="1182" y="96"/>
      <point x="1225" y="8"/>
      <point x="1290" y="8" type="qcurve" smooth="yes"/>
      <point x="1357" y="8"/>
      <point x="1457" y="98"/>
      <point x="1509" y="240"/>
      <point x="1534" y="386"/>
      <point x="1534" y="457" type="qcurve" smooth="yes"/>
      <point x="1534" y="658"/>
      <point x="1349" y="997"/>
      <point x="1033" y="1194"/>
      <point x="846" y="1194" type="qcurve" smooth="yes"/>
      <point x="710" y="1194"/>
      <point x="455" y="1085"/>
      <point x="260" y="897"/>
      <point x="143" y="624"/>
      <point x="143" y="471" type="qcurve" smooth="yes"/>
      <point x="143" y="272"/>
      <point x="332" y="-64"/>
      <point x="654" y="-258"/>
      <point x="844" y="-258" type="qcurve" smooth="yes"/>
      <point x="1011" y="-258"/>
      <point x="1155" y="-180" type="qcurve"/>
      <point x="1176" y="-217" type="line"/>
      <point x="1018" y="-299"/>
      <point x="844" y="-299" type="qcurve" smooth="yes"/>
      <point x="644" y="-299"/>
      <point x="303" y="-96"/>
      <point x="102" y="259"/>
      <point x="102" y="471" type="qcurve" smooth="yes"/>
      <point x="102" y="634"/>
      <point x="227" y="922"/>
      <point x="432" y="1120"/>
      <point x="703" y="1235"/>
      <point x="846" y="1235" type="qcurve" smooth="yes"/>
      <point x="995" y="1235"/>
      <point x="1264" y="1112"/>
      <point x="1460" y="903"/>
      <point x="1575" y="614"/>
    </contour>
    <contour>
      <point x="1141" y="356" type="qcurve" smooth="yes"/>
      <point x="1141" y="453" type="line"/>
      <point x="1131" y="453"/>
      <point x="1050" y="478"/>
      <point x="922" y="502"/>
      <point x="854" y="502" type="qcurve" smooth="yes"/>
      <point x="805" y="502"/>
      <point x="717" y="490"/>
      <point x="632" y="458"/>
      <point x="572" y="411"/>
      <point x="535" y="335"/>
      <point x="535" y="287" type="qcurve" smooth="yes"/>
      <point x="535" y="184"/>
      <point x="686" y="66"/>
      <point x="793" y="66" type="qcurve" smooth="yes"/>
      <point x="895" y="66"/>
      <point x="991" y="113" type="qcurve" smooth="yes"/>
      <point x="1039" y="136"/>
      <point x="1103" y="194"/>
      <point x="1131" y="262"/>
      <point x="1141" y="319"/>
    </contour>
  </outline>
</glyph>
<glyph name="B" format="2">
  <advance width="1341"/>
  <unicode hex="0042"/>
  <outline>
    <contour>
      <point x="877" y="0" type="qcurve" smooth="yes"/>
      <point x="203" y="0" type="line"/>
      <point x="203" y="1454" type="line"/>
      <point x="846" y="1454" type="line" smooth="yes"/>
      <point x="944" y="1454"/>
      <point x="1100" y="1343"/>
      <point x="1178" y="1176"/>
      <point x="1178" y="1083" type="qcurve" smooth="yes"/>
      <point x="1178" y="973"/>
      <point x="1064" y="788"/>
      <point x="969" y="745" type="qcurve"/>
      <point x="1092" y="709"/>
      <point x="1239" y="504"/>
      <point x="1239" y="377" type="qcurve" smooth="yes"/>
      <point x="1239" y="225"/>
      <point x="1025" y="0"/>
    </contour>
    <contour>
      <point x="244" y="1413" type="line"/>
      <point x="244" y="754" type="line"/>
      <point x="834" y="754" type="line" smooth="yes"/>
      <point x="920" y="754"/>
      <point x="1061" y="851"/>
      <point x="1137" y="1001"/>
      <point x="1137" y="1083" type="qcurve" smooth="yes"/>
      <point x="1137" y="1217"/>
      <point x="972" y="1413"/>
      <point x="846" y="1413" type="qcurve" smooth="yes"/>
    </contour>
    <contour>
      <point x="891" y="713" type="qcurve" smooth="yes"/>
      <point x="244" y="713" type="line"/>
      <point x="244" y="41" type="line"/>
      <point x="877" y="41" type="line" smooth="yes"/>
      <point x="964" y="41"/>
      <point x="1114" y="139"/>
      <point x="1198" y="293"/>
      <point x="1198" y="377" type="qcurve" smooth="yes"/>
      <point x="1198" y="511"/>
      <point x="1020" y="713"/>
    </contour>
  </outline>
</glyph>
<glyph name="F" format="2">
  <advance width="1232"/>
  <unicode hex="0046"/>
  <outline>
    <contour>
      <point x="203" y="0" type="line"/>
      <point x="203" y="1454" type="line"/>
      <point x="1139" y="1454" type="line"/>
      <point x="1139" y="1413" type="line"/>
      <point x="244" y="1413" type="line"/>
      <point x="244" y="766" type="line"/>
      <point x="1008" y="766" type="line"/>
      <point x="1008" y="725" type="line"/>
      <point x="244" y="725" type="line"/>
      <point x="244" y="0" type="line"/>
    </contour>
  </outline>
</glyph>
<glyph name="G" format="2">
  <advance width="1474"/>
  <unicode hex="0047"/>
  <anchor x="0" y="0" name="Anchor-11"/>
  <anchor x="0" y="0" name="Anchor-10"/>
  <anchor x="758" y="1448" name="Anchor-9"/>
  <anchor x="0" y="0" name="Anchor-8"/>
  <anchor x="782" y="0" name="Anchor-7"/>
  <outline>
    <contour>
      <point x="967" y="692" type="line"/>
      <point x="1350" y="692" type="line"/>
      <point x="1350" y="0" type="line"/>
      <point x="1309" y="0" type="line"/>
      <point x="1309" y="250" type="line"/>
      <point x="1085" y="-10"/>
      <point x="784" y="-10" type="qcurve" smooth="yes"/>
      <point x="638" y="-10"/>
      <point x="377" y="120"/>
      <point x="201" y="329"/>
      <point x="98" y="593"/>
      <point x="98" y="727" type="qcurve" smooth="yes"/>
      <point x="98" y="840"/>
      <point x="161" y="1058"/>
      <point x="279" y="1243"/>
      <point x="439" y="1384"/>
      <point x="647" y="1464"/>
      <point x="760" y="1464" type="qcurve" smooth="yes"/>
      <point x="1156" y="1464"/>
      <point x="1315" y="1147" type="qcurve"/>
      <point x="1276" y="1135" type="line"/>
      <point x="1120" y="1423"/>
      <point x="760" y="1423" type="qcurve" smooth="yes"/>
      <point x="648" y="1423"/>
      <point x="449" y="1344"/>
      <point x="302" y="1208"/>
      <point x="194" y="1031"/>
      <point x="139" y="830"/>
      <point x="139" y="727" type="qcurve" smooth="yes"/>
      <point x="139" y="619"/>
      <point x="204" y="411"/>
      <point x="323" y="237"/>
      <point x="481" y="105"/>
      <point x="679" y="31"/>
      <point x="784" y="31" type="qcurve" smooth="yes"/>
      <point x="1075" y="31"/>
      <point x="1309" y="305" type="qcurve"/>
      <point x="1309" y="651" type="line"/>
      <point x="967" y="651" type="line"/>
    </contour>
  </outline>
</glyph>
<glyph name="H" format="2">
  <advance width="1497"/>
  <unicode hex="0048"/>
  <anchor x="0" y="0" name="Anchor-11"/>
  <anchor x="750" y="727" name="Anchor-10"/>
  <anchor x="752" y="1448" name="Anchor-9"/>
  <anchor x="0" y="0" name="Anchor-8"/>
  <anchor x="750" y="0" name="Anchor-7"/>
  <outline>
    <contour>
      <point x="1294" y="1454" type="line"/>
      <point x="1294" y="0" type="line"/>
      <point x="1253" y="0" type="line"/>
      <point x="1253" y="723" type="line"/>
      <point x="244" y="723" type="line"/>
      <point x="244" y="0" type="line"/>
      <point x="203" y="0" type="line"/>
      <point x="203" y="1454" type="line"/>
      <point x="244" y="1454" type="line"/>
      <point x="244" y="764" type="line"/>
      <point x="1253" y="764" type="line"/>
      <point x="1253" y="1454" type="line"/>
    </contour>
  </outline>
</glyph>
<glyph name="I" format="2">
  <advance width="446"/>
  <unicode hex="0049"/>
  <anchor x="0" y="0" name="Anchor-11"/>
  <anchor x="0" y="0" name="Anchor-10"/>
  <anchor x="223" y="1448" name="Anchor-9"/>
  <anchor x="244" y="0" name="Anchor-8"/>
  <anchor x="225" y="0" name="Anchor-7"/>
  <outline>
    <contour>
      <point x="203" y="0" type="line"/>
      <point x="203" y="1454" type="line"/>
      <point x="244" y="1454" type="line"/>
      <point x="244" y="0" type="line"/>
    </contour>
  </outline>
</glyph>
<glyph name="J" format="2">
  <advance width="968"/>
  <unicode hex="004A"/>
  <anchor x="0" y="0" name="Anchor-11"/>
  <anchor x="0" y="0" name="Anchor-10"/>
  <anchor x="764" y="1448" name="Anchor-9"/>
  <anchor x="0" y="0" name="Anchor-8"/>
  <anchor x="0" y="0" name="Anchor-7"/>
  <outline>
    <contour>
      <point x="61" y="100" type="line"/>
      <point x="182" y="18"/>
      <point x="354" y="18" type="qcurve" smooth="yes"/>
      <point x="428" y="18"/>
      <point x="542" y="51"/>
      <point x="624" y="108"/>
      <point x="682" y="205"/>
      <point x="717" y="311"/>
      <point x="737" y="465"/>
      <point x="743" y="613"/>
      <point x="743" y="715" type="qcurve" smooth="yes"/>
      <point x="743" y="1454" type="line"/>
      <point x="784" y="1454" type="line"/>
      <point x="784" y="715" type="line" smooth="yes"/>
      <point x="784" y="611"/>
      <point x="777" y="457"/>
      <point x="755" y="295"/>
      <point x="716" y="181"/>
      <point x="652" y="77"/>
      <point x="562" y="14"/>
      <point x="435" y="-23"/>
      <point x="354" y="-23" type="qcurve" smooth="yes"/>
      <point x="172" y="-23"/>
      <point x="39" y="68" type="qcurve"/>
    </contour>
  </outline>
</glyph>
<glyph name="K" format="2">
  <advance width="1271"/>
  <unicode hex="004B"/>
  <anchor x="0" y="0" name="Anchor-11"/>
  <anchor x="0" y="0" name="Anchor-10"/>
  <anchor x="0" y="0" name="Anchor-9"/>
  <anchor x="0" y="0" name="Anchor-8"/>
  <anchor x="643" y="0" name="Anchor-7"/>
  <outline>
    <contour>
      <point x="203" y="0" type="line"/>
      <point x="203" y="1454" type="line"/>
      <point x="244" y="1454" type="line"/>
      <point x="244" y="510" type="line"/>
      <point x="1169" y="1454" type="line"/>
      <point x="1229" y="1454" type="line"/>
      <point x="608" y="819" type="line"/>
      <point x="1257" y="0" type="line"/>
      <point x="1204" y="0" type="line"/>
      <point x="578" y="791" type="line"/>
      <point x="244" y="453" type="line"/>
      <point x="244" y="0" type="line"/>
    </contour>
  </outline>
</glyph>
<glyph name="L" format="2">
  <advance width="1185"/>
  <unicode hex="004C"/>
  <anchor x="788" y="1077" name="Anchor-11"/>
  <anchor x="594" y="727" name="Anchor-10"/>
  <anchor x="223" y="1454" name="Anchor-9"/>
  <anchor x="0" y="0" name="Anchor-8"/>
  <anchor x="678" y="0" name="Anchor-7"/>
  <outline>
    <contour>
      <point x="203" y="0" type="line"/>
      <point x="203" y="1454" type="line"/>
      <point x="244" y="1454" type="line"/>
      <point x="244" y="41" type="line"/>
      <point x="1157" y="41" type="line"/>
      <point x="1157" y="0" type="line"/>
    </contour>
  </outline>
</glyph>
<glyph name="M" format="2">
  <advance width="1810"/>
  <unicode hex="004D"/>
  <anchor x="0" y="0" name="Anchor-11"/>
  <anchor x="0" y="0" name="Anchor-10"/>
  <anchor x="905" y="1454" name="Anchor-9"/>
  <anchor x="0" y="0" name="Anchor-8"/>
  <anchor x="905" y="0" name="Anchor-7"/>
  <outline>
    <contour>
      <point x="1567" y="0" type="line"/>
      <point x="1567" y="1364" type="line"/>
      <point x="922" y="287" type="line"/>
      <point x="889" y="287" type="line"/>
      <point x="244" y="1364" type="line"/>
      <point x="244" y="0" type="line"/>
      <point x="203" y="0" type="line"/>
      <point x="203" y="1454" type="line"/>
      <point x="236" y="1454" type="line"/>
      <point x="905" y="336" type="line"/>
      <point x="1575" y="1454" type="line"/>
      <point x="1608" y="1454" type="line"/>
      <point x="1608" y="0" type="line"/>
    </contour>
  </outline>
</glyph>
<glyph name="T" format="2">
  <advance width="1228"/>
  <unicode hex="0054"/>
  <anchor x="0" y="0" name="Anchor-11"/>
  <anchor x="0" y="0" name="Anchor-10"/>
  <anchor x="614" y="1448" name="Anchor-9"/>
  <anchor x="0" y="0" name="Anchor-8"/>
  <anchor x="614" y="0" name="Anchor-7"/>
  <outline>
    <contour>
      <point x="1192" y="1413" type="line"/>
      <point x="635" y="1413" type="line"/>
      <point x="635" y="0" type="line"/>
      <point x="594" y="0" type="line"/>
      <point x="594" y="1413" type="line"/>
      <point x="37" y="1413" type="line"/>
      <point x="37" y="1454" type="line"/>
      <point x="1192" y="1454" type="line"/>
    </contour>
  </outline>
</glyph>
<glyph name="V" format="2">
  <advance width="1388"/>
  <unicode hex="0056"/>
  <outline>
    <contour>
      <point x="82" y="1454" type="line"/>
      <point x="694" y="51" type="line"/>
      <point x="1305" y="1454" type="line"/>
      <point x="1350" y="1454" type="line"/>
      <point x="717" y="0" type="line"/>
      <point x="672" y="0" type="line"/>
      <point x="39" y="1454" type="line"/>
    </contour>
  </outline>
</glyph>
<glyph name="bracketleft" format="2">
  <advance width="466"/>
  <unicode hex="005B"/>
  <outline>
    <contour>
      <point x="199" y="-82" type="line"/>
      <point x="199" y="1516" type="line"/>
      <point x="342" y="1516" type="line"/>
      <point x="342" y="1475" type="line"/>
      <point x="240" y="1475" type="line"/>
      <point x="240" y="-41" type="line"/>
      <point x="342" y="-41" type="line"/>
      <point x="342" y="-82" type="line"/>
    </contour>
  </outline>
</glyph>
<glyph name="backslash" format="2">
  <advance width="1052"/>
  <unicode hex="005C"/>
  <outline>
    <contour>
      <point x="109" y="1454" type="line"/>
      <point x="999" y="0" type="line"/>
      <point x="948" y="0" type="line"/>
      <point x="55" y="1454" type="line"/>
    </contour>
  </outline>
</glyph>
<glyph name="bracketright" format="2">
  <advance width="466"/>
  <unicode hex="005D"/>
  <outline>
    <contour>
      <point x="125" y="-82" type="line"/>
      <point x="125" y="-41" type="line"/>
      <point x="227" y="-41" type="line"/>
      <point x="227" y="1475" type="line"/>
      <point x="125" y="1475" type="line"/>
      <point x="125" y="1516" type="line"/>
      <point x="268" y="1516" type="line"/>
      <point x="268" y="-82" type="line"/>
    </contour>
  </outline>
</glyph>
<glyph name="asciicircum" format="2">
  <advance width="1034"/>
  <unicode hex="005E"/>
  <outline>
    <contour>
      <point x="94" y="621" type="line"/>
      <point x="500" y="1454" type="line"/>
      <point x="537" y="1454" type="line"/>
      <point x="940" y="621" type="line"/>
      <point x="893" y="621" type="line"/>
      <point x="518" y="1395" type="line"/>
      <point x="137" y="621" type="line"/>
    </contour>
  </outline>
</glyph>
<glyph name="underscore" format="2">
  <advance width="1087"/>
  <unicode hex="005F"/>
  <outline>
    <contour>
      <point x="141" y="-41" type="line"/>
      <point x="141" y="0" type="line"/>
      <point x="946" y="0" type="line"/>
      <point x="946" y="-41" type="line"/>
    </contour>
  </outline>
</glyph>
<glyph name="grave" format="2">
  <advance width="405"/>
  <unicode hex="0060"/>
  <outline>
    <contour>
      <point x="102" y="1495" type="line"/>
      <point x="170" y="1495" type="line"/>
      <point x="303" y="1346" type="line"/>
      <point x="270" y="1321" type="line"/>
    </contour>
  </outline>
</glyph>
<glyph name="b" format="2">
  <advance width="1234"/>
  <unicode hex="0062"/>
  <outline>
    <contour>
      <point x="213" y="221" type="qcurve"/>
      <point x="213" y="0" type="line"/>
      <point x="172" y="0" type="line"/>
      <point x="172" y="1495" type="line"/>
      <point x="213" y="1495" type="line"/>
      <point x="213" y="815" type="line"/>
      <point x="400" y="1079"/>
      <point x="647" y="1079" type="qcurve" smooth="yes"/>
      <point x="759" y="1079"/>
      <point x="950" y="981"/>
      <point x="1073" y="822"/>
      <point x="1141" y="627"/>
      <point x="1141" y="528" type="qcurve" smooth="yes"/>
      <point x="1141" y="385"/>
      <point x="1007" y="133"/>
      <point x="770" y="-20"/>
      <point x="629" y="-20" type="qcurve" smooth="yes"/>
      <point x="506" y="-20"/>
      <point x="278" y="117"/>
    </contour>
    <contour>
      <point x="1100" y="528" type="qcurve" smooth="yes"/>
      <point x="1100" y="660"/>
      <point x="987" y="892"/>
      <point x="777" y="1038"/>
      <point x="647" y="1038" type="qcurve" smooth="yes"/>
      <point x="504" y="1038"/>
      <point x="279" y="862"/>
      <point x="213" y="729" type="qcurve"/>
      <point x="213" y="342" type="line"/>
      <point x="218" y="259"/>
      <point x="357" y="106"/>
      <point x="545" y="20"/>
      <point x="629" y="20" type="qcurve" smooth="yes"/>
      <point x="729" y="20"/>
      <point x="907" y="108"/>
      <point x="1029" y="251"/>
      <point x="1100" y="434"/>
    </contour>
  </outline>
</glyph>
<glyph name="f" format="2">
  <advance width="612"/>
  <unicode hex="0066"/>
  <outline>
    <contour>
      <point x="211" y="0" type="line"/>
      <point x="211" y="1022" type="line"/>
      <point x="57" y="1022" type="line"/>
      <point x="57" y="1063" type="line"/>
      <point x="211" y="1063" type="line"/>
      <point x="211" y="1106" type="line" smooth="yes"/>
      <point x="211" y="1299"/>
      <point x="360" y="1516"/>
      <point x="492" y="1516" type="qcurve" smooth="yes"/>
      <point x="550" y="1516"/>
      <point x="658" y="1477"/>
      <point x="686" y="1446" type="qcurve"/>
      <point x="653" y="1421" type="line"/>
      <point x="628" y="1446"/>
      <point x="541" y="1477"/>
      <point x="494" y="1477" type="qcurve" smooth="yes"/>
      <point x="377" y="1477"/>
      <point x="252" y="1286"/>
      <point x="252" y="1106" type="qcurve" smooth="yes"/>
      <point x="252" y="1063" type="line"/>
      <point x="569" y="1063" type="line"/>
      <point x="569" y="1022" type="line"/>
      <point x="252" y="1022" type="line"/>
      <point x="252" y="0" type="line"/>
    </contour>
  </outline>
</glyph>
<glyph name="k" format="2">
  <advance width="1040"/>
  <unicode hex="006B"/>
  <anchor x="0" y="0" name="Anchor-11"/>
  <anchor x="0" y="0" name="Anchor-10"/>
  <anchor x="0" y="0" name="Anchor-9"/>
  <anchor x="0" y="0" name="Anchor-8"/>
  <anchor x="543" y="0" name="Anchor-7"/>
  <outline>
    <contour>
      <point x="954" y="0" type="line"/>
      <point x="502" y="608" type="line"/>
      <point x="213" y="346" type="line"/>
      <point x="213" y="0" type="line"/>
      <point x="172" y="0" type="line"/>
      <point x="172" y="1495" type="line"/>
      <point x="213" y="1495" type="line"/>
      <point x="213" y="401" type="line"/>
      <point x="938" y="1059" type="line"/>
      <point x="993" y="1059" type="line"/>
      <point x="532" y="637" type="line"/>
      <point x="1004" y="0" type="line"/>
    </contour>
  </outline>
</glyph>
<glyph name="m" format="2">
  <advance width="1859"/>
  <unicode hex="006D"/>
  <anchor x="0" y="0" name="Anchor-11"/>
  <anchor x="0" y="0" name="Anchor-10"/>
  <anchor x="930" y="1063" name="Anchor-9"/>
  <anchor x="0" y="0" name="Anchor-8"/>
  <anchor x="930" y="0" name="Anchor-7"/>
  <outline>
    <contour>
      <point x="1700" y="0" type="line"/>
      <point x="1659" y="0" type="line"/>
      <point x="1659" y="592" type="line" smooth="yes"/>
      <point x="1659" y="820"/>
      <point x="1520" y="1038"/>
      <point x="1374" y="1038" type="qcurve" smooth="yes"/>
      <point x="1225" y="1038"/>
      <point x="1000" y="835"/>
      <point x="956" y="670" type="qcurve"/>
      <point x="956" y="0" type="line"/>
      <point x="915" y="0" type="line"/>
      <point x="915" y="592" type="line" smooth="yes"/>
      <point x="915" y="823"/>
      <point x="779" y="1038"/>
      <point x="633" y="1038" type="qcurve" smooth="yes"/>
      <point x="485" y="1038"/>
      <point x="259" y="838"/>
      <point x="213" y="672" type="qcurve"/>
      <point x="213" y="0" type="line"/>
      <point x="172" y="0" type="line"/>
      <point x="172" y="1063" type="line"/>
      <point x="213" y="1063" type="line"/>
      <point x="213" y="788" type="line"/>
      <point x="282" y="926"/>
      <point x="499" y="1079"/>
      <point x="625" y="1079" type="qcurve" smooth="yes"/>
      <point x="758" y="1079"/>
      <point x="933" y="911"/>
      <point x="948" y="770" type="qcurve"/>
      <point x="1106" y="1079"/>
      <point x="1374" y="1079" type="qcurve" smooth="yes"/>
      <point x="1540" y="1079"/>
      <point x="1700" y="840"/>
      <point x="1700" y="592" type="qcurve" smooth="yes"/>
    </contour>
  </outline>
</glyph>
<glyph name="p" format="2">
  <advance width="1234"/>
  <unicode hex="0070"/>
  <outline>
    <contour>
      <point x="213" y="244" type="qcurve"/>
      <point x="213" y="-436" type="line"/>
      <point x="172" y="-436" type="line"/>
      <point x="172" y="1063" type="line"/>
      <point x="213" y="1063" type="line"/>
      <point x="213" y="838" type="line"/>
      <point x="281" y="945"/>
      <point x="509" y="1079"/>
      <point x="629" y="1079" type="qcurve" smooth="yes"/>
      <point x="773" y="1079"/>
      <point x="1012" y="916"/>
      <point x="1141" y="665"/>
      <point x="1141" y="528" type="qcurve" smooth="yes"/>
      <point x="1141" y="382"/>
      <point x="1020" y="133"/>
      <point x="791" y="-20"/>
      <point x="647" y="-20" type="qcurve" smooth="yes"/>
      <point x="514" y="-20"/>
      <point x="288" y="128"/>
    </contour>
    <contour>
      <point x="1100" y="528" type="qcurve" smooth="yes"/>
      <point x="1100" y="660"/>
      <point x="975" y="894"/>
      <point x="757" y="1038"/>
      <point x="629" y="1038" type="qcurve" smooth="yes"/>
      <point x="547" y="1038"/>
      <point x="357" y="948"/>
      <point x="218" y="794"/>
      <point x="213" y="713" type="qcurve"/>
      <point x="213" y="330" type="line"/>
      <point x="272" y="197"/>
      <point x="510" y="20"/>
      <point x="647" y="20" type="qcurve" smooth="yes"/>
      <point x="780" y="20"/>
      <point x="991" y="170"/>
      <point x="1100" y="400"/>
    </contour>
  </outline>
</glyph>
<glyph name="r" format="2">
  <advance width="661"/>
  <unicode hex="0072"/>
  <anchor x="0" y="0" name="Anchor-11"/>
  <anchor x="0" y="0" name="Anchor-10"/>
  <anchor x="360" y="1063" name="Anchor-9"/>
  <anchor x="0" y="0" name="Anchor-8"/>
  <anchor x="193" y="0" name="Anchor-7"/>
  <outline>
    <contour>
      <point x="627" y="1022" type="line"/>
      <point x="476" y="1016"/>
      <point x="256" y="830"/>
      <point x="213" y="672" type="qcurve"/>
      <point x="213" y="0" type="line"/>
      <point x="172" y="0" type="line"/>
      <point x="172" y="1063" type="line"/>
      <point x="213" y="1063" type="line"/>
      <point x="213" y="788" type="line"/>
      <point x="269" y="901"/>
      <point x="455" y="1047"/>
      <point x="559" y="1059" type="qcurve" smooth="yes"/>
      <point x="613" y="1063"/>
      <point x="627" y="1063" type="qcurve"/>
    </contour>
  </outline>
</glyph>
<glyph name="v" format="2">
  <advance width="1064"/>
  <unicode hex="0076"/>
  <outline>
    <contour>
      <point x="514" y="0" type="line"/>
      <point x="51" y="1063" type="line"/>
      <point x="96" y="1063" type="line"/>
      <point x="532" y="59" type="line"/>
      <point x="969" y="1063" type="line"/>
      <point x="1014" y="1063" type="line"/>
      <point x="551" y="0" type="line"/>
    </contour>
  </outline>
</glyph>
<glyph name="x" format="2">
  <advance width="987"/>
  <unicode hex="0078"/>
  <outline>
    <contour>
      <point x="94" y="1063" type="line"/>
      <point x="477" y="584" type="line"/>
      <point x="494" y="559" type="line"/>
      <point x="510" y="584" type="line"/>
      <point x="893" y="1063" type="line"/>
      <point x="946" y="1063" type="line"/>
      <point x="520" y="528" type="line"/>
      <point x="942" y="0" type="line"/>
      <point x="889" y="0" type="line"/>
      <point x="510" y="475" type="line"/>
      <point x="494" y="500" type="line"/>
      <point x="477" y="475" type="line"/>
      <point x="98" y="0" type="line"/>
      <point x="45" y="0" type="line"/>
      <point x="467" y="528" type="line"/>
      <point x="41" y="1063" type="line"/>
    </contour>
  </outline>
</glyph>
<glyph name="z" format="2">
  <advance width="999"/>
  <unicode hex="007A"/>
  <anchor x="0" y="0" name="Anchor-11"/>
  <anchor x="0" y="0" name="Anchor-10"/>
  <anchor x="530" y="1063" name="Anchor-9"/>
  <anchor x="0" y="0" name="Anchor-8"/>
  <anchor x="500" y="0" name="Anchor-7"/>
  <outline>
    <contour>
      <point x="68" y="41" type="line"/>
      <point x="879" y="1022" type="line"/>
      <point x="78" y="1022" type="line"/>
      <point x="78" y="1063" type="line"/>
      <point x="930" y="1063" type="line"/>
      <point x="930" y="1022" type="line"/>
      <point x="121" y="41" type="line"/>
      <point x="922" y="41" type="line"/>
      <point x="922" y="0" type="line"/>
      <point x="68" y="0" type="line"/>
    </contour>
  </outline>
</glyph>
<glyph name="braceleft" format="2">
  <advance width="468"/>
  <unicode hex="007B"/>
  <outline>
    <contour>
      <point x="242" y="1475" type="line"/>
      <point x="242" y="852" type="line" smooth="yes"/>
      <point x="242" y="776"/>
      <point x="199" y="737" type="qcurve"/>
      <point x="242" y="700"/>
      <point x="242" y="623" type="qcurve" smooth="yes"/>
      <point x="242" y="-23" type="line"/>
      <point x="354" y="-23" type="line"/>
      <point x="354" y="-63" type="line"/>
      <point x="248" y="-63" type="line" smooth="yes"/>
      <point x="228" y="-63"/>
      <point x="201" y="-33"/>
      <point x="201" y="-2" type="qcurve" smooth="yes"/>
      <point x="201" y="623" type="line" smooth="yes"/>
      <point x="201" y="711"/>
      <point x="139" y="719" type="qcurve"/>
      <point x="139" y="760" type="line"/>
      <point x="159" y="760"/>
      <point x="186" y="782"/>
      <point x="197" y="817"/>
      <point x="201" y="842"/>
      <point x="201" y="852" type="qcurve" smooth="yes"/>
      <point x="201" y="1454" type="line" smooth="yes"/>
      <point x="201" y="1488"/>
      <point x="234" y="1516"/>
      <point x="248" y="1516" type="qcurve" smooth="yes"/>
      <point x="354" y="1516" type="line"/>
      <point x="354" y="1475" type="line"/>
    </contour>
  </outline>
</glyph>
<glyph name="bar" format="2">
  <advance width="430"/>
  <unicode hex="007C"/>
  <outline>
    <contour>
      <point x="195" y="-266" type="line"/>
      <point x="195" y="1587" type="line"/>
      <point x="236" y="1587" type="line"/>
      <point x="236" y="-266" type="line"/>
    </contour>
  </outline>
</glyph>
<glyph name="braceright" format="2">
  <advance width="468"/>
  <unicode hex="007D"/>
  <outline>
    <contour>
      <point x="115" y="1475" type="line"/>
      <point x="115" y="1516" type="line"/>
      <point x="221" y="1516" type="line" smooth="yes"/>
      <point x="229" y="1516"/>
      <point x="247" y="1508"/>
      <point x="268" y="1478"/>
      <point x="268" y="1454" type="qcurve" smooth="yes"/>
      <point x="268" y="852" type="line" smooth="yes"/>
      <point x="268" y="842"/>
      <point x="272" y="817"/>
      <point x="283" y="782"/>
      <point x="310" y="760"/>
      <point x="330" y="760" type="qcurve"/>
      <point x="330" y="719" type="line"/>
      <point x="268" y="711"/>
      <point x="268" y="623" type="qcurve" smooth="yes"/>
      <point x="268" y="-2" type="line" smooth="yes"/>
      <point x="268" y="-33"/>
      <point x="241" y="-63"/>
      <point x="221" y="-63" type="qcurve" smooth="yes"/>
      <point x="115" y="-63" type="line"/>
      <point x="115" y="-23" type="line"/>
      <point x="227" y="-23" type="line"/>
      <point x="227" y="623" type="line" smooth="yes"/>
      <point x="227" y="700"/>
      <point x="270" y="737" type="qcurve"/>
      <point x="227" y="776"/>
      <point x="227" y="852" type="qcurve" smooth="yes"/>
      <point x="227" y="1475" type="line"/>
    </contour>
  </outline>
</glyph>
<glyph name="asciitilde" format="2">
  <advance width="946"/>
  <unicode hex="007E"/>
  <outline>
    <contour>
      <point x="315" y="680" type="qcurve" smooth="yes"/>
      <point x="352" y="680"/>
      <point x="437" y="641"/>
      <point x="501" y="594"/>
      <point x="585" y="555"/>
      <point x="621" y="555" type="qcurve" smooth="yes"/>
      <point x="655" y="555"/>
      <point x="714" y="586"/>
      <point x="746" y="628"/>
      <point x="764" y="661"/>
      <point x="764" y="666" type="qcurve"/>
      <point x="805" y="664" type="line"/>
      <point x="803" y="658"/>
      <point x="795" y="638"/>
      <point x="765" y="586"/>
      <point x="727" y="546"/>
      <point x="660" y="514"/>
      <point x="621" y="514" type="qcurve" smooth="yes"/>
      <point x="578" y="514"/>
      <point x="484" y="553"/>
      <point x="419" y="600"/>
      <point x="343" y="639"/>
      <point x="315" y="639" type="qcurve" smooth="yes"/>
      <point x="278" y="639"/>
      <point x="212" y="576"/>
      <point x="184" y="520"/>
      <point x="184" y="514" type="qcurve"/>
      <point x="143" y="514" type="line"/>
      <point x="143" y="518"/>
      <point x="155" y="551"/>
      <point x="182" y="601"/>
      <point x="220" y="647"/>
      <point x="280" y="680"/>
    </contour>
  </outline>
</glyph>
<glyph name="exclamdown" format="2">
  <advance width="466"/>
  <unicode hex="00A1"/>
  <outline>
    <contour>
      <point x="254" y="1468" type="line"/>
      <point x="254" y="1296" type="line"/>
      <point x="213" y="1296" type="line"/>
      <point x="213" y="1468" type="line"/>
    </contour>
    <contour>
      <point x="254" y="1059" type="line"/>
      <point x="254" y="0" type="line"/>
      <point x="213" y="0" type="line"/>
      <point x="213" y="1059" type="line"/>
    </contour>
  </outline>
</glyph>
<glyph name="cent" format="2">
  <advance width="1107"/>
  <unicode hex="00A2"/>
  <outline>
    <contour>
      <point x="565" y="-246" type="line"/>
      <point x="565" y="-18" type="line"/>
      <point x="431" y="-7"/>
      <point x="212" y="157"/>
      <point x="94" y="398"/>
      <point x="94" y="528" type="qcurve" smooth="yes"/>
      <point x="94" y="666"/>
      <point x="211" y="912"/>
      <point x="430" y="1072"/>
      <point x="565" y="1079" type="qcurve"/>
      <point x="565" y="1321" type="line"/>
      <point x="606" y="1321" type="line"/>
      <point x="606" y="1079" type="line"/>
      <point x="889" y="1071"/>
      <point x="1004" y="842" type="qcurve"/>
      <point x="965" y="827" type="line"/>
      <point x="854" y="1028"/>
      <point x="606" y="1038" type="qcurve"/>
      <point x="606" y="20" type="line"/>
      <point x="675" y="20"/>
      <point x="832" y="74"/>
      <point x="962" y="180"/>
      <point x="979" y="244" type="qcurve"/>
      <point x="1020" y="231" type="line"/>
      <point x="994" y="152"/>
      <point x="853" y="34"/>
      <point x="687" y="-20"/>
      <point x="606" y="-20" type="qcurve"/>
      <point x="606" y="-246" type="line"/>
    </contour>
    <contour>
      <point x="565" y="23" type="qcurve"/>
      <point x="565" y="1038" type="line"/>
      <point x="466" y="1033"/>
      <point x="300" y="939"/>
      <point x="194" y="793"/>
      <point x="135" y="618"/>
      <point x="135" y="528" type="qcurve" smooth="yes"/>
      <point x="135" y="403"/>
      <point x="247" y="180"/>
      <point x="446" y="34"/>
    </contour>
  </outline>
</glyph>
<glyph name="sterling" format="2">
  <advance width="956"/>
  <unicode hex="00A3"/>
  <outline>
    <contour>
      <point x="846" y="53" type="qcurve"/>
      <point x="858" y="14" type="line"/>
      <point x="748" y="-31"/>
      <point x="641" y="-31" type="qcurve" smooth="yes"/>
      <point x="582" y="-31"/>
      <point x="390" y="10"/>
      <point x="328" y="10" type="qcurve" smooth="yes"/>
      <point x="233" y="10"/>
      <point x="135" y="-14" type="qcurve"/>
      <point x="115" y="20" type="line"/>
      <point x="280" y="196"/>
      <point x="393" y="389"/>
      <point x="393" y="494" type="qcurve" smooth="yes"/>
      <point x="393" y="603"/>
      <point x="344" y="709" type="qcurve"/>
      <point x="98" y="709" type="line"/>
      <point x="98" y="750" type="line"/>
      <point x="324" y="750" type="line"/>
      <point x="307" y="782"/>
      <point x="236" y="899"/>
      <point x="196" y="970"/>
      <point x="162" y="1076"/>
      <point x="162" y="1126" type="qcurve" smooth="yes"/>
      <point x="162" y="1264"/>
      <point x="360" y="1464"/>
      <point x="496" y="1464" type="qcurve" smooth="yes"/>
      <point x="597" y="1464"/>
      <point x="774" y="1348"/>
      <point x="827" y="1249" type="qcurve"/>
      <point x="793" y="1225" type="line"/>
      <point x="743" y="1317"/>
      <point x="583" y="1423"/>
      <point x="492" y="1423" type="qcurve" smooth="yes"/>
      <point x="375" y="1423"/>
      <point x="207" y="1251"/>
      <point x="207" y="1130" type="qcurve" smooth="yes"/>
      <point x="207" y="1081"/>
      <point x="241" y="977"/>
      <point x="283" y="903"/>
      <point x="352" y="787"/>
      <point x="371" y="750" type="qcurve"/>
      <point x="725" y="750" type="line"/>
      <point x="725" y="709" type="line"/>
      <point x="391" y="709" type="line"/>
      <point x="436" y="604"/>
      <point x="436" y="496" type="qcurve" smooth="yes"/>
      <point x="436" y="387"/>
      <point x="329" y="183"/>
      <point x="195" y="37" type="qcurve"/>
      <point x="274" y="51"/>
      <point x="406" y="51"/>
      <point x="594" y="10"/>
      <point x="643" y="10" type="qcurve" smooth="yes"/>
      <point x="729" y="10"/>
    </contour>
  </outline>
</glyph>
<glyph name="currency" format="2">
  <advance width="1091"/>
  <unicode hex="00A4"/>
  <outline>
    <contour>
      <point x="299" y="956" type="line"/>
      <point x="401" y="1055"/>
      <point x="543" y="1055" type="qcurve" smooth="yes"/>
      <point x="690" y="1055"/>
      <point x="793" y="952" type="qcurve"/>
      <point x="936" y="1094" type="line"/>
      <point x="967" y="1065" type="line"/>
      <point x="821" y="922" type="line"/>
      <point x="905" y="813"/>
      <point x="905" y="686" type="qcurve" smooth="yes"/>
      <point x="905" y="555"/>
      <point x="817" y="449" type="qcurve"/>
      <point x="967" y="303" type="line"/>
      <point x="936" y="274" type="line"/>
      <point x="788" y="420" type="line"/>
      <point x="682" y="322"/>
      <point x="543" y="322" type="qcurve" smooth="yes"/>
      <point x="405" y="322"/>
      <point x="303" y="414" type="qcurve"/>
      <point x="162" y="274" type="line"/>
      <point x="131" y="303" type="line"/>
      <point x="274" y="444" type="line"/>
      <point x="184" y="548"/>
      <point x="184" y="686" type="qcurve" smooth="yes"/>
      <point x="184" y="819"/>
      <point x="270" y="926" type="qcurve"/>
      <point x="131" y="1065" type="line"/>
      <point x="162" y="1094" type="line"/>
    </contour>
    <contour>
      <point x="543" y="358" type="qcurve" smooth="yes"/>
      <point x="673" y="358"/>
      <point x="862" y="554"/>
      <point x="862" y="688" type="qcurve" smooth="yes"/>
      <point x="862" y="824"/>
      <point x="674" y="1016"/>
      <point x="543" y="1016" type="qcurve" smooth="yes"/>
      <point x="415" y="1016"/>
      <point x="227" y="821"/>
      <point x="227" y="684" type="qcurve" smooth="yes"/>
      <point x="227" y="549"/>
      <point x="414" y="358"/>
    </contour>
  </outline>
</glyph>
<glyph name="yen" format="2">
  <advance width="1333"/>
  <unicode hex="00A5"/>
  <outline>
    <contour>
      <point x="776" y="698" type="line"/>
      <point x="967" y="698" type="line"/>
      <point x="967" y="657" type="line"/>
      <point x="750" y="657" type="line"/>
      <point x="686" y="563" type="line"/>
      <point x="686" y="514" type="line"/>
      <point x="967" y="514" type="line"/>
      <point x="967" y="473" type="line"/>
      <point x="686" y="473" type="line"/>
      <point x="686" y="0" type="line"/>
      <point x="645" y="0" type="line"/>
      <point x="645" y="473" type="line"/>
      <point x="367" y="473" type="line"/>
      <point x="367" y="514" type="line"/>
      <point x="645" y="514" type="line"/>
      <point x="645" y="567" type="line"/>
      <point x="586" y="657" type="line"/>
      <point x="367" y="657" type="line"/>
      <point x="367" y="698" type="line"/>
      <point x="559" y="698" type="line"/>
      <point x="57" y="1454" type="line"/>
      <point x="104" y="1454" type="line"/>
      <point x="666" y="610" type="line"/>
      <point x="1229" y="1454" type="line"/>
      <point x="1276" y="1454" type="line"/>
    </contour>
  </outline>
</glyph>
<glyph name="brokenbar" format="2">
  <advance width="438"/>
  <unicode hex="00A6"/>
  <outline>
    <contour>
      <point x="240" y="1587" type="line"/>
      <point x="240" y="737" type="line"/>
      <point x="199" y="737" type="line"/>
      <point x="199" y="1587" type="line"/>
    </contour>
    <contour>
      <point x="240" y="584" type="line"/>
      <point x="240" y="-266" type="line"/>
      <point x="199" y="-266" type="line"/>
      <point x="199" y="584" type="line"/>
    </contour>
  </outline>
</glyph>
<glyph name="section" format="2">
  <advance width="985"/>
  <unicode hex="00A7"/>
  <outline>
    <contour>
      <point x="899" y="152" type="qcurve" smooth="yes"/>
      <point x="899" y="75"/>
      <point x="829" y="-55"/>
      <point x="718" y="-136"/>
      <point x="585" y="-180"/>
      <point x="518" y="-180" type="qcurve" smooth="yes"/>
      <point x="396" y="-180"/>
      <point x="214" y="-91"/>
      <point x="135" y="-12" type="qcurve"/>
      <point x="166" y="14" type="line"/>
      <point x="251" y="-64"/>
      <point x="419" y="-139"/>
      <point x="518" y="-139" type="qcurve" smooth="yes"/>
      <point x="601" y="-139"/>
      <point x="754" y="-71"/>
      <point x="858" y="65"/>
      <point x="858" y="152" type="qcurve" smooth="yes"/>
      <point x="858" y="223"/>
      <point x="802" y="320"/>
      <point x="700" y="368"/>
      <point x="597" y="387"/>
      <point x="530" y="389" type="qcurve" smooth="yes"/>
      <point x="451" y="391"/>
      <point x="318" y="429"/>
      <point x="211" y="501"/>
      <point x="150" y="620"/>
      <point x="150" y="698" type="qcurve" smooth="yes"/>
      <point x="150" y="752"/>
      <point x="186" y="859"/>
      <point x="215" y="891" type="qcurve"/>
      <point x="159" y="925"/>
      <point x="94" y="1058"/>
      <point x="94" y="1141" type="qcurve" smooth="yes"/>
      <point x="94" y="1215"/>
      <point x="163" y="1341"/>
      <point x="273" y="1420"/>
      <point x="405" y="1464"/>
      <point x="471" y="1464" type="qcurve" smooth="yes"/>
      <point x="600" y="1464"/>
      <point x="755" y="1389"/>
      <point x="809" y="1311" type="qcurve"/>
      <point x="772" y="1294" type="line"/>
      <point x="753" y="1332"/>
      <point x="683" y="1385"/>
      <point x="596" y="1412"/>
      <point x="515" y="1423"/>
      <point x="471" y="1423" type="qcurve" smooth="yes"/>
      <point x="389" y="1423"/>
      <point x="237" y="1357"/>
      <point x="135" y="1225"/>
      <point x="135" y="1141" type="qcurve" smooth="yes"/>
      <point x="135" y="872"/>
      <point x="475" y="872" type="qcurve" smooth="yes"/>
      <point x="550" y="872"/>
      <point x="685" y="838"/>
      <point x="798" y="769"/>
      <point x="864" y="650"/>
      <point x="864" y="573" type="qcurve" smooth="yes"/>
      <point x="864" y="514"/>
      <point x="823" y="405"/>
      <point x="788" y="371" type="qcurve"/>
      <point x="899" y="310"/>
    </contour>
    <contour>
      <point x="748" y="389" type="qcurve"/>
      <point x="783" y="418"/>
      <point x="823" y="518"/>
      <point x="823" y="573" type="qcurve" smooth="yes"/>
      <point x="823" y="644"/>
      <point x="759" y="749"/>
      <point x="653" y="805"/>
      <point x="537" y="831"/>
      <point x="475" y="831" type="qcurve" smooth="yes"/>
      <point x="345" y="831"/>
      <point x="254" y="870" type="qcurve"/>
      <point x="225" y="842"/>
      <point x="190" y="748"/>
      <point x="190" y="698" type="qcurve" smooth="yes"/>
      <point x="190" y="620"/>
      <point x="250" y="513"/>
      <point x="341" y="462"/>
      <point x="468" y="431"/>
      <point x="583" y="423"/>
      <point x="710" y="404"/>
    </contour>
  </outline>
</glyph>
<glyph name="dieresis" format="2">
  <advance width="483"/>
  <unicode hex="00A8"/>
  <anchor x="242" y="1475" name="Anchor-13"/>
  <outline>
    <contour>
      <point x="102" y="1337" type="line"/>
      <point x="102" y="1495" type="line"/>
      <point x="143" y="1495" type="line"/>
      <point x="143" y="1337" type="line"/>
    </contour>
    <contour>
      <point x="340" y="1337" type="line"/>
      <point x="340" y="1495" type="line"/>
      <point x="381" y="1495" type="line"/>
      <point x="381" y="1337" type="line"/>
    </contour>
  </outline>
</glyph>
<glyph name="copyright" format="2">
  <advance width="1687"/>
  <unicode hex="00A9"/>
  <outline>
    <contour>
      <point x="104" y="727" type="qcurve" smooth="yes"/>
      <point x="104" y="883"/>
      <point x="217" y="1157"/>
      <point x="412" y="1352"/>
      <point x="687" y="1464"/>
      <point x="1001" y="1464"/>
      <point x="1275" y="1352"/>
      <point x="1471" y="1157"/>
      <point x="1583" y="883"/>
      <point x="1583" y="727" type="qcurve" smooth="yes"/>
      <point x="1583" y="570"/>
      <point x="1471" y="295"/>
      <point x="1275" y="99"/>
      <point x="1001" y="-14"/>
      <point x="687" y="-14"/>
      <point x="412" y="99"/>
      <point x="217" y="295"/>
      <point x="104" y="570"/>
    </contour>
    <contour>
      <point x="1540" y="721" type="qcurve" smooth="yes"/>
      <point x="1540" y="921"/>
      <point x="1360" y="1243"/>
      <point x="1043" y="1423"/>
      <point x="846" y="1423" type="qcurve" smooth="yes"/>
      <point x="648" y="1423"/>
      <point x="328" y="1242"/>
      <point x="147" y="923"/>
      <point x="147" y="725" type="qcurve" smooth="yes"/>
      <point x="147" y="528"/>
      <point x="327" y="209"/>
      <point x="647" y="27"/>
      <point x="846" y="27" type="qcurve" smooth="yes"/>
      <point x="1040" y="27"/>
      <point x="1356" y="200"/>
      <point x="1540" y="519"/>
    </contour>
    <contour>
      <point x="410" y="727" type="qcurve" smooth="yes"/>
      <point x="410" y="812"/>
      <point x="462" y="974"/>
      <point x="563" y="1114"/>
      <point x="734" y="1200"/>
      <point x="842" y="1200" type="qcurve" smooth="yes"/>
      <point x="962" y="1200"/>
      <point x="1152" y="1096"/>
      <point x="1190" y="997" type="qcurve"/>
      <point x="1151" y="983" type="line"/>
      <point x="1129" y="1036"/>
      <point x="1051" y="1110"/>
      <point x="960" y="1145"/>
      <point x="882" y="1159"/>
      <point x="842" y="1159" type="qcurve" smooth="yes"/>
      <point x="764" y="1159"/>
      <point x="632" y="1107"/>
      <point x="543" y="1021"/>
      <point x="480" y="909"/>
      <point x="451" y="788"/>
      <point x="451" y="727" type="qcurve" smooth="yes"/>
      <point x="451" y="648"/>
      <point x="500" y="509"/>
      <point x="582" y="409"/>
      <point x="686" y="337"/>
      <point x="797" y="301"/>
      <point x="850" y="301" type="qcurve" smooth="yes"/>
      <point x="945" y="301"/>
      <point x="1136" y="405"/>
      <point x="1171" y="487" type="qcurve"/>
      <point x="1210" y="477" type="line"/>
      <point x="1202" y="448"/>
      <point x="1143" y="376"/>
      <point x="1054" y="307"/>
      <point x="925" y="260"/>
      <point x="858" y="260" type="qcurve" smooth="yes"/>
      <point x="779" y="260"/>
      <point x="622" y="324"/>
      <point x="491" y="439"/>
      <point x="410" y="620"/>
    </contour>
  </outline>
</glyph>
<glyph name="ordfeminine" format="2">
  <advance width="870"/>
  <unicode hex="00AA"/>
  <anchor x="0" y="0" name="Anchor-11"/>
  <anchor x="0" y="0" name="Anchor-10"/>
  <anchor x="539" y="1063" name="Anchor-9"/>
  <anchor x="0" y="0" name="Anchor-8"/>
  <anchor x="934" y="23" name="Anchor-7"/>
  <outline>
    <contour>
      <point x="106" y="1030"/>
      <point x="278" y="1147"/>
      <point x="412" y="1147" type="qcurve" smooth="yes"/>
      <point x="544" y="1147"/>
      <point x="647" y="1108" type="qcurve"/>
      <point x="647" y="1180" type="line" smooth="yes"/>
      <point x="647" y="1280"/>
      <point x="524" y="1401"/>
      <point x="420" y="1401" type="qcurve" smooth="yes"/>
      <point x="310" y="1401"/>
      <point x="182" y="1317" type="qcurve"/>
      <point x="156" y="1358" type="line"/>
      <point x="299" y="1452"/>
      <point x="424" y="1452" type="qcurve" smooth="yes"/>
      <point x="557" y="1452"/>
      <point x="711" y="1304"/>
      <point x="711" y="1174" type="qcurve" smooth="yes"/>
      <point x="711" y="823" type="line" smooth="yes"/>
      <point x="711" y="791"/>
      <point x="739" y="791" type="qcurve"/>
      <point x="739" y="731" type="line"/>
      <point x="712" y="731"/>
      <point x="702" y="733" type="qcurve" smooth="yes"/>
      <point x="655" y="743"/>
      <point x="655" y="793" type="qcurve" smooth="yes"/>
      <point x="653" y="852" type="line"/>
      <point x="602" y="789"/>
      <point x="441" y="719"/>
      <point x="348" y="719" type="qcurve" smooth="yes"/>
      <point x="247" y="719"/>
      <point x="106" y="846"/>
    </contour>
    <contour>
      <point x="625" y="881" type="qcurve" smooth="yes"/>
      <point x="647" y="909"/>
      <point x="647" y="936" type="qcurve" smooth="yes"/>
      <point x="647" y="1061" type="line"/>
      <point x="553" y="1100"/>
      <point x="420" y="1100" type="qcurve" smooth="yes"/>
      <point x="307" y="1100"/>
      <point x="168" y="1013"/>
      <point x="168" y="940" type="qcurve" smooth="yes"/>
      <point x="168" y="869"/>
      <point x="279" y="772"/>
      <point x="360" y="772" type="qcurve" smooth="yes"/>
      <point x="444" y="772"/>
      <point x="588" y="831"/>
    </contour>
  </outline>
</glyph>
<glyph name="guillemotleft" format="2">
  <advance width="1060"/>
  <unicode hex="00AB"/>
  <outline>
    <contour>
      <point x="86" y="549" type="line"/>
      <point x="571" y="895" type="line"/>
      <point x="571" y="850" type="line"/>
      <point x="125" y="530" type="line"/>
      <point x="571" y="209" type="line"/>
      <point x="571" y="164" type="line"/>
      <point x="86" y="512" type="line"/>
    </contour>
    <contour>
      <point x="434" y="549" type="line"/>
      <point x="920" y="895" type="line"/>
      <point x="920" y="850" type="line"/>
      <point x="473" y="530" type="line"/>
      <point x="920" y="209" type="line"/>
      <point x="920" y="164" type="line"/>
      <point x="434" y="512" type="line"/>
    </contour>
  </outline>
</glyph>
<glyph name="logicalnot" format="2">
  <advance width="1148"/>
  <unicode hex="00AC"/>
  <outline>
    <contour>
      <point x="1004" y="692" type="line"/>
      <point x="1004" y="287" type="line"/>
      <point x="963" y="287" type="line"/>
      <point x="963" y="651" type="line"/>
      <point x="178" y="651" type="line"/>
      <point x="178" y="692" type="line"/>
    </contour>
  </outline>
</glyph>
<glyph name="sfthyphen" format="2">
  <advance width="1107"/>
  <unicode hex="00AD"/>
  <outline>
    <contour>
      <point x="141" y="535" type="line"/>
      <point x="141" y="575" type="line"/>
      <point x="967" y="575" type="line"/>
      <point x="967" y="535" type="line"/>
    </contour>
  </outline>
</glyph>
<glyph name="registered" format="2">
  <advance width="1687"/>
  <unicode hex="00AE"/>
  <outline>
    <contour>
      <point x="104" y="727" type="qcurve" smooth="yes"/>
      <point x="104" y="883"/>
      <point x="217" y="1157"/>
      <point x="412" y="1352"/>
      <point x="687" y="1464"/>
      <point x="1001" y="1464"/>
      <point x="1275" y="1352"/>
      <point x="1471" y="1157"/>
      <point x="1583" y="883"/>
      <point x="1583" y="727" type="qcurve" smooth="yes"/>
      <point x="1583" y="570"/>
      <point x="1471" y="295"/>
      <point x="1275" y="99"/>
      <point x="1001" y="-14"/>
      <point x="687" y="-14"/>
      <point x="412" y="99"/>
      <point x="217" y="295"/>
      <point x="104" y="570"/>
    </contour>
    <contour>
      <point x="1540" y="727" type="qcurve" smooth="yes"/>
      <point x="1540" y="874"/>
      <point x="1434" y="1132"/>
      <point x="1251" y="1316"/>
      <point x="992" y="1423"/>
      <point x="844" y="1423" type="qcurve" smooth="yes"/>
      <point x="697" y="1423"/>
      <point x="438" y="1316"/>
      <point x="253" y="1132"/>
      <point x="147" y="874"/>
      <point x="147" y="727" type="qcurve" smooth="yes"/>
      <point x="147" y="529"/>
      <point x="327" y="209"/>
      <point x="646" y="27"/>
      <point x="844" y="27" type="qcurve" smooth="yes"/>
      <point x="1040" y="27"/>
      <point x="1356" y="199"/>
      <point x="1540" y="520"/>
    </contour>
    <contour>
      <point x="547" y="1194" type="line"/>
      <point x="932" y="1194" type="line" smooth="yes"/>
      <point x="1045" y="1194"/>
      <point x="1198" y="1018"/>
      <point x="1198" y="907" type="qcurve" smooth="yes"/>
      <point x="1198" y="795"/>
      <point x="1061" y="628"/>
      <point x="956" y="621" type="qcurve"/>
      <point x="1196" y="248" type="line"/>
      <point x="1147" y="248" type="line"/>
      <point x="909" y="621" type="line"/>
      <point x="590" y="621" type="line"/>
      <point x="590" y="248" type="line"/>
      <point x="547" y="248" type="line"/>
    </contour>
    <contour>
      <point x="942" y="662" type="line" smooth="yes"/>
      <point x="1043" y="662"/>
      <point x="1157" y="803"/>
      <point x="1157" y="907" type="qcurve" smooth="yes"/>
      <point x="1157" y="1009"/>
      <point x="1030" y="1151"/>
      <point x="932" y="1151" type="qcurve" smooth="yes"/>
      <point x="590" y="1151" type="line"/>
      <point x="590" y="662" type="line"/>
    </contour>
  </outline>
</glyph>
<glyph name="macron" format="2">
  <advance width="778"/>
  <unicode hex="00AF"/>
  <anchor x="389" y="1446" name="Anchor-13"/>
  <outline>
    <contour>
      <point x="102" y="1405" type="line"/>
      <point x="102" y="1446" type="line"/>
      <point x="676" y="1446" type="line"/>
      <point x="676" y="1405" type="line"/>
    </contour>
  </outline>
</glyph>
<glyph name="degree" format="2">
  <advance width="516"/>
  <unicode hex="00B0"/>
  <outline>
    <contour>
      <point x="316" y="1483"/>
      <point x="399" y="1400"/>
      <point x="399" y="1282"/>
      <point x="316" y="1200"/>
      <point x="200" y="1200"/>
      <point x="117" y="1282"/>
      <point x="117" y="1400"/>
      <point x="200" y="1483"/>
    </contour>
    <contour>
      <point x="158" y="1297"/>
      <point x="186" y="1272" type="qcurve" smooth="yes"/>
      <point x="217" y="1241"/>
      <point x="299" y="1241"/>
      <point x="330" y="1272" type="qcurve" smooth="yes"/>
      <point x="358" y="1300"/>
      <point x="358" y="1382"/>
      <point x="330" y="1413" type="qcurve" smooth="yes"/>
      <point x="301" y="1442"/>
      <point x="215" y="1442"/>
      <point x="186" y="1413" type="qcurve" smooth="yes"/>
      <point x="158" y="1385"/>
    </contour>
  </outline>
</glyph>
<glyph name="plusminus" format="2">
  <advance width="962"/>
  <unicode hex="00B1"/>
  <outline>
    <contour>
      <point x="788" y="748" type="line"/>
      <point x="788" y="707" type="line"/>
      <point x="502" y="707" type="line"/>
      <point x="502" y="399" type="line"/>
      <point x="461" y="399" type="line"/>
      <point x="461" y="707" type="line"/>
      <point x="174" y="707" type="line"/>
      <point x="174" y="748" type="line"/>
      <point x="461" y="748" type="line"/>
      <point x="461" y="1055" type="line"/>
      <point x="502" y="1055" type="line"/>
      <point x="502" y="748" type="line"/>
    </contour>
    <contour>
      <point x="174" y="174" type="line"/>
      <point x="174" y="215" type="line"/>
      <point x="788" y="215" type="line"/>
      <point x="788" y="174" type="line"/>
    </contour>
  </outline>
</glyph>
<glyph name="twosuperior" format="2">
  <advance width="755"/>
  <unicode hex="00B2"/>
  <outline>
    <contour>
      <point x="82" y="866" type="line"/>
      <point x="82" y="1011"/>
      <point x="209" y="1175"/>
      <point x="334" y="1221" type="qcurve" smooth="yes"/>
      <point x="351" y="1227"/>
      <point x="425" y="1252"/>
      <point x="466" y="1268"/>
      <point x="529" y="1295"/>
      <point x="566" y="1323"/>
      <point x="604" y="1362"/>
      <point x="621" y="1411"/>
      <point x="621" y="1440" type="qcurve" smooth="yes"/>
      <point x="621" y="1516"/>
      <point x="501" y="1622"/>
      <point x="389" y="1622" type="qcurve" smooth="yes"/>
      <point x="219" y="1622"/>
      <point x="123" y="1499" type="qcurve"/>
      <point x="92" y="1524" type="line"/>
      <point x="96" y="1530"/>
      <point x="117" y="1555"/>
      <point x="170" y="1598"/>
      <point x="235" y="1634"/>
      <point x="337" y="1661"/>
      <point x="393" y="1661" type="qcurve" smooth="yes"/>
      <point x="524" y="1661"/>
      <point x="664" y="1532"/>
      <point x="664" y="1438" type="qcurve" smooth="yes"/>
      <point x="664" y="1411"/>
      <point x="652" y="1364"/>
      <point x="626" y="1326"/>
      <point x="599" y="1295"/>
      <point x="554" y="1268"/>
      <point x="521" y="1248"/>
      <point x="465" y="1227"/>
      <point x="434" y="1216"/>
      <point x="376" y="1198"/>
      <point x="365" y="1194" type="qcurve" smooth="yes"/>
      <point x="303" y="1173"/>
      <point x="214" y="1113"/>
      <point x="167" y="1056"/>
      <point x="139" y="985"/>
      <point x="133" y="935"/>
      <point x="133" y="905" type="qcurve"/>
      <point x="666" y="905" type="line"/>
      <point x="666" y="866" type="line"/>
    </contour>
  </outline>
</glyph>
<glyph name="threesuperior" format="2">
  <advance width="778"/>
  <unicode hex="00B3"/>
  <outline>
    <contour>
      <point x="84" y="1053" type="qcurve"/>
      <point x="117" y="1067" type="line"/>
      <point x="122" y="997"/>
      <point x="278" y="895"/>
      <point x="500" y="895"/>
      <point x="649" y="994"/>
      <point x="649" y="1069" type="qcurve" smooth="yes"/>
      <point x="649" y="1150"/>
      <point x="481" y="1247"/>
      <point x="344" y="1247" type="qcurve" smooth="yes"/>
      <point x="299" y="1247" type="line"/>
      <point x="299" y="1284" type="line"/>
      <point x="344" y="1284" type="line" smooth="yes"/>
      <point x="478" y="1284"/>
      <point x="623" y="1366"/>
      <point x="623" y="1442" type="qcurve" smooth="yes"/>
      <point x="623" y="1521"/>
      <point x="481" y="1624"/>
      <point x="373" y="1624" type="qcurve" smooth="yes"/>
      <point x="288" y="1624"/>
      <point x="156" y="1556"/>
      <point x="129" y="1501" type="qcurve"/>
      <point x="98" y="1526" type="line"/>
      <point x="129" y="1587"/>
      <point x="279" y="1661"/>
      <point x="373" y="1661" type="qcurve" smooth="yes"/>
      <point x="499" y="1661"/>
      <point x="666" y="1536"/>
      <point x="666" y="1444" type="qcurve" smooth="yes"/>
      <point x="666" y="1307"/>
      <point x="483" y="1266" type="qcurve"/>
      <point x="576" y="1251"/>
      <point x="690" y="1140"/>
      <point x="690" y="1065" type="qcurve" smooth="yes"/>
      <point x="690" y="975"/>
      <point x="516" y="856"/>
      <point x="389" y="856" type="qcurve" smooth="yes"/>
      <point x="261" y="856"/>
      <point x="90" y="967"/>
    </contour>
  </outline>
</glyph>
<glyph name="acute" format="2">
  <advance width="405"/>
  <unicode hex="00B4"/>
  <anchor x="203" y="1495" name="Anchor-13"/>
  <outline>
    <contour>
      <point x="135" y="1321" type="line"/>
      <point x="102" y="1346" type="line"/>
      <point x="233" y="1495" type="line"/>
      <point x="303" y="1495" type="line"/>
    </contour>
  </outline>
</glyph>
<glyph name="mu" format="2">
  <advance width="1232"/>
  <unicode hex="00B5"/>
  <outline>
    <contour>
      <point x="186" y="1063" type="line"/>
      <point x="227" y="1063" type="line"/>
      <point x="227" y="467" type="line" smooth="yes"/>
      <point x="227" y="241"/>
      <point x="376" y="20"/>
      <point x="528" y="20" type="qcurve" smooth="yes"/>
      <point x="682" y="20"/>
      <point x="944" y="227"/>
      <point x="991" y="387" type="qcurve"/>
      <point x="991" y="1063" type="line"/>
      <point x="1032" y="1063" type="line"/>
      <point x="1032" y="82" type="line" smooth="yes"/>
      <point x="1032" y="63"/>
      <point x="1050" y="41"/>
      <point x="1065" y="41" type="qcurve"/>
      <point x="1065" y="0" type="line"/>
      <point x="1042" y="0"/>
      <point x="1036" y="4" type="qcurve" smooth="yes"/>
      <point x="1016" y="11"/>
      <point x="991" y="55"/>
      <point x="991" y="82" type="qcurve" smooth="yes"/>
      <point x="991" y="270" type="line"/>
      <point x="922" y="137"/>
      <point x="671" y="-20"/>
      <point x="528" y="-20" type="qcurve" smooth="yes"/>
      <point x="304" y="-20"/>
      <point x="227" y="193" type="qcurve"/>
      <point x="227" y="-434" type="line"/>
      <point x="186" y="-434" type="line"/>
    </contour>
  </outline>
</glyph>
<glyph name="paragraph" format="2">
  <advance width="1157"/>
  <unicode hex="00B6"/>
  <outline>
    <contour>
      <point x="643" y="1454" type="qcurve" smooth="yes"/>
      <point x="1055" y="1454" type="line"/>
      <point x="1055" y="1413" type="line"/>
      <point x="911" y="1413" type="line"/>
      <point x="911" y="-164" type="line"/>
      <point x="870" y="-164" type="line"/>
      <point x="870" y="508" type="line"/>
      <point x="684" y="508" type="line"/>
      <point x="684" y="-164" type="line"/>
      <point x="643" y="-164" type="line"/>
      <point x="643" y="508" type="line"/>
      <point x="373" y="513"/>
      <point x="66" y="761"/>
      <point x="66" y="1201"/>
      <point x="372" y="1454"/>
    </contour>
    <contour>
      <point x="643" y="549" type="qcurve"/>
      <point x="643" y="1413" type="line"/>
      <point x="384" y="1413"/>
      <point x="106" y="1186"/>
      <point x="106" y="981" type="qcurve" smooth="yes"/>
      <point x="106" y="872"/>
      <point x="191" y="706"/>
      <point x="343" y="606"/>
      <point x="530" y="554"/>
    </contour>
    <contour>
      <point x="870" y="1413" type="line"/>
      <point x="684" y="1413" type="line"/>
      <point x="684" y="549" type="line"/>
      <point x="870" y="549" type="line"/>
    </contour>
  </outline>
</glyph>
<glyph name="periodcentered" format="2">
  <advance width="323"/>
  <unicode hex="00B7"/>
  <outline>
    <contour>
      <point x="141" y="512" type="line"/>
      <point x="141" y="682" type="line"/>
      <point x="182" y="682" type="line"/>
      <point x="182" y="512" type="line"/>
    </contour>
  </outline>
</glyph>
<glyph name="cedilla" format="2">
  <advance width="516"/>
  <unicode hex="00B8"/>
  <outline>
    <contour>
      <point x="307" y="-336" type="qcurve" smooth="yes"/>
      <point x="184" y="-336"/>
      <point x="82" y="-285" type="qcurve"/>
      <point x="104" y="-250" type="line"/>
      <point x="162" y="-275"/>
      <point x="247" y="-299"/>
      <point x="301" y="-299" type="qcurve" smooth="yes"/>
      <point x="465" y="-299"/>
      <point x="465" y="-184" type="qcurve" smooth="yes"/>
      <point x="465" y="-127"/>
      <point x="389" y="-44"/>
      <point x="307" y="0" type="qcurve"/>
      <point x="348" y="16" type="line"/>
      <point x="428" y="-29"/>
      <point x="506" y="-120"/>
      <point x="506" y="-184" type="qcurve" smooth="yes"/>
      <point x="506" y="-260"/>
      <point x="398" y="-336"/>
    </contour>
  </outline>
</glyph>
<glyph name="onesuperior" format="2">
  <advance width="516"/>
  <unicode hex="00B9"/>
  <outline>
    <contour>
      <point x="471" y="903" type="line"/>
      <point x="471" y="864" type="line"/>
      <point x="100" y="864" type="line"/>
      <point x="100" y="903" type="line"/>
      <point x="270" y="903" type="line"/>
      <point x="270" y="1608" type="line"/>
      <point x="245" y="1578"/>
      <point x="119" y="1511"/>
      <point x="72" y="1511" type="qcurve"/>
      <point x="72" y="1550" type="line"/>
      <point x="111" y="1550"/>
      <point x="210" y="1605"/>
      <point x="265" y="1654"/>
      <point x="270" y="1661" type="qcurve"/>
      <point x="311" y="1661" type="line"/>
      <point x="311" y="903" type="line"/>
    </contour>
  </outline>
</glyph>
<glyph name="ordmasculine" format="2">
  <advance width="921"/>
  <unicode hex="00BA"/>
  <anchor x="0" y="0" name="Anchor-11"/>
  <anchor x="0" y="0" name="Anchor-10"/>
  <anchor x="600" y="1063" name="Anchor-9"/>
  <anchor x="0" y="0" name="Anchor-8"/>
  <anchor x="598" y="0" name="Anchor-7"/>
  <outline>
    <contour>
      <point x="100" y="1083" type="qcurve" smooth="yes"/>
      <point x="100" y="1235"/>
      <point x="309" y="1452"/>
      <point x="459" y="1452" type="qcurve" smooth="yes"/>
      <point x="610" y="1452"/>
      <point x="821" y="1235"/>
      <point x="821" y="1083" type="qcurve" smooth="yes"/>
      <point x="821" y="935"/>
      <point x="611" y="719"/>
      <point x="459" y="719" type="qcurve" smooth="yes"/>
      <point x="309" y="719"/>
      <point x="100" y="935"/>
    </contour>
    <contour>
      <point x="459" y="758" type="qcurve" smooth="yes"/>
      <point x="589" y="758"/>
      <point x="776" y="951"/>
      <point x="776" y="1085" type="qcurve" smooth="yes"/>
      <point x="776" y="1220"/>
      <point x="590" y="1411"/>
      <point x="459" y="1411" type="qcurve" smooth="yes"/>
      <point x="331" y="1411"/>
      <point x="145" y="1217"/>
      <point x="145" y="1081" type="qcurve" smooth="yes"/>
      <point x="145" y="948"/>
      <point x="330" y="758"/>
    </contour>
  </outline>
</glyph>
<glyph name="guillemotright" format="2">
  <advance width="1060"/>
  <unicode hex="00BB"/>
  <outline>
    <contour>
      <point x="627" y="512" type="line"/>
      <point x="141" y="164" type="line"/>
      <point x="141" y="209" type="line"/>
      <point x="588" y="530" type="line"/>
      <point x="141" y="850" type="line"/>
      <point x="141" y="895" type="line"/>
      <point x="627" y="549" type="line"/>
    </contour>
    <contour>
      <point x="975" y="512" type="line"/>
      <point x="489" y="164" type="line"/>
      <point x="489" y="209" type="line"/>
      <point x="936" y="530" type="line"/>
      <point x="489" y="850" type="line"/>
      <point x="489" y="895" type="line"/>
      <point x="975" y="549" type="line"/>
    </contour>
  </outline>
</glyph>
<glyph name="onequarter" format="2">
  <advance width="1482"/>
  <unicode hex="00BC"/>
  <outline>
    <contour>
      <point x="471" y="739" type="line"/>
      <point x="471" y="700" type="line"/>
      <point x="100" y="700" type="line"/>
      <point x="100" y="739" type="line"/>
      <point x="270" y="739" type="line"/>
      <point x="270" y="1444" type="line"/>
      <point x="245" y="1414"/>
      <point x="119" y="1348"/>
      <point x="72" y="1348" type="qcurve"/>
      <point x="72" y="1386" type="line"/>
      <point x="111" y="1386"/>
      <point x="210" y="1441"/>
      <point x="265" y="1490"/>
      <point x="270" y="1497" type="qcurve"/>
      <point x="311" y="1497" type="line"/>
      <point x="311" y="739" type="line"/>
    </contour>
    <contour>
      <point x="51" y="23" type="line"/>
      <point x="1194" y="1456" type="line"/>
      <point x="1227" y="1432" type="line"/>
      <point x="84" y="-2" type="line"/>
    </contour>
    <contour>
      <point x="1264" y="0" type="line"/>
      <point x="1264" y="225" type="line"/>
      <point x="786" y="225" type="line"/>
      <point x="786" y="260" type="line"/>
      <point x="1276" y="784" type="line"/>
      <point x="1305" y="784" type="line"/>
      <point x="1305" y="264" type="line"/>
      <point x="1417" y="264" type="line"/>
      <point x="1417" y="225" type="line"/>
      <point x="1305" y="225" type="line"/>
      <point x="1305" y="0" type="line"/>
    </contour>
    <contour>
      <point x="844" y="264" type="line"/>
      <point x="1264" y="264" type="line"/>
      <point x="1264" y="713" type="line"/>
    </contour>
  </outline>
</glyph>
<glyph name="onehalf" format="2">
  <advance width="1517"/>
  <unicode hex="00BD"/>
  <outline>
    <contour>
      <point x="471" y="739" type="line"/>
      <point x="471" y="700" type="line"/>
      <point x="100" y="700" type="line"/>
      <point x="100" y="739" type="line"/>
      <point x="270" y="739" type="line"/>
      <point x="270" y="1444" type="line"/>
      <point x="245" y="1414"/>
      <point x="119" y="1348"/>
      <point x="72" y="1348" type="qcurve"/>
      <point x="72" y="1386" type="line"/>
      <point x="111" y="1386"/>
      <point x="210" y="1441"/>
      <point x="265" y="1490"/>
      <point x="270" y="1497" type="qcurve"/>
      <point x="311" y="1497" type="line"/>
      <point x="311" y="739" type="line"/>
    </contour>
    <contour>
      <point x="51" y="23" type="line"/>
      <point x="1194" y="1456" type="line"/>
      <point x="1227" y="1432" type="line"/>
      <point x="84" y="-2" type="line"/>
    </contour>
    <contour>
      <point x="844" y="0" type="line"/>
      <point x="844" y="145"/>
      <point x="971" y="308"/>
      <point x="1096" y="354" type="qcurve" smooth="yes"/>
      <point x="1113" y="360"/>
      <point x="1187" y="385"/>
      <point x="1228" y="401"/>
      <point x="1291" y="428"/>
      <point x="1327" y="456"/>
      <point x="1365" y="495"/>
      <point x="1382" y="544"/>
      <point x="1382" y="573" type="qcurve" smooth="yes"/>
      <point x="1382" y="649"/>
      <point x="1263" y="756"/>
      <point x="1151" y="756" type="qcurve" smooth="yes"/>
      <point x="981" y="756"/>
      <point x="885" y="633" type="qcurve"/>
      <point x="854" y="657" type="line"/>
      <point x="858" y="663"/>
      <point x="879" y="688"/>
      <point x="932" y="731"/>
      <point x="997" y="768"/>
      <point x="1099" y="795"/>
      <point x="1155" y="795" type="qcurve" smooth="yes"/>
      <point x="1286" y="795"/>
      <point x="1425" y="666"/>
      <point x="1425" y="571" type="qcurve" smooth="yes"/>
      <point x="1425" y="541"/>
      <point x="1407" y="489"/>
      <point x="1383" y="450"/>
      <point x="1337" y="414"/>
      <point x="1302" y="392"/>
      <point x="1238" y="365"/>
      <point x="1206" y="354"/>
      <point x="1137" y="332"/>
      <point x="1126" y="328" type="qcurve" smooth="yes"/>
      <point x="1064" y="307"/>
      <point x="975" y="247"/>
      <point x="928" y="190"/>
      <point x="901" y="119"/>
      <point x="895" y="69"/>
      <point x="895" y="39" type="qcurve"/>
      <point x="1427" y="39" type="line"/>
      <point x="1427" y="0" type="line"/>
    </contour>
  </outline>
</glyph>
<glyph name="questiondown" format="2">
  <advance width="944"/>
  <unicode hex="00BF"/>
  <outline>
    <contour>
      <point x="586" y="1036" type="line"/>
      <point x="586" y="864" type="line"/>
      <point x="545" y="864" type="line"/>
      <point x="545" y="1036" type="line"/>
    </contour>
    <contour>
      <point x="586" y="670" type="line"/>
      <point x="586" y="575"/>
      <point x="561" y="440"/>
      <point x="508" y="356"/>
      <point x="453" y="309"/>
      <point x="410" y="287" type="qcurve" smooth="yes"/>
      <point x="392" y="278"/>
      <point x="329" y="247"/>
      <point x="288" y="227"/>
      <point x="230" y="193"/>
      <point x="193" y="161"/>
      <point x="151" y="112"/>
      <point x="127" y="58"/>
      <point x="111" y="-16"/>
      <point x="111" y="-59" type="qcurve" smooth="yes"/>
      <point x="111" y="-143"/>
      <point x="168" y="-275"/>
      <point x="265" y="-354"/>
      <point x="385" y="-395"/>
      <point x="451" y="-395" type="qcurve" smooth="yes"/>
      <point x="575" y="-395"/>
      <point x="790" y="-265"/>
      <point x="842" y="-156" type="qcurve"/>
      <point x="879" y="-172" type="line"/>
      <point x="824" y="-295"/>
      <point x="586" y="-436"/>
      <point x="453" y="-436" type="qcurve" smooth="yes"/>
      <point x="351" y="-436"/>
      <point x="180" y="-352"/>
      <point x="70" y="-174"/>
      <point x="70" y="-53" type="qcurve" smooth="yes"/>
      <point x="70" y="-8"/>
      <point x="87" y="71"/>
      <point x="112" y="128"/>
      <point x="157" y="182"/>
      <point x="196" y="217"/>
      <point x="259" y="256"/>
      <point x="303" y="279"/>
      <point x="373" y="315"/>
      <point x="393" y="326" type="qcurve" smooth="yes"/>
      <point x="423" y="342"/>
      <point x="463" y="371"/>
      <point x="505" y="424"/>
      <point x="529" y="492"/>
      <point x="545" y="599"/>
      <point x="545" y="670" type="qcurve"/>
    </contour>
  </outline>
</glyph>
<glyph name="Atilde" format="2">
  <advance width="1380"/>
  <unicode hex="00C3"/>
  <anchor x="0" y="0" name="Anchor-11"/>
  <anchor x="0" y="0" name="Anchor-10"/>
  <anchor x="690" y="1880" name="Anchor-9"/>
  <anchor x="1341" y="0" name="Anchor-8"/>
  <anchor x="711" y="0" name="Anchor-7"/>
  <outline>
    <contour>
      <point x="551" y="1821" type="qcurve" smooth="yes"/>
      <point x="521" y="1821"/>
      <point x="475" y="1794"/>
      <point x="455" y="1757"/>
      <point x="446" y="1729"/>
      <point x="446" y="1722" type="qcurve"/>
      <point x="406" y="1722" type="line"/>
      <point x="406" y="1729"/>
      <point x="411" y="1754"/>
      <point x="429" y="1797"/>
      <point x="459" y="1833"/>
      <point x="517" y="1860"/>
      <point x="555" y="1860" type="qcurve" smooth="yes"/>
      <point x="608" y="1860"/>
      <point x="759" y="1782"/>
      <point x="811" y="1782" type="qcurve" smooth="yes"/>
      <point x="843" y="1782"/>
      <point x="891" y="1801"/>
      <point x="914" y="1827"/>
      <point x="929" y="1858"/>
      <point x="932" y="1875"/>
      <point x="932" y="1880" type="qcurve"/>
      <point x="973" y="1880" type="line"/>
      <point x="973" y="1872"/>
      <point x="968" y="1846"/>
      <point x="947" y="1803"/>
      <point x="914" y="1769"/>
      <point x="849" y="1743"/>
      <point x="807" y="1743" type="qcurve" smooth="yes"/>
      <point x="756" y="1743"/>
      <point x="663" y="1782"/>
      <point x="585" y="1821"/>
    </contour>
    <contour>
      <point x="672" y="1454" type="line"/>
      <point x="709" y="1454" type="line"/>
      <point x="1341" y="0" type="line"/>
      <point x="1296" y="0" type="line"/>
      <point x="1069" y="520" type="line"/>
      <point x="309" y="520" type="line"/>
      <point x="82" y="0" type="line"/>
      <point x="37" y="0" type="line"/>
    </contour>
    <contour>
      <point x="1051" y="561" type="line"/>
      <point x="690" y="1395" type="line"/>
      <point x="326" y="561" type="line"/>
    </contour>
  </outline>
</glyph>
<glyph name="Adieresis" format="2">
  <advance width="1380"/>
  <unicode hex="00C4"/>
  <anchor x="0" y="0" name="Anchor-11"/>
  <anchor x="0" y="0" name="Anchor-10"/>
  <anchor x="690" y="1860" name="Anchor-9"/>
  <anchor x="1341" y="0" name="Anchor-8"/>
  <anchor x="711" y="0" name="Anchor-7"/>
  <outline>
    <contour>
      <point x="551" y="1722" type="line"/>
      <point x="551" y="1880" type="line"/>
      <point x="592" y="1880" type="line"/>
      <point x="592" y="1722" type="line"/>
    </contour>
    <contour>
      <point x="788" y="1722" type="line"/>
      <point x="788" y="1880" type="line"/>
      <point x="829" y="1880" type="line"/>
      <point x="829" y="1722" type="line"/>
    </contour>
    <contour>
      <point x="672" y="1454" type="line"/>
      <point x="709" y="1454" type="line"/>
      <point x="1341" y="0" type="line"/>
      <point x="1296" y="0" type="line"/>
      <point x="1069" y="520" type="line"/>
      <point x="309" y="520" type="line"/>
      <point x="82" y="0" type="line"/>
      <point x="37" y="0" type="line"/>
    </contour>
    <contour>
      <point x="1051" y="561" type="line"/>
      <point x="690" y="1395" type="line"/>
      <point x="326" y="561" type="line"/>
    </contour>
  </outline>
</glyph>
<glyph name="Aring" format="2">
  <advance width="1380"/>
  <unicode hex="00C5"/>
  <anchor x="0" y="0" name="Anchor-11"/>
  <anchor x="0" y="0" name="Anchor-10"/>
  <anchor x="686" y="1880" name="Anchor-9"/>
  <anchor x="1341" y="0" name="Anchor-8"/>
  <anchor x="711" y="0" name="Anchor-7"/>
  <outline>
    <contour>
      <point x="690" y="1933" type="qcurve" smooth="yes"/>
      <point x="755" y="1933"/>
      <point x="844" y="1844"/>
      <point x="844" y="1716"/>
      <point x="754" y="1626"/>
      <point x="626" y="1626"/>
      <point x="537" y="1715"/>
      <point x="537" y="1780" type="qcurve" smooth="yes"/>
      <point x="537" y="1844"/>
      <point x="626" y="1933"/>
    </contour>
    <contour>
      <point x="580" y="1780" type="qcurve" smooth="yes"/>
      <point x="580" y="1734"/>
      <point x="644" y="1669"/>
      <point x="690" y="1669" type="qcurve" smooth="yes"/>
      <point x="732" y="1669"/>
      <point x="801" y="1733"/>
      <point x="801" y="1780" type="qcurve" smooth="yes"/>
      <point x="801" y="1829"/>
      <point x="736" y="1890"/>
      <point x="644" y="1890"/>
      <point x="580" y="1829"/>
    </contour>
    <contour>
      <point x="672" y="1454" type="line"/>
      <point x="709" y="1454" type="line"/>
      <point x="1341" y="0" type="line"/>
      <point x="1296" y="0" type="line"/>
      <point x="1069" y="520" type="line"/>
      <point x="309" y="520" type="line"/>
      <point x="82" y="0" type="line"/>
      <point x="37" y="0" type="line"/>
    </contour>
    <contour>
      <point x="1051" y="561" type="line"/>
      <point x="690" y="1395" type="line"/>
      <point x="326" y="561" type="line"/>
    </contour>
  </outline>
</glyph>
<glyph name="AE" format="2">
  <advance width="1970"/>
  <unicode hex="00C6"/>
  <anchor x="0" y="0" name="Anchor-11"/>
  <anchor x="0" y="0" name="Anchor-10"/>
  <anchor x="1114" y="1448" name="Anchor-9"/>
  <anchor x="0" y="0" name="Anchor-8"/>
  <anchor x="0" y="0" name="Anchor-7"/>
  <outline>
    <contour>
      <point x="899" y="1454" type="line"/>
      <point x="1845" y="1454" type="line"/>
      <point x="1845" y="1413" type="line"/>
      <point x="950" y="1413" type="line"/>
      <point x="950" y="764" type="line"/>
      <point x="1735" y="764" type="line"/>
      <point x="1735" y="723" type="line"/>
      <point x="950" y="723" type="line"/>
      <point x="950" y="41" type="line"/>
      <point x="1864" y="41" type="line"/>
      <point x="1864" y="0" type="line"/>
      <point x="909" y="0" type="line"/>
      <point x="909" y="520" type="line"/>
      <point x="334" y="520" type="line"/>
      <point x="-8" y="0" type="line"/>
      <point x="-59" y="0" type="line"/>
    </contour>
    <contour>
      <point x="909" y="561" type="line"/>
      <point x="909" y="1389" type="line"/>
      <point x="358" y="561" type="line"/>
    </contour>
  </outline>
</glyph>
<glyph name="Eacute" format="2">
  <advance width="1263"/>
  <unicode hex="00C9"/>
  <anchor x="0" y="0" name="Anchor-11"/>
  <anchor x="0" y="0" name="Anchor-10"/>
  <anchor x="784" y="1880" name="Anchor-9"/>
  <anchor x="1157" y="0" name="Anchor-8"/>
  <anchor x="705" y="0" name="Anchor-7"/>
  <outline>
    <contour>
      <point x="717" y="1706" type="line"/>
      <point x="684" y="1731" type="line"/>
      <point x="815" y="1880" type="line"/>
      <point x="885" y="1880" type="line"/>
    </contour>
    <contour>
      <point x="1157" y="41" type="line"/>
      <point x="1157" y="0" type="line"/>
      <point x="203" y="0" type="line"/>
      <point x="203" y="1454" type="line"/>
      <point x="1139" y="1454" type="line"/>
      <point x="1139" y="1413" type="line"/>
      <point x="244" y="1413" type="line"/>
      <point x="244" y="764" type="line"/>
      <point x="1028" y="764" type="line"/>
      <point x="1028" y="723" type="line"/>
      <point x="244" y="723" type="line"/>
      <point x="244" y="41" type="line"/>
    </contour>
  </outline>
</glyph>
<glyph name="Ecircumflex" format="2">
  <advance width="1263"/>
  <unicode hex="00CA"/>
  <anchor x="0" y="0" name="Anchor-11"/>
  <anchor x="0" y="0" name="Anchor-10"/>
  <anchor x="705" y="1880" name="Anchor-9"/>
  <anchor x="1157" y="0" name="Anchor-8"/>
  <anchor x="705" y="0" name="Anchor-7"/>
  <outline>
    <contour>
      <point x="498" y="1729" type="line"/>
      <point x="688" y="1880" type="line"/>
      <point x="721" y="1880" type="line"/>
      <point x="911" y="1729" type="line"/>
      <point x="879" y="1704" type="line"/>
      <point x="705" y="1833" type="line"/>
      <point x="530" y="1704" type="line"/>
    </contour>
    <contour>
      <point x="1157" y="41" type="line"/>
      <point x="1157" y="0" type="line"/>
      <point x="203" y="0" type="line"/>
      <point x="203" y="1454" type="line"/>
      <point x="1139" y="1454" type="line"/>
      <point x="1139" y="1413" type="line"/>
      <point x="244" y="1413" type="line"/>
      <point x="244" y="764" type="line"/>
      <point x="1028" y="764" type="line"/>
      <point x="1028" y="723" type="line"/>
      <point x="244" y="723" type="line"/>
      <point x="244" y="41" type="line"/>
    </contour>
  </outline>
</glyph>
<glyph name="Igrave" format="2">
  <advance width="446"/>
  <unicode hex="00CC"/>
  <anchor x="0" y="0" name="Anchor-11"/>
  <anchor x="0" y="0" name="Anchor-10"/>
  <anchor x="184" y="1880" name="Anchor-9"/>
  <anchor x="244" y="0" name="Anchor-8"/>
  <anchor x="225" y="0" name="Anchor-7"/>
  <outline>
    <contour>
      <point x="84" y="1880" type="line"/>
      <point x="152" y="1880" type="line"/>
      <point x="285" y="1731" type="line"/>
      <point x="252" y="1706" type="line"/>
    </contour>
    <contour>
      <point x="203" y="0" type="line"/>
      <point x="203" y="1454" type="line"/>
      <point x="244" y="1454" type="line"/>
      <point x="244" y="0" type="line"/>
    </contour>
  </outline>
</glyph>
<glyph name="Iacute" format="2">
  <advance width="446"/>
  <unicode hex="00CD"/>
  <anchor x="0" y="0" name="Anchor-11"/>
  <anchor x="0" y="0" name="Anchor-10"/>
  <anchor x="303" y="1880" name="Anchor-9"/>
  <anchor x="244" y="0" name="Anchor-8"/>
  <anchor x="225" y="0" name="Anchor-7"/>
  <outline>
    <contour>
      <point x="236" y="1706" type="line"/>
      <point x="203" y="1731" type="line"/>
      <point x="334" y="1880" type="line"/>
      <point x="403" y="1880" type="line"/>
    </contour>
    <contour>
      <point x="203" y="0" type="line"/>
      <point x="203" y="1454" type="line"/>
      <point x="244" y="1454" type="line"/>
      <point x="244" y="0" type="line"/>
    </contour>
  </outline>
</glyph>
<glyph name="Icircumflex" format="2">
  <advance width="446"/>
  <unicode hex="00CE"/>
  <anchor x="0" y="0" name="Anchor-11"/>
  <anchor x="0" y="0" name="Anchor-10"/>
  <anchor x="223" y="1880" name="Anchor-9"/>
  <anchor x="244" y="0" name="Anchor-8"/>
  <anchor x="225" y="0" name="Anchor-7"/>
  <outline>
    <contour>
      <point x="16" y="1729" type="line"/>
      <point x="207" y="1880" type="line"/>
      <point x="240" y="1880" type="line"/>
      <point x="430" y="1729" type="line"/>
      <point x="397" y="1704" type="line"/>
      <point x="223" y="1833" type="line"/>
      <point x="49" y="1704" type="line"/>
    </contour>
    <contour>
      <point x="203" y="0" type="line"/>
      <point x="203" y="1454" type="line"/>
      <point x="244" y="1454" type="line"/>
      <point x="244" y="0" type="line"/>
    </contour>
  </outline>
</glyph>
<glyph name="Ntilde" format="2">
  <advance width="1589"/>
  <unicode hex="00D1"/>
  <anchor x="0" y="0" name="Anchor-11"/>
  <anchor x="0" y="0" name="Anchor-10"/>
  <anchor x="805" y="1880" name="Anchor-9"/>
  <anchor x="0" y="0" name="Anchor-8"/>
  <anchor x="807" y="0" name="Anchor-7"/>
  <outline>
    <contour>
      <point x="666" y="1821" type="qcurve" smooth="yes"/>
      <point x="636" y="1821"/>
      <point x="590" y="1794"/>
      <point x="570" y="1757"/>
      <point x="561" y="1729"/>
      <point x="561" y="1722" type="qcurve"/>
      <point x="520" y="1722" type="line"/>
      <point x="520" y="1729"/>
      <point x="525" y="1754"/>
      <point x="544" y="1797"/>
      <point x="574" y="1833"/>
      <point x="632" y="1860"/>
      <point x="670" y="1860" type="qcurve" smooth="yes"/>
      <point x="723" y="1860"/>
      <point x="874" y="1782"/>
      <point x="926" y="1782" type="qcurve" smooth="yes"/>
      <point x="958" y="1782"/>
      <point x="1006" y="1801"/>
      <point x="1029" y="1827"/>
      <point x="1044" y="1858"/>
      <point x="1047" y="1875"/>
      <point x="1047" y="1880" type="qcurve"/>
      <point x="1087" y="1880" type="line"/>
      <point x="1087" y="1872"/>
      <point x="1082" y="1846"/>
      <point x="1062" y="1803"/>
      <point x="1029" y="1769"/>
      <point x="964" y="1743"/>
      <point x="922" y="1743" type="qcurve" smooth="yes"/>
      <point x="871" y="1743"/>
      <point x="778" y="1782"/>
      <point x="700" y="1821"/>
    </contour>
    <contour>
      <point x="244" y="1374" type="line"/>
      <point x="244" y="0" type="line"/>
      <point x="203" y="0" type="line"/>
      <point x="203" y="1454" type="line"/>
      <point x="233" y="1454" type="line"/>
      <point x="1346" y="59" type="line"/>
      <point x="1346" y="1454" type="line"/>
      <point x="1386" y="1454" type="line"/>
      <point x="1386" y="0" type="line"/>
      <point x="1339" y="0" type="line"/>
    </contour>
  </outline>
</glyph>
<glyph name="multiply" format="2">
  <advance width="901"/>
  <unicode hex="00D7"/>
  <outline>
    <contour>
      <point x="758" y="276" type="line"/>
      <point x="727" y="248" type="line"/>
      <point x="451" y="524" type="line"/>
      <point x="174" y="248" type="line"/>
      <point x="145" y="279" type="line"/>
      <point x="420" y="553" type="line"/>
      <point x="143" y="831" type="line"/>
      <point x="174" y="860" type="line"/>
      <point x="451" y="584" type="line"/>
      <point x="729" y="862" type="line"/>
      <point x="758" y="831" type="line"/>
      <point x="479" y="553" type="line"/>
    </contour>
  </outline>
</glyph>
<glyph name="Oslash" format="2">
  <advance width="1550"/>
  <unicode hex="00D8"/>
  <anchor x="1042" y="1376" name="Anchor-11"/>
  <anchor x="776" y="727" name="Anchor-10"/>
  <anchor x="776" y="1448" name="Anchor-9"/>
  <anchor x="877" y="0" name="Anchor-8"/>
  <anchor x="776" y="0" name="Anchor-7"/>
  <outline>
    <contour>
      <point x="1180" y="1317" type="line"/>
      <point x="1307" y="1210"/>
      <point x="1452" y="894"/>
      <point x="1452" y="727" type="qcurve" smooth="yes"/>
      <point x="1452" y="533"/>
      <point x="1275" y="195"/>
      <point x="962" y="-10"/>
      <point x="776" y="-10" type="qcurve" smooth="yes"/>
      <point x="573" y="-10"/>
      <point x="406" y="111" type="qcurve"/>
      <point x="334" y="0" type="line"/>
      <point x="283" y="0" type="line"/>
      <point x="371" y="137" type="line"/>
      <point x="243" y="243"/>
      <point x="98" y="557"/>
      <point x="98" y="727" type="qcurve" smooth="yes"/>
      <point x="98" y="919"/>
      <point x="275" y="1257"/>
      <point x="589" y="1464"/>
      <point x="776" y="1464" type="qcurve" smooth="yes"/>
      <point x="981" y="1464"/>
      <point x="1143" y="1343" type="qcurve"/>
      <point x="1214" y="1454" type="line"/>
      <point x="1268" y="1454" type="line"/>
    </contour>
    <contour>
      <point x="139" y="727" type="qcurve" smooth="yes"/>
      <point x="139" y="565"/>
      <point x="274" y="271"/>
      <point x="393" y="172" type="qcurve"/>
      <point x="1122" y="1309" type="line"/>
      <point x="967" y="1423"/>
      <point x="776" y="1423" type="qcurve" smooth="yes"/>
      <point x="638" y="1423"/>
      <point x="396" y="1302"/>
      <point x="233" y="1106"/>
      <point x="139" y="856"/>
    </contour>
    <contour>
      <point x="776" y="31" type="qcurve" smooth="yes"/>
      <point x="886" y="31"/>
      <point x="1088" y="110"/>
      <point x="1240" y="246"/>
      <point x="1353" y="422"/>
      <point x="1411" y="625"/>
      <point x="1411" y="727" type="qcurve" smooth="yes"/>
      <point x="1411" y="888"/>
      <point x="1275" y="1183"/>
      <point x="1157" y="1282" type="qcurve"/>
      <point x="426" y="145" type="line"/>
      <point x="584" y="31"/>
    </contour>
  </outline>
</glyph>
<glyph name="Uacute" format="2">
  <advance width="1548"/>
  <unicode hex="00DA"/>
  <anchor x="1485" y="1376" name="Anchor-11"/>
  <anchor x="0" y="0" name="Anchor-10"/>
  <anchor x="856" y="1880" name="Anchor-9"/>
  <anchor x="893" y="0" name="Anchor-8"/>
  <anchor x="776" y="0" name="Anchor-7"/>
  <outline>
    <contour>
      <point x="788" y="1706" type="line"/>
      <point x="756" y="1731" type="line"/>
      <point x="887" y="1880" type="line"/>
      <point x="956" y="1880" type="line"/>
    </contour>
    <contour>
      <point x="776" y="-10" type="qcurve" smooth="yes"/>
      <point x="642" y="-10"/>
      <point x="433" y="74"/>
      <point x="301" y="213"/>
      <point x="214" y="408"/>
      <point x="180" y="612"/>
      <point x="180" y="727" type="qcurve" smooth="yes"/>
      <point x="180" y="1454" type="line"/>
      <point x="221" y="1454" type="line"/>
      <point x="221" y="727" type="line" smooth="yes"/>
      <point x="221" y="616"/>
      <point x="253" y="423"/>
      <point x="332" y="240"/>
      <point x="454" y="110"/>
      <point x="649" y="31"/>
      <point x="774" y="31" type="qcurve" smooth="yes"/>
      <point x="901" y="31"/>
      <point x="1098" y="112"/>
      <point x="1220" y="243"/>
      <point x="1299" y="428"/>
      <point x="1329" y="619"/>
      <point x="1329" y="727" type="qcurve" smooth="yes"/>
      <point x="1329" y="1454" type="line"/>
      <point x="1370" y="1454" type="line"/>
      <point x="1370" y="727" type="line" smooth="yes"/>
      <point x="1370" y="607"/>
      <point x="1333" y="397"/>
      <point x="1245" y="206"/>
      <point x="1111" y="70"/>
      <point x="906" y="-10"/>
    </contour>
  </outline>
</glyph>
<glyph name="Thorn" format="2">
  <advance width="1226"/>
  <unicode hex="00DE"/>
  <outline>
    <contour>
      <point x="1163" y="707" type="qcurve" smooth="yes"/>
      <point x="1163" y="593"/>
      <point x="1066" y="391"/>
      <point x="882" y="264"/>
      <point x="768" y="264" type="qcurve" smooth="yes"/>
      <point x="244" y="264" type="line"/>
      <point x="244" y="0" type="line"/>
      <point x="203" y="0" type="line"/>
      <point x="203" y="1454" type="line"/>
      <point x="244" y="1454" type="line"/>
      <point x="244" y="1147" type="line"/>
      <point x="754" y="1147" type="line" smooth="yes"/>
      <point x="869" y="1147"/>
      <point x="1060" y="1017"/>
      <point x="1163" y="816"/>
    </contour>
    <contour>
      <point x="1122" y="707" type="qcurve" smooth="yes"/>
      <point x="1122" y="865"/>
      <point x="905" y="1106"/>
      <point x="754" y="1106" type="qcurve" smooth="yes"/>
      <point x="244" y="1106" type="line"/>
      <point x="244" y="305" type="line"/>
      <point x="768" y="305" type="line" smooth="yes"/>
      <point x="874" y="305"/>
      <point x="1039" y="425"/>
      <point x="1122" y="606"/>
    </contour>
  </outline>
</glyph>
<glyph name="germandbls" format="2">
  <advance width="1118"/>
  <unicode hex="00DF"/>
  <outline>
    <contour>
      <point x="471" y="27" type="line"/>
      <point x="717" y="32"/>
      <point x="983" y="233"/>
      <point x="983" y="414" type="qcurve" smooth="yes"/>
      <point x="983" y="589"/>
      <point x="751" y="805"/>
      <point x="563" y="805" type="qcurve" smooth="yes"/>
      <point x="528" y="805" type="line"/>
      <point x="528" y="846" type="line"/>
      <point x="561" y="846" type="line" smooth="yes"/>
      <point x="696" y="846"/>
      <point x="877" y="1009"/>
      <point x="877" y="1130" type="qcurve" smooth="yes"/>
      <point x="877" y="1254"/>
      <point x="687" y="1421"/>
      <point x="547" y="1421" type="qcurve" smooth="yes"/>
      <point x="395" y="1421"/>
      <point x="213" y="1214"/>
      <point x="213" y="1042" type="qcurve" smooth="yes"/>
      <point x="213" y="0" type="line"/>
      <point x="172" y="0" type="line"/>
      <point x="172" y="1042" type="line" smooth="yes"/>
      <point x="172" y="1230"/>
      <point x="381" y="1462"/>
      <point x="549" y="1462" type="qcurve" smooth="yes"/>
      <point x="706" y="1462"/>
      <point x="918" y="1277"/>
      <point x="918" y="1141" type="qcurve" smooth="yes"/>
      <point x="918" y="1029"/>
      <point x="775" y="847"/>
      <point x="672" y="827" type="qcurve"/>
      <point x="841" y="792"/>
      <point x="1024" y="577"/>
      <point x="1024" y="416" type="qcurve" smooth="yes"/>
      <point x="1024" y="218"/>
      <point x="739" y="-3"/>
      <point x="471" y="-12" type="qcurve"/>
    </contour>
  </outline>
</glyph>
<glyph name="atilde" format="2">
  <advance width="1073"/>
  <unicode hex="00E3"/>
  <anchor x="0" y="0" name="Anchor-11"/>
  <anchor x="0" y="0" name="Anchor-10"/>
  <anchor x="526" y="1495" name="Anchor-9"/>
  <anchor x="948" y="0" name="Anchor-8"/>
  <anchor x="551" y="0" name="Anchor-7"/>
  <outline>
    <contour>
      <point x="387" y="1436" type="qcurve" smooth="yes"/>
      <point x="357" y="1436"/>
      <point x="312" y="1409"/>
      <point x="292" y="1372"/>
      <point x="283" y="1344"/>
      <point x="283" y="1337" type="qcurve"/>
      <point x="242" y="1337" type="line"/>
      <point x="242" y="1344"/>
      <point x="247" y="1369"/>
      <point x="265" y="1412"/>
      <point x="295" y="1448"/>
      <point x="353" y="1475"/>
      <point x="391" y="1475" type="qcurve" smooth="yes"/>
      <point x="444" y="1475"/>
      <point x="595" y="1397"/>
      <point x="647" y="1397" type="qcurve" smooth="yes"/>
      <point x="679" y="1397"/>
      <point x="727" y="1416"/>
      <point x="750" y="1442"/>
      <point x="765" y="1473"/>
      <point x="768" y="1490"/>
      <point x="768" y="1495" type="qcurve"/>
      <point x="809" y="1495" type="line"/>
      <point x="809" y="1487"/>
      <point x="804" y="1461"/>
      <point x="783" y="1418"/>
      <point x="750" y="1384"/>
      <point x="685" y="1358"/>
      <point x="643" y="1358" type="qcurve" smooth="yes"/>
      <point x="592" y="1358"/>
      <point x="499" y="1397"/>
      <point x="421" y="1436"/>
    </contour>
    <contour>
      <point x="80" y="305" type="qcurve" smooth="yes"/>
      <point x="80" y="439"/>
      <point x="325" y="608"/>
      <point x="518" y="608" type="qcurve" smooth="yes"/>
      <point x="715" y="608"/>
      <point x="874" y="549" type="qcurve"/>
      <point x="874" y="670" type="line" smooth="yes"/>
      <point x="874" y="836"/>
      <point x="683" y="1038"/>
      <point x="526" y="1038" type="qcurve" smooth="yes"/>
      <point x="368" y="1038"/>
      <point x="182" y="907" type="qcurve"/>
      <point x="158" y="940" type="line"/>
      <point x="362" y="1079"/>
      <point x="526" y="1079" type="qcurve" smooth="yes"/>
      <point x="704" y="1079"/>
      <point x="915" y="858"/>
      <point x="915" y="670" type="qcurve" smooth="yes"/>
      <point x="915" y="82" type="line" smooth="yes"/>
      <point x="915" y="41"/>
      <point x="948" y="41" type="qcurve"/>
      <point x="948" y="0" type="line"/>
      <point x="926" y="0"/>
      <point x="920" y="4" type="qcurve" smooth="yes"/>
      <point x="900" y="11"/>
      <point x="874" y="56"/>
      <point x="874" y="82" type="qcurve" smooth="yes"/>
      <point x="874" y="180" type="line"/>
      <point x="801" y="85"/>
      <point x="563" y="-20"/>
      <point x="424" y="-20" type="qcurve" smooth="yes"/>
      <point x="279" y="-20"/>
      <point x="80" y="168"/>
    </contour>
    <contour>
      <point x="844" y="209" type="qcurve" smooth="yes"/>
      <point x="874" y="253"/>
      <point x="874" y="293" type="qcurve" smooth="yes"/>
      <point x="874" y="504" type="line"/>
      <point x="711" y="567"/>
      <point x="518" y="567" type="qcurve" smooth="yes"/>
      <point x="339" y="567"/>
      <point x="121" y="423"/>
      <point x="121" y="305" type="qcurve" smooth="yes"/>
      <point x="121" y="185"/>
      <point x="296" y="20"/>
      <point x="424" y="20" type="qcurve" smooth="yes"/>
      <point x="560" y="20"/>
      <point x="788" y="123"/>
    </contour>
  </outline>
</glyph>
<glyph name="ae" format="2">
  <advance width="1900"/>
  <unicode hex="00E6"/>
  <anchor x="0" y="0" name="Anchor-11"/>
  <anchor x="0" y="0" name="Anchor-10"/>
  <anchor x="893" y="1063" name="Anchor-9"/>
  <anchor x="0" y="0" name="Anchor-8"/>
  <anchor x="0" y="0" name="Anchor-7"/>
  <outline>
    <contour>
      <point x="80" y="305" type="qcurve" smooth="yes"/>
      <point x="80" y="439"/>
      <point x="325" y="608"/>
      <point x="518" y="608" type="qcurve" smooth="yes"/>
      <point x="667" y="608"/>
      <point x="815" y="567" type="qcurve"/>
      <point x="821" y="674"/>
      <point x="862" y="770" type="qcurve"/>
      <point x="836" y="894"/>
      <point x="656" y="1038"/>
      <point x="526" y="1038" type="qcurve" smooth="yes"/>
      <point x="368" y="1038"/>
      <point x="182" y="907" type="qcurve"/>
      <point x="158" y="940" type="line"/>
      <point x="362" y="1079"/>
      <point x="526" y="1079" type="qcurve" smooth="yes"/>
      <point x="662" y="1079"/>
      <point x="853" y="946"/>
      <point x="891" y="825" type="qcurve"/>
      <point x="958" y="941"/>
      <point x="1184" y="1079"/>
      <point x="1317" y="1079" type="qcurve" smooth="yes"/>
      <point x="1456" y="1079"/>
      <point x="1691" y="933"/>
      <point x="1828" y="680"/>
      <point x="1829" y="530" type="qcurve" smooth="yes"/>
      <point x="1829" y="508" type="line"/>
      <point x="856" y="508" type="line"/>
      <point x="866" y="373"/>
      <point x="997" y="149"/>
      <point x="1207" y="20"/>
      <point x="1329" y="20" type="qcurve" smooth="yes"/>
      <point x="1452" y="20"/>
      <point x="1666" y="146"/>
      <point x="1710" y="244" type="qcurve"/>
      <point x="1749" y="233" type="line"/>
      <point x="1706" y="124"/>
      <point x="1465" y="-20"/>
      <point x="1327" y="-20" type="qcurve" smooth="yes"/>
      <point x="1197" y="-20"/>
      <point x="973" y="113"/>
      <point x="903" y="227" type="qcurve"/>
      <point x="872" y="164"/>
      <point x="762" y="66"/>
      <point x="630" y="9"/>
      <point x="492" y="-20"/>
      <point x="424" y="-20" type="qcurve" smooth="yes"/>
      <point x="279" y="-20"/>
      <point x="80" y="168"/>
    </contour>
    <contour>
      <point x="1786" y="549" type="line"/>
      <point x="1773" y="762"/>
      <point x="1508" y="1038"/>
      <point x="1319" y="1038" type="qcurve" smooth="yes"/>
      <point x="1195" y="1038"/>
      <point x="988" y="912"/>
      <point x="863" y="688"/>
      <point x="856" y="549" type="qcurve"/>
    </contour>
    <contour>
      <point x="844" y="209" type="qcurve" smooth="yes"/>
      <point x="868" y="246"/>
      <point x="874" y="281" type="qcurve"/>
      <point x="818" y="393"/>
      <point x="815" y="524" type="qcurve"/>
      <point x="676" y="567"/>
      <point x="518" y="567" type="qcurve" smooth="yes"/>
      <point x="339" y="567"/>
      <point x="121" y="423"/>
      <point x="121" y="305" type="qcurve" smooth="yes"/>
      <point x="121" y="185"/>
      <point x="296" y="20"/>
      <point x="424" y="20" type="qcurve" smooth="yes"/>
      <point x="560" y="20"/>
      <point x="788" y="123"/>
    </contour>
  </outline>
</glyph>
<glyph name="igrave" format="2">
  <advance width="385"/>
  <unicode hex="00EC"/>
  <anchor x="0" y="0" name="Anchor-11"/>
  <anchor x="0" y="0" name="Anchor-10"/>
  <anchor x="154" y="1495" name="Anchor-9"/>
  <anchor x="0" y="0" name="Anchor-8"/>
  <anchor x="0" y="0" name="Anchor-7"/>
  <outline>
    <contour>
      <point x="53" y="1495" type="line"/>
      <point x="121" y="1495" type="line"/>
      <point x="254" y="1346" type="line"/>
      <point x="221" y="1321" type="line"/>
    </contour>
    <contour>
      <point x="172" y="0" type="line"/>
      <point x="172" y="1063" type="line"/>
      <point x="213" y="1063" type="line"/>
      <point x="213" y="0" type="line"/>
    </contour>
  </outline>
</glyph>
<glyph name="iacute" format="2">
  <advance width="385"/>
  <unicode hex="00ED"/>
  <anchor x="0" y="0" name="Anchor-11"/>
  <anchor x="0" y="0" name="Anchor-10"/>
  <anchor x="272" y="1495" name="Anchor-9"/>
  <anchor x="0" y="0" name="Anchor-8"/>
  <anchor x="0" y="0" name="Anchor-7"/>
  <outline>
    <contour>
      <point x="205" y="1321" type="line"/>
      <point x="172" y="1346" type="line"/>
      <point x="303" y="1495" type="line"/>
      <point x="373" y="1495" type="line"/>
    </contour>
    <contour>
      <point x="172" y="0" type="line"/>
      <point x="172" y="1063" type="line"/>
      <point x="213" y="1063" type="line"/>
      <point x="213" y="0" type="line"/>
    </contour>
  </outline>
</glyph>
<glyph name="icircumflex" format="2">
  <advance width="385"/>
  <unicode hex="00EE"/>
  <anchor x="0" y="0" name="Anchor-11"/>
  <anchor x="0" y="0" name="Anchor-10"/>
  <anchor x="193" y="1495" name="Anchor-9"/>
  <anchor x="0" y="0" name="Anchor-8"/>
  <anchor x="0" y="0" name="Anchor-7"/>
  <outline>
    <contour>
      <point x="-14" y="1343" type="line"/>
      <point x="176" y="1495" type="line"/>
      <point x="209" y="1495" type="line"/>
      <point x="399" y="1343" type="line"/>
      <point x="367" y="1319" type="line"/>
      <point x="193" y="1448" type="line"/>
      <point x="18" y="1319" type="line"/>
    </contour>
    <contour>
      <point x="172" y="0" type="line"/>
      <point x="172" y="1063" type="line"/>
      <point x="213" y="1063" type="line"/>
      <point x="213" y="0" type="line"/>
    </contour>
  </outline>
</glyph>
<glyph name="idieresis" format="2">
  <advance width="385"/>
  <unicode hex="00EF"/>
  <anchor x="0" y="0" name="Anchor-11"/>
  <anchor x="0" y="0" name="Anchor-10"/>
  <anchor x="193" y="1475" name="Anchor-9"/>
  <anchor x="0" y="0" name="Anchor-8"/>
  <anchor x="0" y="0" name="Anchor-7"/>
  <outline>
    <contour>
      <point x="53" y="1337" type="line"/>
      <point x="53" y="1495" type="line"/>
      <point x="94" y="1495" type="line"/>
      <point x="94" y="1337" type="line"/>
    </contour>
    <contour>
      <point x="291" y="1337" type="line"/>
      <point x="291" y="1495" type="line"/>
      <point x="332" y="1495" type="line"/>
      <point x="332" y="1337" type="line"/>
    </contour>
    <contour>
      <point x="172" y="0" type="line"/>
      <point x="172" y="1063" type="line"/>
      <point x="213" y="1063" type="line"/>
      <point x="213" y="0" type="line"/>
    </contour>
  </outline>
</glyph>
<glyph name="eth" format="2">
  <advance width="1214"/>
  <unicode hex="00F0"/>
  <outline>
    <contour>
      <point x="774" y="1307" type="line"/>
      <point x="860" y="1232"/>
      <point x="983" y="1071"/>
      <point x="1055" y="923"/>
      <point x="1097" y="749"/>
      <point x="1110" y="599"/>
      <point x="1110" y="504" type="qcurve" smooth="yes"/>
      <point x="1110" y="365"/>
      <point x="975" y="123"/>
      <point x="741" y="-20"/>
      <point x="604" y="-20" type="qcurve" smooth="yes"/>
      <point x="466" y="-20"/>
      <point x="233" y="115"/>
      <point x="98" y="343"/>
      <point x="98" y="475" type="qcurve" smooth="yes"/>
      <point x="98" y="608"/>
      <point x="236" y="838"/>
      <point x="469" y="973"/>
      <point x="604" y="973" type="qcurve" smooth="yes"/>
      <point x="762" y="973"/>
      <point x="1014" y="808"/>
      <point x="1069" y="676" type="qcurve"/>
      <point x="1061" y="756"/>
      <point x="1025" y="897"/>
      <point x="954" y="1054"/>
      <point x="831" y="1212"/>
      <point x="745" y="1288" type="qcurve"/>
      <point x="492" y="1120" type="line"/>
      <point x="471" y="1149" type="line"/>
      <point x="719" y="1311" type="line"/>
      <point x="599" y="1410"/>
      <point x="451" y="1495" type="qcurve"/>
      <point x="510" y="1495" type="line"/>
      <point x="636" y="1420"/>
      <point x="748" y="1329" type="qcurve"/>
      <point x="944" y="1460" type="line"/>
      <point x="965" y="1432" type="line"/>
    </contour>
    <contour>
      <point x="727" y="20"/>
      <point x="943" y="153"/>
      <point x="1069" y="377"/>
      <point x="1069" y="506" type="qcurve" smooth="yes"/>
      <point x="1069" y="679"/>
      <point x="793" y="932"/>
      <point x="415" y="932"/>
      <point x="139" y="658"/>
      <point x="139" y="471" type="qcurve" smooth="yes"/>
      <point x="139" y="350"/>
      <point x="264" y="142"/>
      <point x="477" y="20"/>
    </contour>
  </outline>
</glyph>
<glyph name="ntilde" format="2">
  <advance width="1157"/>
  <unicode hex="00F1"/>
  <anchor x="0" y="0" name="Anchor-11"/>
  <anchor x="0" y="0" name="Anchor-10"/>
  <anchor x="573" y="1495" name="Anchor-9"/>
  <anchor x="0" y="0" name="Anchor-8"/>
  <anchor x="573" y="0" name="Anchor-7"/>
  <outline>
    <contour>
      <point x="434" y="1436" type="qcurve" smooth="yes"/>
      <point x="404" y="1436"/>
      <point x="359" y="1409"/>
      <point x="339" y="1372"/>
      <point x="330" y="1344"/>
      <point x="330" y="1337" type="qcurve"/>
      <point x="289" y="1337" type="line"/>
      <point x="289" y="1344"/>
      <point x="294" y="1369"/>
      <point x="312" y="1412"/>
      <point x="342" y="1448"/>
      <point x="400" y="1475"/>
      <point x="438" y="1475" type="qcurve" smooth="yes"/>
      <point x="491" y="1475"/>
      <point x="642" y="1397"/>
      <point x="694" y="1397" type="qcurve" smooth="yes"/>
      <point x="726" y="1397"/>
      <point x="774" y="1416"/>
      <point x="797" y="1442"/>
      <point x="812" y="1473"/>
      <point x="815" y="1490"/>
      <point x="815" y="1495" type="qcurve"/>
      <point x="856" y="1495" type="line"/>
      <point x="856" y="1487"/>
      <point x="851" y="1461"/>
      <point x="830" y="1418"/>
      <point x="797" y="1384"/>
      <point x="732" y="1358"/>
      <point x="690" y="1358" type="qcurve" smooth="yes"/>
      <point x="639" y="1358"/>
      <point x="546" y="1397"/>
      <point x="468" y="1436"/>
    </contour>
    <contour>
      <point x="997" y="0" type="line"/>
      <point x="956" y="0" type="line"/>
      <point x="956" y="592" type="line" smooth="yes"/>
      <point x="956" y="824"/>
      <point x="826" y="1038"/>
      <point x="684" y="1038" type="qcurve" smooth="yes"/>
      <point x="529" y="1038"/>
      <point x="257" y="828"/>
      <point x="213" y="672" type="qcurve"/>
      <point x="213" y="0" type="line"/>
      <point x="172" y="0" type="line"/>
      <point x="172" y="1063" type="line"/>
      <point x="213" y="1063" type="line"/>
      <point x="213" y="788" type="line"/>
      <point x="279" y="917"/>
      <point x="540" y="1079"/>
      <point x="682" y="1079" type="qcurve" smooth="yes"/>
      <point x="845" y="1079"/>
      <point x="997" y="843"/>
      <point x="997" y="592" type="qcurve" smooth="yes"/>
    </contour>
  </outline>
</glyph>
<glyph name="divide" format="2">
  <advance width="1118"/>
  <unicode hex="00F7"/>
  <outline>
    <contour>
      <point x="539" y="788" type="line"/>
      <point x="539" y="920" type="line"/>
      <point x="580" y="920" type="line"/>
      <point x="580" y="788" type="line"/>
    </contour>
    <contour>
      <point x="147" y="535" type="line"/>
      <point x="147" y="575" type="line"/>
      <point x="973" y="575" type="line"/>
      <point x="973" y="535" type="line"/>
    </contour>
    <contour>
      <point x="539" y="188" type="line"/>
      <point x="539" y="319" type="line"/>
      <point x="580" y="319" type="line"/>
      <point x="580" y="188" type="line"/>
    </contour>
  </outline>
</glyph>
<glyph name="oslash" format="2">
  <advance width="1200"/>
  <unicode hex="00F8"/>
  <outline>
    <contour>
      <point x="899" y="971" type="line"/>
      <point x="994" y="893"/>
      <point x="1106" y="659"/>
      <point x="1106" y="528" type="qcurve" smooth="yes"/>
      <point x="1106" y="419"/>
      <point x="1026" y="216"/>
      <point x="890" y="68"/>
      <point x="703" y="-20"/>
      <point x="600" y="-20" type="qcurve" smooth="yes"/>
      <point x="458" y="-20"/>
      <point x="340" y="59" type="qcurve"/>
      <point x="303" y="0" type="line"/>
      <point x="252" y="0" type="line"/>
      <point x="303" y="84" type="line"/>
      <point x="206" y="162"/>
      <point x="94" y="395"/>
      <point x="94" y="528" type="qcurve" smooth="yes"/>
      <point x="94" y="675"/>
      <point x="232" y="929"/>
      <point x="465" y="1079"/>
      <point x="600" y="1079" type="qcurve" smooth="yes"/>
      <point x="737" y="1079"/>
      <point x="862" y="997" type="qcurve"/>
      <point x="901" y="1063" type="line"/>
      <point x="954" y="1063" type="line"/>
    </contour>
    <contour>
      <point x="135" y="524" type="qcurve" smooth="yes"/>
      <point x="135" y="403"/>
      <point x="237" y="190"/>
      <point x="324" y="119" type="qcurve"/>
      <point x="840" y="963" type="line"/>
      <point x="728" y="1038"/>
      <point x="600" y="1038" type="qcurve" smooth="yes"/>
      <point x="476" y="1038"/>
      <point x="261" y="898"/>
      <point x="135" y="661"/>
    </contour>
    <contour>
      <point x="598" y="20" type="qcurve" smooth="yes"/>
      <point x="723" y="20"/>
      <point x="938" y="159"/>
      <point x="1065" y="394"/>
      <point x="1065" y="530" type="qcurve" smooth="yes"/>
      <point x="1065" y="650"/>
      <point x="964" y="865"/>
      <point x="877" y="936" type="qcurve"/>
      <point x="360" y="94" type="line"/>
      <point x="470" y="20"/>
    </contour>
  </outline>
</glyph>
<glyph name="thorn" format="2">
  <advance width="1234"/>
  <unicode hex="00FE"/>
  <outline>
    <contour>
      <point x="629" y="-20" type="qcurve" smooth="yes"/>
      <point x="506" y="-20"/>
      <point x="278" y="117"/>
      <point x="213" y="221" type="qcurve"/>
      <point x="213" y="-436" type="line"/>
      <point x="172" y="-436" type="line"/>
      <point x="172" y="1454" type="line"/>
      <point x="213" y="1454" type="line"/>
      <point x="213" y="815" type="line"/>
      <point x="400" y="1079"/>
      <point x="647" y="1079" type="qcurve" smooth="yes"/>
      <point x="759" y="1079"/>
      <point x="950" y="981"/>
      <point x="1073" y="822"/>
      <point x="1141" y="627"/>
      <point x="1141" y="528" type="qcurve" smooth="yes"/>
      <point x="1137" y="384"/>
      <point x="1004" y="133"/>
      <point x="769" y="-20"/>
    </contour>
    <contour>
      <point x="647" y="1038" type="qcurve" smooth="yes"/>
      <point x="504" y="1038"/>
      <point x="279" y="862"/>
      <point x="213" y="729" type="qcurve"/>
      <point x="213" y="346" type="line" smooth="yes"/>
      <point x="213" y="284"/>
      <point x="296" y="161"/>
      <point x="421" y="74"/>
      <point x="567" y="20"/>
      <point x="629" y="20" type="qcurve" smooth="yes"/>
      <point x="729" y="20"/>
      <point x="907" y="108"/>
      <point x="1029" y="251"/>
      <point x="1100" y="434"/>
      <point x="1100" y="528" type="qcurve" smooth="yes"/>
      <point x="1100" y="660"/>
      <point x="987" y="892"/>
      <point x="777" y="1038"/>
    </contour>
  </outline>
</glyph>
<glyph name="Aogonek" format="2">
  <advance width="1380"/>
  <unicode hex="0104"/>
  <anchor x="0" y="0" name="Anchor-11"/>
  <anchor x="0" y="0" name="Anchor-10"/>
  <anchor x="690" y="1448" name="Anchor-9"/>
  <anchor x="1341" y="0" name="Anchor-8"/>
  <anchor x="711" y="0" name="Anchor-7"/>
  <outline>
    <contour>
      <point x="1186" y="-199" type="qcurve" smooth="yes"/>
      <point x="1186" y="-237"/>
      <point x="1250" y="-282"/>
      <point x="1333" y="-301" type="qcurve"/>
      <point x="1309" y="-336" type="line"/>
      <point x="1220" y="-319"/>
      <point x="1143" y="-256"/>
      <point x="1143" y="-205" type="qcurve" smooth="yes"/>
      <point x="1143" y="-155"/>
      <point x="1216" y="-53"/>
      <point x="1292" y="10" type="qcurve"/>
      <point x="1069" y="520" type="line"/>
      <point x="309" y="520" type="line"/>
      <point x="82" y="0" type="line"/>
      <point x="37" y="0" type="line"/>
      <point x="672" y="1454" type="line"/>
      <point x="709" y="1454" type="line"/>
      <point x="1341" y="0" type="line"/>
      <point x="1258" y="-65"/>
      <point x="1186" y="-156"/>
    </contour>
    <contour>
      <point x="326" y="561" type="line"/>
      <point x="1051" y="561" type="line"/>
      <point x="690" y="1395" type="line"/>
    </contour>
  </outline>
</glyph>
<glyph name="aogonek" format="2">
  <advance width="1073"/>
  <unicode hex="0105"/>
  <anchor x="0" y="0" name="Anchor-11"/>
  <anchor x="0" y="0" name="Anchor-10"/>
  <anchor x="526" y="1063" name="Anchor-9"/>
  <anchor x="948" y="0" name="Anchor-8"/>
  <anchor x="551" y="0" name="Anchor-7"/>
  <outline>
    <contour>
      <point x="948" y="0" type="line"/>
      <point x="865" y="-65"/>
      <point x="793" y="-156"/>
      <point x="793" y="-199" type="qcurve" smooth="yes"/>
      <point x="793" y="-237"/>
      <point x="857" y="-282"/>
      <point x="940" y="-301" type="qcurve"/>
      <point x="915" y="-336" type="line"/>
      <point x="826" y="-319"/>
      <point x="750" y="-256"/>
      <point x="750" y="-205" type="qcurve" smooth="yes"/>
      <point x="750" y="-155"/>
      <point x="825" y="-51"/>
      <point x="903" y="14" type="qcurve"/>
      <point x="874" y="39"/>
      <point x="874" y="82" type="qcurve" smooth="yes"/>
      <point x="874" y="180" type="line"/>
      <point x="801" y="85"/>
      <point x="563" y="-20"/>
      <point x="424" y="-20" type="qcurve" smooth="yes"/>
      <point x="279" y="-20"/>
      <point x="80" y="168"/>
      <point x="80" y="305" type="qcurve" smooth="yes"/>
      <point x="80" y="439"/>
      <point x="325" y="608"/>
      <point x="518" y="608" type="qcurve" smooth="yes"/>
      <point x="715" y="608"/>
      <point x="874" y="549" type="qcurve"/>
      <point x="874" y="670" type="line" smooth="yes"/>
      <point x="874" y="836"/>
      <point x="683" y="1038"/>
      <point x="526" y="1038" type="qcurve" smooth="yes"/>
      <point x="368" y="1038"/>
      <point x="182" y="907" type="qcurve"/>
      <point x="158" y="940" type="line"/>
      <point x="362" y="1079"/>
      <point x="526" y="1079" type="qcurve" smooth="yes"/>
      <point x="704" y="1079"/>
      <point x="915" y="858"/>
      <point x="915" y="670" type="qcurve" smooth="yes"/>
      <point x="915" y="82" type="line" smooth="yes"/>
      <point x="915" y="41"/>
      <point x="948" y="41" type="qcurve"/>
    </contour>
    <contour>
      <point x="874" y="293" type="qcurve" smooth="yes"/>
      <point x="874" y="504" type="line"/>
      <point x="711" y="567"/>
      <point x="518" y="567" type="qcurve" smooth="yes"/>
      <point x="339" y="567"/>
      <point x="121" y="423"/>
      <point x="121" y="305" type="qcurve" smooth="yes"/>
      <point x="121" y="185"/>
      <point x="296" y="20"/>
      <point x="424" y="20" type="qcurve" smooth="yes"/>
      <point x="560" y="20"/>
      <point x="788" y="123"/>
      <point x="844" y="209" type="qcurve" smooth="yes"/>
      <point x="874" y="253"/>
    </contour>
  </outline>
</glyph>
<glyph name="ccircumflex" format="2">
  <advance width="1101"/>
  <unicode hex="0109"/>
  <anchor x="0" y="0" name="Anchor-11"/>
  <anchor x="0" y="0" name="Anchor-10"/>
  <anchor x="600" y="1495" name="Anchor-9"/>
  <anchor x="0" y="0" name="Anchor-8"/>
  <anchor x="608" y="0" name="Anchor-7"/>
  <outline>
    <contour>
      <point x="393" y="1343" type="line"/>
      <point x="584" y="1495" type="line"/>
      <point x="616" y="1495" type="line"/>
      <point x="807" y="1343" type="line"/>
      <point x="774" y="1319" type="line"/>
      <point x="600" y="1448" type="line"/>
      <point x="426" y="1319" type="line"/>
    </contour>
    <contour>
      <point x="608" y="-20" type="qcurve" smooth="yes"/>
      <point x="470" y="-20"/>
      <point x="233" y="130"/>
      <point x="94" y="387"/>
      <point x="94" y="687"/>
      <point x="228" y="936"/>
      <point x="464" y="1079"/>
      <point x="606" y="1079" type="qcurve" smooth="yes"/>
      <point x="740" y="1079"/>
      <point x="952" y="954"/>
      <point x="1006" y="842" type="qcurve"/>
      <point x="965" y="827" type="line"/>
      <point x="913" y="925"/>
      <point x="717" y="1038"/>
      <point x="600" y="1038" type="qcurve" smooth="yes"/>
      <point x="405" y="1038"/>
      <point x="135" y="748"/>
      <point x="135" y="537" type="qcurve" smooth="yes"/>
      <point x="135" y="399"/>
      <point x="262" y="160"/>
      <point x="477" y="20"/>
      <point x="602" y="20" type="qcurve" smooth="yes"/>
      <point x="726" y="20"/>
      <point x="954" y="156"/>
      <point x="979" y="244" type="qcurve"/>
      <point x="1020" y="231" type="line"/>
      <point x="985" y="124"/>
      <point x="747" y="-20"/>
    </contour>
  </outline>
</glyph>
<glyph name="Dcroat" format="2">
  <advance width="1470"/>
  <unicode hex="0110"/>
  <anchor x="0" y="0" name="Anchor-11"/>
  <anchor x="743" y="727" name="Anchor-10"/>
  <anchor x="737" y="1448" name="Anchor-9"/>
  <anchor x="0" y="0" name="Anchor-8"/>
  <anchor x="745" y="0" name="Anchor-7"/>
  <outline>
    <contour>
      <point x="684" y="1454" type="line" smooth="yes"/>
      <point x="851" y="1454"/>
      <point x="1114" y="1341"/>
      <point x="1280" y="1142"/>
      <point x="1366" y="881"/>
      <point x="1366" y="729" type="qcurve" smooth="yes"/>
      <point x="1366" y="398"/>
      <point x="996" y="0"/>
      <point x="684" y="0" type="qcurve" smooth="yes"/>
      <point x="217" y="0" type="line"/>
      <point x="217" y="711" type="line"/>
      <point x="72" y="711" type="line"/>
      <point x="72" y="752" type="line"/>
      <point x="217" y="752" type="line"/>
      <point x="217" y="1454" type="line"/>
    </contour>
    <contour>
      <point x="684" y="41" type="line" smooth="yes"/>
      <point x="839" y="41"/>
      <point x="1085" y="146"/>
      <point x="1242" y="332"/>
      <point x="1325" y="581"/>
      <point x="1325" y="729" type="qcurve" smooth="yes"/>
      <point x="1325" y="929"/>
      <point x="1178" y="1236"/>
      <point x="885" y="1413"/>
      <point x="684" y="1413" type="qcurve" smooth="yes"/>
      <point x="258" y="1413" type="line"/>
      <point x="258" y="752" type="line"/>
      <point x="651" y="752" type="line"/>
      <point x="651" y="711" type="line"/>
      <point x="258" y="711" type="line"/>
      <point x="258" y="41" type="line"/>
    </contour>
  </outline>
</glyph>
<glyph name="Emacron" format="2">
  <advance width="1263"/>
  <unicode hex="0112"/>
  <anchor x="0" y="0" name="Anchor-11"/>
  <anchor x="0" y="0" name="Anchor-10"/>
  <anchor x="705" y="1831" name="Anchor-9"/>
  <anchor x="1157" y="0" name="Anchor-8"/>
  <anchor x="705" y="0" name="Anchor-7"/>
  <outline>
    <contour>
      <point x="418" y="1790" type="line"/>
      <point x="418" y="1831" type="line"/>
      <point x="991" y="1831" type="line"/>
      <point x="991" y="1790" type="line"/>
    </contour>
    <contour>
      <point x="1157" y="41" type="line"/>
      <point x="1157" y="0" type="line"/>
      <point x="203" y="0" type="line"/>
      <point x="203" y="1454" type="line"/>
      <point x="1139" y="1454" type="line"/>
      <point x="1139" y="1413" type="line"/>
      <point x="244" y="1413" type="line"/>
      <point x="244" y="764" type="line"/>
      <point x="1028" y="764" type="line"/>
      <point x="1028" y="723" type="line"/>
      <point x="244" y="723" type="line"/>
      <point x="244" y="41" type="line"/>
    </contour>
  </outline>
</glyph>
<glyph name="Ebreve" format="2">
  <advance width="1263"/>
  <unicode hex="0114"/>
  <anchor x="0" y="0" name="Anchor-11"/>
  <anchor x="0" y="0" name="Anchor-10"/>
  <anchor x="705" y="1722" name="Anchor-9"/>
  <anchor x="1157" y="0" name="Anchor-8"/>
  <anchor x="705" y="0" name="Anchor-7"/>
  <outline>
    <contour>
      <point x="819" y="1880" type="qcurve"/>
      <point x="856" y="1880" type="line"/>
      <point x="856" y="1817"/>
      <point x="765" y="1722"/>
      <point x="645" y="1722"/>
      <point x="553" y="1817"/>
      <point x="553" y="1880" type="qcurve"/>
      <point x="592" y="1880" type="line"/>
      <point x="592" y="1834"/>
      <point x="662" y="1757"/>
      <point x="705" y="1757" type="qcurve" smooth="yes"/>
      <point x="746" y="1757"/>
      <point x="813" y="1829"/>
    </contour>
    <contour>
      <point x="1157" y="41" type="line"/>
      <point x="1157" y="0" type="line"/>
      <point x="203" y="0" type="line"/>
      <point x="203" y="1454" type="line"/>
      <point x="1139" y="1454" type="line"/>
      <point x="1139" y="1413" type="line"/>
      <point x="244" y="1413" type="line"/>
      <point x="244" y="764" type="line"/>
      <point x="1028" y="764" type="line"/>
      <point x="1028" y="723" type="line"/>
      <point x="244" y="723" type="line"/>
      <point x="244" y="41" type="line"/>
    </contour>
  </outline>
</glyph>
<glyph name="Eogonek" format="2">
  <advance width="1263"/>
  <unicode hex="0118"/>
  <anchor x="0" y="0" name="Anchor-11"/>
  <anchor x="0" y="0" name="Anchor-10"/>
  <anchor x="705" y="1448" name="Anchor-9"/>
  <anchor x="1157" y="0" name="Anchor-8"/>
  <anchor x="705" y="0" name="Anchor-7"/>
  <outline>
    <contour>
      <point x="1157" y="0" type="line"/>
      <point x="1073" y="-65"/>
      <point x="1001" y="-157"/>
      <point x="1001" y="-199" type="qcurve" smooth="yes"/>
      <point x="1001" y="-237"/>
      <point x="1066" y="-282"/>
      <point x="1149" y="-301" type="qcurve"/>
      <point x="1124" y="-336" type="line"/>
      <point x="1035" y="-319"/>
      <point x="958" y="-256"/>
      <point x="958" y="-205" type="qcurve" smooth="yes"/>
      <point x="958" y="-156"/>
      <point x="1026" y="-61"/>
      <point x="1096" y="0" type="qcurve"/>
      <point x="203" y="0" type="line"/>
      <point x="203" y="1454" type="line"/>
      <point x="1139" y="1454" type="line"/>
      <point x="1139" y="1413" type="line"/>
      <point x="244" y="1413" type="line"/>
      <point x="244" y="764" type="line"/>
      <point x="1028" y="764" type="line"/>
      <point x="1028" y="723" type="line"/>
      <point x="244" y="723" type="line"/>
      <point x="244" y="41" type="line"/>
      <point x="1157" y="41" type="line"/>
    </contour>
  </outline>
</glyph>
<glyph name="eogonek" format="2">
  <advance width="1179"/>
  <unicode hex="0119"/>
  <anchor x="0" y="0" name="Anchor-11"/>
  <anchor x="0" y="0" name="Anchor-10"/>
  <anchor x="598" y="1063" name="Anchor-9"/>
  <anchor x="737" y="0" name="Anchor-8"/>
  <anchor x="606" y="0" name="Anchor-7"/>
  <outline>
    <contour>
      <point x="1108" y="530" type="qcurve" smooth="yes"/>
      <point x="1108" y="508" type="line"/>
      <point x="135" y="508" type="line"/>
      <point x="145" y="373"/>
      <point x="276" y="149"/>
      <point x="486" y="20"/>
      <point x="608" y="20" type="qcurve" smooth="yes"/>
      <point x="731" y="20"/>
      <point x="945" y="146"/>
      <point x="989" y="244" type="qcurve"/>
      <point x="1028" y="233" type="line"/>
      <point x="995" y="150"/>
      <point x="836" y="24"/>
      <point x="733" y="-4" type="qcurve"/>
      <point x="651" y="-67"/>
      <point x="582" y="-156"/>
      <point x="582" y="-199" type="qcurve" smooth="yes"/>
      <point x="582" y="-237"/>
      <point x="646" y="-282"/>
      <point x="729" y="-301" type="qcurve"/>
      <point x="705" y="-336" type="line"/>
      <point x="616" y="-319"/>
      <point x="539" y="-256"/>
      <point x="539" y="-205" type="qcurve" smooth="yes"/>
      <point x="539" y="-122"/>
      <point x="655" y="-18" type="qcurve"/>
      <point x="639" y="-20"/>
      <point x="606" y="-20" type="qcurve" smooth="yes"/>
      <point x="468" y="-20"/>
      <point x="232" y="131"/>
      <point x="94" y="389"/>
      <point x="94" y="539" type="qcurve" smooth="yes"/>
      <point x="94" y="686"/>
      <point x="228" y="935"/>
      <point x="459" y="1079"/>
      <point x="596" y="1079" type="qcurve" smooth="yes"/>
      <point x="735" y="1079"/>
      <point x="970" y="933"/>
      <point x="1107" y="680"/>
    </contour>
    <contour>
      <point x="135" y="549" type="qcurve"/>
      <point x="1065" y="549" type="line"/>
      <point x="1052" y="762"/>
      <point x="787" y="1038"/>
      <point x="598" y="1038" type="qcurve" smooth="yes"/>
      <point x="474" y="1038"/>
      <point x="267" y="912"/>
      <point x="142" y="688"/>
    </contour>
  </outline>
</glyph>
<glyph name="Gbreve" format="2">
  <advance width="1474"/>
  <unicode hex="011E"/>
  <anchor x="0" y="0" name="Anchor-11"/>
  <anchor x="0" y="0" name="Anchor-10"/>
  <anchor x="758" y="1722" name="Anchor-9"/>
  <anchor x="0" y="0" name="Anchor-8"/>
  <anchor x="782" y="0" name="Anchor-7"/>
  <outline>
    <contour>
      <point x="698" y="1722"/>
      <point x="606" y="1817"/>
      <point x="606" y="1880" type="qcurve"/>
      <point x="645" y="1880" type="line"/>
      <point x="645" y="1834"/>
      <point x="715" y="1757"/>
      <point x="758" y="1757" type="qcurve" smooth="yes"/>
      <point x="799" y="1757"/>
      <point x="866" y="1829"/>
      <point x="872" y="1880" type="qcurve"/>
      <point x="909" y="1880" type="line"/>
      <point x="909" y="1817"/>
      <point x="818" y="1722"/>
    </contour>
    <contour>
      <point x="967" y="692" type="line"/>
      <point x="1350" y="692" type="line"/>
      <point x="1350" y="0" type="line"/>
      <point x="1309" y="0" type="line"/>
      <point x="1309" y="250" type="line"/>
      <point x="1085" y="-10"/>
      <point x="784" y="-10" type="qcurve" smooth="yes"/>
      <point x="638" y="-10"/>
      <point x="377" y="120"/>
      <point x="201" y="329"/>
      <point x="98" y="593"/>
      <point x="98" y="727" type="qcurve" smooth="yes"/>
      <point x="98" y="840"/>
      <point x="161" y="1058"/>
      <point x="279" y="1243"/>
      <point x="439" y="1384"/>
      <point x="647" y="1464"/>
      <point x="760" y="1464" type="qcurve" smooth="yes"/>
      <point x="1156" y="1464"/>
      <point x="1315" y="1147" type="qcurve"/>
      <point x="1276" y="1135" type="line"/>
      <point x="1120" y="1423"/>
      <point x="760" y="1423" type="qcurve" smooth="yes"/>
      <point x="648" y="1423"/>
      <point x="449" y="1344"/>
      <point x="302" y="1208"/>
      <point x="194" y="1031"/>
      <point x="139" y="830"/>
      <point x="139" y="727" type="qcurve" smooth="yes"/>
      <point x="139" y="619"/>
      <point x="204" y="411"/>
      <point x="323" y="237"/>
      <point x="481" y="105"/>
      <point x="679" y="31"/>
      <point x="784" y="31" type="qcurve" smooth="yes"/>
      <point x="1075" y="31"/>
      <point x="1309" y="305" type="qcurve"/>
      <point x="1309" y="651" type="line"/>
      <point x="967" y="651" type="line"/>
    </contour>
  </outline>
</glyph>
<glyph name="gbreve" format="2">
  <advance width="1234"/>
  <unicode hex="011F"/>
  <anchor x="0" y="0" name="Anchor-11"/>
  <anchor x="0" y="0" name="Anchor-10"/>
  <anchor x="616" y="1337" name="Anchor-9"/>
  <anchor x="0" y="0" name="Anchor-8"/>
  <anchor x="0" y="0" name="Anchor-7"/>
  <outline>
    <contour>
      <point x="731" y="1495" type="qcurve"/>
      <point x="768" y="1495" type="line"/>
      <point x="768" y="1432"/>
      <point x="676" y="1337"/>
      <point x="556" y="1337"/>
      <point x="465" y="1432"/>
      <point x="465" y="1495" type="qcurve"/>
      <point x="504" y="1495" type="line"/>
      <point x="504" y="1449"/>
      <point x="573" y="1372"/>
      <point x="616" y="1372" type="qcurve" smooth="yes"/>
      <point x="657" y="1372"/>
      <point x="725" y="1444"/>
    </contour>
    <contour>
      <point x="94" y="528" type="qcurve" smooth="yes"/>
      <point x="94" y="634"/>
      <point x="168" y="834"/>
      <point x="295" y="987"/>
      <point x="482" y="1079"/>
      <point x="588" y="1079" type="qcurve" smooth="yes"/>
      <point x="836" y="1079"/>
      <point x="1022" y="815" type="qcurve"/>
      <point x="1022" y="1063" type="line"/>
      <point x="1063" y="1063" type="line"/>
      <point x="1063" y="-45" type="line" smooth="yes"/>
      <point x="1063" y="-147"/>
      <point x="985" y="-308"/>
      <point x="853" y="-406"/>
      <point x="687" y="-457"/>
      <point x="594" y="-457" type="qcurve" smooth="yes"/>
      <point x="415" y="-457"/>
      <point x="198" y="-326"/>
      <point x="133" y="-203" type="qcurve"/>
      <point x="172" y="-190" type="line"/>
      <point x="234" y="-305"/>
      <point x="457" y="-416"/>
      <point x="594" y="-416" type="qcurve" smooth="yes"/>
      <point x="713" y="-416"/>
      <point x="904" y="-334"/>
      <point x="1022" y="-163"/>
      <point x="1022" y="-45" type="qcurve" smooth="yes"/>
      <point x="1022" y="221" type="line"/>
      <point x="954" y="114"/>
      <point x="726" y="-20"/>
      <point x="606" y="-20" type="qcurve" smooth="yes"/>
      <point x="463" y="-20"/>
      <point x="224" y="141"/>
      <point x="94" y="391"/>
    </contour>
    <contour>
      <point x="1022" y="346" type="qcurve"/>
      <point x="1022" y="729" type="line"/>
      <point x="971" y="862"/>
      <point x="725" y="1038"/>
      <point x="588" y="1038" type="qcurve" smooth="yes"/>
      <point x="484" y="1038"/>
      <point x="309" y="947"/>
      <point x="197" y="800"/>
      <point x="135" y="620"/>
      <point x="135" y="528" type="qcurve" smooth="yes"/>
      <point x="135" y="396"/>
      <point x="260" y="163"/>
      <point x="478" y="20"/>
      <point x="606" y="20" type="qcurve" smooth="yes"/>
      <point x="703" y="20"/>
      <point x="894" y="119"/>
      <point x="1016" y="271"/>
    </contour>
  </outline>
</glyph>
<glyph name="Hcircumflex" format="2">
  <advance width="1497"/>
  <unicode hex="0124"/>
  <anchor x="0" y="0" name="Anchor-11"/>
  <anchor x="750" y="727" name="Anchor-10"/>
  <anchor x="752" y="1880" name="Anchor-9"/>
  <anchor x="0" y="0" name="Anchor-8"/>
  <anchor x="750" y="0" name="Anchor-7"/>
  <outline>
    <contour>
      <point x="545" y="1729" type="line"/>
      <point x="735" y="1880" type="line"/>
      <point x="768" y="1880" type="line"/>
      <point x="958" y="1729" type="line"/>
      <point x="926" y="1704" type="line"/>
      <point x="752" y="1833" type="line"/>
      <point x="578" y="1704" type="line"/>
    </contour>
    <contour>
      <point x="1294" y="1454" type="line"/>
      <point x="1294" y="0" type="line"/>
      <point x="1253" y="0" type="line"/>
      <point x="1253" y="723" type="line"/>
      <point x="244" y="723" type="line"/>
      <point x="244" y="0" type="line"/>
      <point x="203" y="0" type="line"/>
      <point x="203" y="1454" type="line"/>
      <point x="244" y="1454" type="line"/>
      <point x="244" y="764" type="line"/>
      <point x="1253" y="764" type="line"/>
      <point x="1253" y="1454" type="line"/>
    </contour>
  </outline>
</glyph>
<glyph name="hcircumflex" format="2">
  <advance width="1157"/>
  <unicode hex="0125"/>
  <anchor x="0" y="0" name="Anchor-11"/>
  <anchor x="580" y="532" name="Anchor-10"/>
  <anchor x="629" y="1886" name="Anchor-9"/>
  <anchor x="0" y="0" name="Anchor-8"/>
  <anchor x="580" y="0" name="Anchor-7"/>
  <outline>
    <contour>
      <point x="422" y="1735" type="line"/>
      <point x="612" y="1886" type="line"/>
      <point x="645" y="1886" type="line"/>
      <point x="836" y="1735" type="line"/>
      <point x="803" y="1710" type="line"/>
      <point x="629" y="1839" type="line"/>
      <point x="455" y="1710" type="line"/>
    </contour>
    <contour>
      <point x="997" y="0" type="line"/>
      <point x="956" y="0" type="line"/>
      <point x="956" y="592" type="line" smooth="yes"/>
      <point x="956" y="1038"/>
      <point x="662" y="1038" type="qcurve" smooth="yes"/>
      <point x="513" y="1038"/>
      <point x="254" y="827"/>
      <point x="213" y="672" type="qcurve"/>
      <point x="213" y="0" type="line"/>
      <point x="172" y="0" type="line"/>
      <point x="172" y="1495" type="line"/>
      <point x="213" y="1495" type="line"/>
      <point x="213" y="788" type="line"/>
      <point x="279" y="920"/>
      <point x="523" y="1079"/>
      <point x="659" y="1079" type="qcurve" smooth="yes"/>
      <point x="825" y="1079"/>
      <point x="997" y="831"/>
      <point x="997" y="592" type="qcurve" smooth="yes"/>
    </contour>
  </outline>
</glyph>
<glyph name="Hbar" format="2">
  <advance width="1517"/>
  <unicode hex="0126"/>
  <anchor x="0" y="0" name="Anchor-11"/>
  <anchor x="760" y="727" name="Anchor-10"/>
  <anchor x="762" y="1448" name="Anchor-9"/>
  <anchor x="0" y="0" name="Anchor-8"/>
  <anchor x="760" y="0" name="Anchor-7"/>
  <outline>
    <contour>
      <point x="1407" y="1176" type="line"/>
      <point x="1407" y="1135" type="line"/>
      <point x="1305" y="1135" type="line"/>
      <point x="1305" y="0" type="line"/>
      <point x="1264" y="0" type="line"/>
      <point x="1264" y="723" type="line"/>
      <point x="254" y="723" type="line"/>
      <point x="254" y="0" type="line"/>
      <point x="213" y="0" type="line"/>
      <point x="213" y="1135" type="line"/>
      <point x="111" y="1135" type="line"/>
      <point x="111" y="1176" type="line"/>
      <point x="213" y="1176" type="line"/>
      <point x="213" y="1454" type="line"/>
      <point x="254" y="1454" type="line"/>
      <point x="254" y="1176" type="line"/>
      <point x="1264" y="1176" type="line"/>
      <point x="1264" y="1454" type="line"/>
      <point x="1305" y="1454" type="line"/>
      <point x="1305" y="1176" type="line"/>
    </contour>
    <contour>
      <point x="1264" y="764" type="line"/>
      <point x="1264" y="1135" type="line"/>
      <point x="254" y="1135" type="line"/>
      <point x="254" y="764" type="line"/>
    </contour>
  </outline>
</glyph>
<glyph name="hbar" format="2">
  <advance width="1157"/>
  <unicode hex="0127"/>
  <anchor x="0" y="0" name="Anchor-11"/>
  <anchor x="580" y="532" name="Anchor-10"/>
  <anchor x="629" y="1454" name="Anchor-9"/>
  <anchor x="0" y="0" name="Anchor-8"/>
  <anchor x="580" y="0" name="Anchor-7"/>
  <outline>
    <contour>
      <point x="659" y="1079" type="qcurve" smooth="yes"/>
      <point x="825" y="1079"/>
      <point x="997" y="831"/>
      <point x="997" y="592" type="qcurve" smooth="yes"/>
      <point x="997" y="0" type="line"/>
      <point x="956" y="0" type="line"/>
      <point x="956" y="592" type="line" smooth="yes"/>
      <point x="956" y="1038"/>
      <point x="662" y="1038" type="qcurve" smooth="yes"/>
      <point x="513" y="1038"/>
      <point x="254" y="827"/>
      <point x="213" y="672" type="qcurve"/>
      <point x="213" y="0" type="line"/>
      <point x="172" y="0" type="line"/>
      <point x="172" y="1296" type="line"/>
      <point x="20" y="1296" type="line"/>
      <point x="20" y="1337" type="line"/>
      <point x="172" y="1337" type="line"/>
      <point x="172" y="1495" type="line"/>
      <point x="213" y="1495" type="line"/>
      <point x="213" y="1337" type="line"/>
      <point x="471" y="1337" type="line"/>
      <point x="471" y="1296" type="line"/>
      <point x="213" y="1296" type="line"/>
      <point x="213" y="788" type="line"/>
      <point x="279" y="920"/>
      <point x="523" y="1079"/>
    </contour>
  </outline>
</glyph>
<glyph name="Itilde" format="2">
  <advance width="446"/>
  <unicode hex="0128"/>
  <anchor x="0" y="0" name="Anchor-11"/>
  <anchor x="0" y="0" name="Anchor-10"/>
  <anchor x="223" y="1880" name="Anchor-9"/>
  <anchor x="244" y="0" name="Anchor-8"/>
  <anchor x="225" y="0" name="Anchor-7"/>
  <outline>
    <contour>
      <point x="84" y="1821" type="qcurve" smooth="yes"/>
      <point x="54" y="1821"/>
      <point x="9" y="1794"/>
      <point x="-11" y="1757"/>
      <point x="-20" y="1729"/>
      <point x="-20" y="1722" type="qcurve"/>
      <point x="-61" y="1722" type="line"/>
      <point x="-61" y="1729"/>
      <point x="-56" y="1754"/>
      <point x="-38" y="1797"/>
      <point x="-8" y="1833"/>
      <point x="50" y="1860"/>
      <point x="88" y="1860" type="qcurve" smooth="yes"/>
      <point x="141" y="1860"/>
      <point x="292" y="1782"/>
      <point x="344" y="1782" type="qcurve" smooth="yes"/>
      <point x="376" y="1782"/>
      <point x="424" y="1801"/>
      <point x="447" y="1827"/>
      <point x="462" y="1858"/>
      <point x="465" y="1875"/>
      <point x="465" y="1880" type="qcurve"/>
      <point x="506" y="1880" type="line"/>
      <point x="506" y="1872"/>
      <point x="501" y="1846"/>
      <point x="480" y="1803"/>
      <point x="447" y="1769"/>
      <point x="382" y="1743"/>
      <point x="340" y="1743" type="qcurve" smooth="yes"/>
      <point x="289" y="1743"/>
      <point x="196" y="1782"/>
      <point x="118" y="1821"/>
    </contour>
    <contour>
      <point x="203" y="0" type="line"/>
      <point x="203" y="1454" type="line"/>
      <point x="244" y="1454" type="line"/>
      <point x="244" y="0" type="line"/>
    </contour>
  </outline>
</glyph>
<glyph name="itilde" format="2">
  <advance width="385"/>
  <unicode hex="0129"/>
  <anchor x="0" y="0" name="Anchor-11"/>
  <anchor x="0" y="0" name="Anchor-10"/>
  <anchor x="193" y="1495" name="Anchor-9"/>
  <anchor x="0" y="0" name="Anchor-8"/>
  <anchor x="0" y="0" name="Anchor-7"/>
  <outline>
    <contour>
      <point x="53" y="1436" type="qcurve" smooth="yes"/>
      <point x="23" y="1436"/>
      <point x="-22" y="1409"/>
      <point x="-42" y="1372"/>
      <point x="-51" y="1344"/>
      <point x="-51" y="1337" type="qcurve"/>
      <point x="-92" y="1337" type="line"/>
      <point x="-92" y="1344"/>
      <point x="-87" y="1369"/>
      <point x="-69" y="1412"/>
      <point x="-39" y="1448"/>
      <point x="19" y="1475"/>
      <point x="57" y="1475" type="qcurve" smooth="yes"/>
      <point x="110" y="1475"/>
      <point x="261" y="1397"/>
      <point x="313" y="1397" type="qcurve" smooth="yes"/>
      <point x="345" y="1397"/>
      <point x="393" y="1416"/>
      <point x="416" y="1442"/>
      <point x="431" y="1473"/>
      <point x="434" y="1490"/>
      <point x="434" y="1495" type="qcurve"/>
      <point x="475" y="1495" type="line"/>
      <point x="475" y="1487"/>
      <point x="470" y="1461"/>
      <point x="449" y="1418"/>
      <point x="416" y="1384"/>
      <point x="351" y="1358"/>
      <point x="309" y="1358" type="qcurve" smooth="yes"/>
      <point x="258" y="1358"/>
      <point x="165" y="1397"/>
      <point x="87" y="1436"/>
    </contour>
    <contour>
      <point x="172" y="0" type="line"/>
      <point x="172" y="1063" type="line"/>
      <point x="213" y="1063" type="line"/>
      <point x="213" y="0" type="line"/>
    </contour>
  </outline>
</glyph>
<glyph name="Imacron" format="2">
  <advance width="446"/>
  <unicode hex="012A"/>
  <anchor x="0" y="0" name="Anchor-11"/>
  <anchor x="0" y="0" name="Anchor-10"/>
  <anchor x="223" y="1831" name="Anchor-9"/>
  <anchor x="244" y="0" name="Anchor-8"/>
  <anchor x="225" y="0" name="Anchor-7"/>
  <outline>
    <contour>
      <point x="-63" y="1790" type="line"/>
      <point x="-63" y="1831" type="line"/>
      <point x="510" y="1831" type="line"/>
      <point x="510" y="1790" type="line"/>
    </contour>
    <contour>
      <point x="203" y="0" type="line"/>
      <point x="203" y="1454" type="line"/>
      <point x="244" y="1454" type="line"/>
      <point x="244" y="0" type="line"/>
    </contour>
  </outline>
</glyph>
<glyph name="imacron" format="2">
  <advance width="385"/>
  <unicode hex="012B"/>
  <anchor x="0" y="0" name="Anchor-11"/>
  <anchor x="0" y="0" name="Anchor-10"/>
  <anchor x="193" y="1446" name="Anchor-9"/>
  <anchor x="0" y="0" name="Anchor-8"/>
  <anchor x="0" y="0" name="Anchor-7"/>
  <outline>
    <contour>
      <point x="-94" y="1405" type="line"/>
      <point x="-94" y="1446" type="line"/>
      <point x="479" y="1446" type="line"/>
      <point x="479" y="1405" type="line"/>
    </contour>
    <contour>
      <point x="172" y="0" type="line"/>
      <point x="172" y="1063" type="line"/>
      <point x="213" y="1063" type="line"/>
      <point x="213" y="0" type="line"/>
    </contour>
  </outline>
</glyph>
<glyph name="Ibreve" format="2">
  <advance width="446"/>
  <unicode hex="012C"/>
  <anchor x="0" y="0" name="Anchor-11"/>
  <anchor x="0" y="0" name="Anchor-10"/>
  <anchor x="223" y="1722" name="Anchor-9"/>
  <anchor x="244" y="0" name="Anchor-8"/>
  <anchor x="225" y="0" name="Anchor-7"/>
  <outline>
    <contour>
      <point x="338" y="1880" type="qcurve"/>
      <point x="375" y="1880" type="line"/>
      <point x="375" y="1817"/>
      <point x="283" y="1722"/>
      <point x="163" y="1722"/>
      <point x="72" y="1817"/>
      <point x="72" y="1880" type="qcurve"/>
      <point x="111" y="1880" type="line"/>
      <point x="111" y="1834"/>
      <point x="180" y="1757"/>
      <point x="223" y="1757" type="qcurve" smooth="yes"/>
      <point x="264" y="1757"/>
      <point x="332" y="1829"/>
    </contour>
    <contour>
      <point x="203" y="0" type="line"/>
      <point x="203" y="1454" type="line"/>
      <point x="244" y="1454" type="line"/>
      <point x="244" y="0" type="line"/>
    </contour>
  </outline>
</glyph>
<glyph name="ibreve" format="2">
  <advance width="385"/>
  <unicode hex="012D"/>
  <anchor x="0" y="0" name="Anchor-11"/>
  <anchor x="0" y="0" name="Anchor-10"/>
  <anchor x="193" y="1337" name="Anchor-9"/>
  <anchor x="0" y="0" name="Anchor-8"/>
  <anchor x="0" y="0" name="Anchor-7"/>
  <outline>
    <contour>
      <point x="307" y="1495" type="qcurve"/>
      <point x="344" y="1495" type="line"/>
      <point x="344" y="1432"/>
      <point x="253" y="1337"/>
      <point x="133" y="1337"/>
      <point x="41" y="1432"/>
      <point x="41" y="1495" type="qcurve"/>
      <point x="80" y="1495" type="line"/>
      <point x="80" y="1449"/>
      <point x="150" y="1372"/>
      <point x="193" y="1372" type="qcurve" smooth="yes"/>
      <point x="234" y="1372"/>
      <point x="301" y="1444"/>
    </contour>
    <contour>
      <point x="172" y="0" type="line"/>
      <point x="172" y="1063" type="line"/>
      <point x="213" y="1063" type="line"/>
      <point x="213" y="0" type="line"/>
    </contour>
  </outline>
</glyph>
<glyph name="Iogonek" format="2">
  <advance width="446"/>
  <unicode hex="012E"/>
  <anchor x="0" y="0" name="Anchor-11"/>
  <anchor x="0" y="0" name="Anchor-10"/>
  <anchor x="223" y="1448" name="Anchor-9"/>
  <anchor x="244" y="0" name="Anchor-8"/>
  <anchor x="225" y="0" name="Anchor-7"/>
  <outline>
    <contour>
      <point x="244" y="0" type="line"/>
      <point x="160" y="-65"/>
      <point x="88" y="-157"/>
      <point x="88" y="-199" type="qcurve" smooth="yes"/>
      <point x="88" y="-237"/>
      <point x="153" y="-282"/>
      <point x="236" y="-301" type="qcurve"/>
      <point x="211" y="-336" type="line"/>
      <point x="122" y="-319"/>
      <point x="45" y="-256"/>
      <point x="45" y="-205" type="qcurve" smooth="yes"/>
      <point x="45" y="-153"/>
      <point x="123" y="-49"/>
      <point x="203" y="16" type="qcurve"/>
      <point x="203" y="1454" type="line"/>
      <point x="244" y="1454" type="line"/>
    </contour>
  </outline>
</glyph>
<glyph name="iogonek" format="2">
  <advance width="385"/>
  <unicode hex="012F"/>
  <anchor x="0" y="0" name="Anchor-11"/>
  <anchor x="0" y="0" name="Anchor-10"/>
  <anchor x="0" y="0" name="Anchor-9"/>
  <anchor x="213" y="0" name="Anchor-8"/>
  <anchor x="193" y="0" name="Anchor-7"/>
  <outline>
    <contour>
      <point x="172" y="1495" type="line"/>
      <point x="213" y="1495" type="line"/>
      <point x="213" y="1337" type="line"/>
      <point x="172" y="1337" type="line"/>
    </contour>
    <contour>
      <point x="172" y="16" type="qcurve"/>
      <point x="172" y="1063" type="line"/>
      <point x="213" y="1063" type="line"/>
      <point x="213" y="0" type="line"/>
      <point x="129" y="-65"/>
      <point x="57" y="-157"/>
      <point x="57" y="-199" type="qcurve" smooth="yes"/>
      <point x="57" y="-237"/>
      <point x="122" y="-282"/>
      <point x="205" y="-301" type="qcurve"/>
      <point x="180" y="-336" type="line"/>
      <point x="91" y="-319"/>
      <point x="14" y="-256"/>
      <point x="14" y="-205" type="qcurve" smooth="yes"/>
      <point x="14" y="-153"/>
      <point x="92" y="-49"/>
    </contour>
  </outline>
</glyph>
<glyph name="jcircumflex" format="2">
  <advance width="385"/>
  <unicode hex="0135"/>
  <anchor x="0" y="0" name="Anchor-11"/>
  <anchor x="0" y="0" name="Anchor-10"/>
  <anchor x="193" y="1495" name="Anchor-9"/>
  <anchor x="0" y="0" name="Anchor-8"/>
  <anchor x="0" y="0" name="Anchor-7"/>
  <outline>
    <contour>
      <point x="-14" y="1343" type="line"/>
      <point x="176" y="1495" type="line"/>
      <point x="209" y="1495" type="line"/>
      <point x="399" y="1343" type="line"/>
      <point x="367" y="1319" type="line"/>
      <point x="193" y="1448" type="line"/>
      <point x="18" y="1319" type="line"/>
    </contour>
    <contour>
      <point x="-264" y="-279" type="qcurve"/>
      <point x="-231" y="-254" type="line"/>
      <point x="-171" y="-307"/>
      <point x="-61" y="-307" type="qcurve" smooth="yes"/>
      <point x="27" y="-307"/>
      <point x="172" y="-169"/>
      <point x="172" y="-74" type="qcurve" smooth="yes"/>
      <point x="172" y="1063" type="line"/>
      <point x="213" y="1063" type="line"/>
      <point x="213" y="-74" type="line" smooth="yes"/>
      <point x="213" y="-189"/>
      <point x="42" y="-348"/>
      <point x="-59" y="-348" type="qcurve" smooth="yes"/>
      <point x="-195" y="-348"/>
    </contour>
  </outline>
</glyph>
<glyph name="Kcedilla" format="2">
  <advance width="1271"/>
  <unicode hex="0136"/>
  <anchor x="0" y="0" name="Anchor-11"/>
  <anchor x="0" y="0" name="Anchor-10"/>
  <anchor x="0" y="0" name="Anchor-9"/>
  <anchor x="0" y="0" name="Anchor-8"/>
  <anchor x="643" y="0" name="Anchor-7"/>
  <outline>
    <contour>
      <point x="203" y="0" type="line"/>
      <point x="203" y="1454" type="line"/>
      <point x="244" y="1454" type="line"/>
      <point x="244" y="510" type="line"/>
      <point x="1169" y="1454" type="line"/>
      <point x="1229" y="1454" type="line"/>
      <point x="608" y="819" type="line"/>
      <point x="1257" y="0" type="line"/>
      <point x="1204" y="0" type="line"/>
      <point x="578" y="791" type="line"/>
      <point x="244" y="453" type="line"/>
      <point x="244" y="0" type="line"/>
    </contour>
    <contour>
      <point x="608" y="-342" type="line"/>
      <point x="629" y="-223" type="line"/>
      <point x="610" y="-223" type="line"/>
      <point x="610" y="-102" type="line"/>
      <point x="664" y="-102" type="line"/>
      <point x="664" y="-223" type="line"/>
      <point x="637" y="-342" type="line"/>
    </contour>
  </outline>
</glyph>
<glyph name="kcedilla" format="2">
  <advance width="1040"/>
  <unicode hex="0137"/>
  <anchor x="0" y="0" name="Anchor-11"/>
  <anchor x="0" y="0" name="Anchor-10"/>
  <anchor x="0" y="0" name="Anchor-9"/>
  <anchor x="0" y="0" name="Anchor-8"/>
  <anchor x="543" y="0" name="Anchor-7"/>
  <outline>
    <contour>
      <point x="954" y="0" type="line"/>
      <point x="502" y="608" type="line"/>
      <point x="213" y="346" type="line"/>
      <point x="213" y="0" type="line"/>
      <point x="172" y="0" type="line"/>
      <point x="172" y="1495" type="line"/>
      <point x="213" y="1495" type="line"/>
      <point x="213" y="401" type="line"/>
      <point x="938" y="1059" type="line"/>
      <point x="993" y="1059" type="line"/>
      <point x="532" y="637" type="line"/>
      <point x="1004" y="0" type="line"/>
    </contour>
    <contour>
      <point x="508" y="-342" type="line"/>
      <point x="528" y="-223" type="line"/>
      <point x="510" y="-223" type="line"/>
      <point x="510" y="-102" type="line"/>
      <point x="563" y="-102" type="line"/>
      <point x="563" y="-223" type="line"/>
      <point x="537" y="-342" type="line"/>
    </contour>
  </outline>
</glyph>
<glyph name="kgreenlandic" format="2">
  <advance width="1040"/>
  <unicode hex="0138"/>
  <outline>
    <contour>
      <point x="954" y="0" type="line"/>
      <point x="502" y="608" type="line"/>
      <point x="213" y="346" type="line"/>
      <point x="213" y="0" type="line"/>
      <point x="172" y="0" type="line"/>
      <point x="172" y="1063" type="line"/>
      <point x="213" y="1063" type="line"/>
      <point x="213" y="401" type="line"/>
      <point x="938" y="1059" type="line"/>
      <point x="993" y="1059" type="line"/>
      <point x="532" y="637" type="line"/>
      <point x="1004" y="0" type="line"/>
    </contour>
  </outline>
</glyph>
<glyph name="Lacute" format="2">
  <advance width="1185"/>
  <unicode hex="0139"/>
  <anchor x="788" y="1077" name="Anchor-11"/>
  <anchor x="594" y="727" name="Anchor-10"/>
  <anchor x="303" y="1886" name="Anchor-9"/>
  <anchor x="0" y="0" name="Anchor-8"/>
  <anchor x="678" y="0" name="Anchor-7"/>
  <outline>
    <contour>
      <point x="236" y="1712" type="line"/>
      <point x="203" y="1737" type="line"/>
      <point x="334" y="1886" type="line"/>
      <point x="403" y="1886" type="line"/>
    </contour>
    <contour>
      <point x="203" y="0" type="line"/>
      <point x="203" y="1454" type="line"/>
      <point x="244" y="1454" type="line"/>
      <point x="244" y="41" type="line"/>
      <point x="1157" y="41" type="line"/>
      <point x="1157" y="0" type="line"/>
    </contour>
  </outline>
</glyph>
<glyph name="Lcaron" format="2">
  <advance width="1185"/>
  <unicode hex="013D"/>
  <anchor x="788" y="1077" name="Anchor-11"/>
  <anchor x="594" y="727" name="Anchor-10"/>
  <anchor x="223" y="1454" name="Anchor-9"/>
  <anchor x="0" y="0" name="Anchor-8"/>
  <anchor x="678" y="0" name="Anchor-7"/>
  <outline>
    <contour>
      <point x="823" y="1335" type="line"/>
      <point x="791" y="1360" type="line"/>
      <point x="922" y="1509" type="line"/>
      <point x="991" y="1509" type="line"/>
    </contour>
    <contour>
      <point x="203" y="0" type="line"/>
      <point x="203" y="1454" type="line"/>
      <point x="244" y="1454" type="line"/>
      <point x="244" y="41" type="line"/>
      <point x="1157" y="41" type="line"/>
      <point x="1157" y="0" type="line"/>
    </contour>
  </outline>
</glyph>
<glyph name="lcaron" format="2">
  <advance width="487"/>
  <unicode hex="013E"/>
  <anchor x="328" y="1063" name="Anchor-11"/>
  <anchor x="244" y="532" name="Anchor-10"/>
  <anchor x="207" y="1454" name="Anchor-9"/>
  <anchor x="0" y="0" name="Anchor-8"/>
  <anchor x="332" y="0" name="Anchor-7"/>
  <outline>
    <contour>
      <point x="184" y="1495" type="line"/>
      <point x="225" y="1495" type="line"/>
      <point x="225" y="158" type="line" smooth="yes"/>
      <point x="225" y="98"/>
      <point x="298" y="29"/>
      <point x="360" y="29" type="qcurve" smooth="yes"/>
      <point x="410" y="29"/>
      <point x="473" y="47" type="qcurve"/>
      <point x="487" y="14" type="line"/>
      <point x="413" y="-10"/>
      <point x="346" y="-10" type="qcurve" smooth="yes"/>
      <point x="274" y="-10"/>
      <point x="184" y="83"/>
      <point x="184" y="158" type="qcurve" smooth="yes"/>
    </contour>
    <contour>
      <point x="362" y="1321" type="line"/>
      <point x="330" y="1346" type="line"/>
      <point x="461" y="1495" type="line"/>
      <point x="530" y="1495" type="line"/>
    </contour>
  </outline>
</glyph>
<glyph name="Lslash" format="2">
  <advance width="1200"/>
  <unicode hex="0141"/>
  <anchor x="803" y="1077" name="Anchor-11"/>
  <anchor x="608" y="727" name="Anchor-10"/>
  <anchor x="238" y="1454" name="Anchor-9"/>
  <anchor x="0" y="0" name="Anchor-8"/>
  <anchor x="692" y="0" name="Anchor-7"/>
  <outline>
    <contour>
      <point x="258" y="41" type="line"/>
      <point x="1171" y="41" type="line"/>
      <point x="1171" y="0" type="line"/>
      <point x="217" y="0" type="line"/>
      <point x="217" y="582" type="line"/>
      <point x="88" y="453" type="line"/>
      <point x="59" y="483" type="line"/>
      <point x="217" y="641" type="line"/>
      <point x="217" y="1454" type="line"/>
      <point x="258" y="1454" type="line"/>
      <point x="258" y="682" type="line"/>
      <point x="643" y="1067" type="line"/>
      <point x="672" y="1036" type="line"/>
      <point x="258" y="623" type="line"/>
    </contour>
  </outline>
</glyph>
<glyph name="lslash" format="2">
  <advance width="518"/>
  <unicode hex="0142"/>
  <anchor x="356" y="1063" name="Anchor-11"/>
  <anchor x="272" y="532" name="Anchor-10"/>
  <anchor x="236" y="1454" name="Anchor-9"/>
  <anchor x="0" y="0" name="Anchor-8"/>
  <anchor x="360" y="0" name="Anchor-7"/>
  <outline>
    <contour>
      <point x="502" y="47" type="qcurve"/>
      <point x="516" y="14" type="line"/>
      <point x="442" y="-10"/>
      <point x="375" y="-10" type="qcurve" smooth="yes"/>
      <point x="303" y="-10"/>
      <point x="213" y="83"/>
      <point x="213" y="158" type="qcurve" smooth="yes"/>
      <point x="213" y="772" type="line"/>
      <point x="63" y="623" type="line"/>
      <point x="33" y="651" type="line"/>
      <point x="213" y="831" type="line"/>
      <point x="213" y="1495" type="line"/>
      <point x="254" y="1495" type="line"/>
      <point x="254" y="872" type="line"/>
      <point x="442" y="1061" type="line"/>
      <point x="473" y="1032" type="line"/>
      <point x="254" y="813" type="line"/>
      <point x="254" y="158" type="line" smooth="yes"/>
      <point x="254" y="98"/>
      <point x="327" y="29"/>
      <point x="389" y="29" type="qcurve" smooth="yes"/>
      <point x="439" y="29"/>
    </contour>
  </outline>
</glyph>
<glyph name="Ncedilla" format="2">
  <advance width="1589"/>
  <unicode hex="0145"/>
  <anchor x="0" y="0" name="Anchor-11"/>
  <anchor x="0" y="0" name="Anchor-10"/>
  <anchor x="805" y="1448" name="Anchor-9"/>
  <anchor x="0" y="0" name="Anchor-8"/>
  <anchor x="807" y="0" name="Anchor-7"/>
  <outline>
    <contour>
      <point x="244" y="1374" type="line"/>
      <point x="244" y="0" type="line"/>
      <point x="203" y="0" type="line"/>
      <point x="203" y="1454" type="line"/>
      <point x="233" y="1454" type="line"/>
      <point x="1346" y="59" type="line"/>
      <point x="1346" y="1454" type="line"/>
      <point x="1386" y="1454" type="line"/>
      <point x="1386" y="0" type="line"/>
      <point x="1339" y="0" type="line"/>
    </contour>
    <contour>
      <point x="772" y="-342" type="line"/>
      <point x="793" y="-223" type="line"/>
      <point x="774" y="-223" type="line"/>
      <point x="774" y="-102" type="line"/>
      <point x="827" y="-102" type="line"/>
      <point x="827" y="-223" type="line"/>
      <point x="801" y="-342" type="line"/>
    </contour>
  </outline>
</glyph>
<glyph name="Ncaron" format="2">
  <advance width="1589"/>
  <unicode hex="0147"/>
  <anchor x="0" y="0" name="Anchor-11"/>
  <anchor x="0" y="0" name="Anchor-10"/>
  <anchor x="805" y="1880" name="Anchor-9"/>
  <anchor x="0" y="0" name="Anchor-8"/>
  <anchor x="807" y="0" name="Anchor-7"/>
  <outline>
    <contour>
      <point x="631" y="1880" type="line"/>
      <point x="805" y="1751" type="line"/>
      <point x="979" y="1880" type="line"/>
      <point x="1012" y="1855" type="line"/>
      <point x="821" y="1704" type="line"/>
      <point x="788" y="1704" type="line"/>
      <point x="598" y="1855" type="line"/>
    </contour>
    <contour>
      <point x="244" y="1374" type="line"/>
      <point x="244" y="0" type="line"/>
      <point x="203" y="0" type="line"/>
      <point x="203" y="1454" type="line"/>
      <point x="233" y="1454" type="line"/>
      <point x="1346" y="59" type="line"/>
      <point x="1346" y="1454" type="line"/>
      <point x="1386" y="1454" type="line"/>
      <point x="1386" y="0" type="line"/>
      <point x="1339" y="0" type="line"/>
    </contour>
  </outline>
</glyph>
<glyph name="ncaron" format="2">
  <advance width="1157"/>
  <unicode hex="0148"/>
  <anchor x="0" y="0" name="Anchor-11"/>
  <anchor x="0" y="0" name="Anchor-10"/>
  <anchor x="573" y="1495" name="Anchor-9"/>
  <anchor x="0" y="0" name="Anchor-8"/>
  <anchor x="573" y="0" name="Anchor-7"/>
  <outline>
    <contour>
      <point x="399" y="1495" type="line"/>
      <point x="573" y="1366" type="line"/>
      <point x="748" y="1495" type="line"/>
      <point x="780" y="1470" type="line"/>
      <point x="590" y="1319" type="line"/>
      <point x="557" y="1319" type="line"/>
      <point x="367" y="1470" type="line"/>
    </contour>
    <contour>
      <point x="997" y="0" type="line"/>
      <point x="956" y="0" type="line"/>
      <point x="956" y="592" type="line" smooth="yes"/>
      <point x="956" y="824"/>
      <point x="826" y="1038"/>
      <point x="684" y="1038" type="qcurve" smooth="yes"/>
      <point x="529" y="1038"/>
      <point x="257" y="828"/>
      <point x="213" y="672" type="qcurve"/>
      <point x="213" y="0" type="line"/>
      <point x="172" y="0" type="line"/>
      <point x="172" y="1063" type="line"/>
      <point x="213" y="1063" type="line"/>
      <point x="213" y="788" type="line"/>
      <point x="279" y="917"/>
      <point x="540" y="1079"/>
      <point x="682" y="1079" type="qcurve" smooth="yes"/>
      <point x="845" y="1079"/>
      <point x="997" y="843"/>
      <point x="997" y="592" type="qcurve" smooth="yes"/>
    </contour>
  </outline>
</glyph>
<glyph name="Eng" format="2">
  <advance width="1589"/>
  <unicode hex="014A"/>
  <outline>
    <contour>
      <point x="244" y="1374" type="line"/>
      <point x="244" y="0" type="line"/>
      <point x="203" y="0" type="line"/>
      <point x="203" y="1454" type="line"/>
      <point x="233" y="1454" type="line"/>
      <point x="1346" y="59" type="line"/>
      <point x="1346" y="1452" type="line"/>
      <point x="1386" y="1452" type="line"/>
      <point x="1386" y="-74" type="line" smooth="yes"/>
      <point x="1386" y="-189"/>
      <point x="1215" y="-348"/>
      <point x="1114" y="-348" type="qcurve" smooth="yes"/>
      <point x="978" y="-348"/>
      <point x="909" y="-279" type="qcurve"/>
      <point x="942" y="-254" type="line"/>
      <point x="1002" y="-307"/>
      <point x="1112" y="-307" type="qcurve" smooth="yes"/>
      <point x="1200" y="-307"/>
      <point x="1346" y="-169"/>
      <point x="1346" y="-74" type="qcurve" smooth="yes"/>
      <point x="1346" y="-8" type="line"/>
    </contour>
  </outline>
</glyph>
<glyph name="eng" format="2">
  <advance width="1157"/>
  <unicode hex="014B"/>
  <outline>
    <contour>
      <point x="520" y="-279" type="qcurve"/>
      <point x="553" y="-254" type="line"/>
      <point x="613" y="-307"/>
      <point x="723" y="-307" type="qcurve" smooth="yes"/>
      <point x="811" y="-307"/>
      <point x="956" y="-169"/>
      <point x="956" y="-74" type="qcurve" smooth="yes"/>
      <point x="956" y="592" type="line" smooth="yes"/>
      <point x="956" y="824"/>
      <point x="826" y="1038"/>
      <point x="684" y="1038" type="qcurve" smooth="yes"/>
      <point x="529" y="1038"/>
      <point x="257" y="828"/>
      <point x="213" y="672" type="qcurve"/>
      <point x="213" y="0" type="line"/>
      <point x="172" y="0" type="line"/>
      <point x="172" y="1063" type="line"/>
      <point x="213" y="1063" type="line"/>
      <point x="213" y="788" type="line"/>
      <point x="279" y="917"/>
      <point x="540" y="1079"/>
      <point x="682" y="1079" type="qcurve" smooth="yes"/>
      <point x="845" y="1079"/>
      <point x="997" y="843"/>
      <point x="997" y="592" type="qcurve" smooth="yes"/>
      <point x="997" y="-74" type="line" smooth="yes"/>
      <point x="997" y="-189"/>
      <point x="826" y="-348"/>
      <point x="725" y="-348" type="qcurve" smooth="yes"/>
      <point x="589" y="-348"/>
    </contour>
  </outline>
</glyph>
<glyph name="OE" format="2">
  <advance width="2471"/>
  <unicode hex="0152"/>
  <outline>
    <contour>
      <point x="2365" y="41" type="line"/>
      <point x="2365" y="0" type="line"/>
      <point x="1411" y="0" type="line"/>
      <point x="1411" y="479" type="line"/>
      <point x="1338" y="267"/>
      <point x="995" y="-10"/>
      <point x="780" y="-10" type="qcurve" smooth="yes"/>
      <point x="633" y="-10"/>
      <point x="375" y="116"/>
      <point x="199" y="322"/>
      <point x="98" y="588"/>
      <point x="98" y="727" type="qcurve" smooth="yes"/>
      <point x="98" y="919"/>
      <point x="275" y="1257"/>
      <point x="589" y="1464"/>
      <point x="776" y="1464" type="qcurve" smooth="yes"/>
      <point x="889" y="1464"/>
      <point x="1096" y="1386"/>
      <point x="1256" y="1251"/>
      <point x="1377" y="1075"/>
      <point x="1411" y="973" type="qcurve"/>
      <point x="1411" y="1454" type="line"/>
      <point x="2347" y="1454" type="line"/>
      <point x="2347" y="1413" type="line"/>
      <point x="1452" y="1413" type="line"/>
      <point x="1452" y="764" type="line"/>
      <point x="2236" y="764" type="line"/>
      <point x="2236" y="723" type="line"/>
      <point x="1452" y="723" type="line"/>
      <point x="1452" y="41" type="line"/>
    </contour>
    <contour>
      <point x="1411" y="729" type="qcurve" smooth="yes"/>
      <point x="1411" y="908"/>
      <point x="1246" y="1226"/>
      <point x="951" y="1423"/>
      <point x="776" y="1423" type="qcurve" smooth="yes"/>
      <point x="638" y="1423"/>
      <point x="396" y="1302"/>
      <point x="233" y="1106"/>
      <point x="139" y="856"/>
      <point x="139" y="727" type="qcurve" smooth="yes"/>
      <point x="139" y="592"/>
      <point x="236" y="339"/>
      <point x="402" y="147"/>
      <point x="641" y="31"/>
      <point x="776" y="31" type="qcurve" smooth="yes"/>
      <point x="914" y="31"/>
      <point x="1155" y="152"/>
      <point x="1318" y="349"/>
      <point x="1411" y="599"/>
    </contour>
  </outline>
</glyph>
<glyph name="oe" format="2">
  <advance width="2150"/>
  <unicode hex="0153"/>
  <outline>
    <contour>
      <point x="94" y="526" type="qcurve" smooth="yes"/>
      <point x="94" y="676"/>
      <point x="230" y="931"/>
      <point x="465" y="1079"/>
      <point x="604" y="1079" type="qcurve" smooth="yes"/>
      <point x="773" y="1079"/>
      <point x="1037" y="859"/>
      <point x="1081" y="680" type="qcurve"/>
      <point x="1124" y="864"/>
      <point x="1387" y="1079"/>
      <point x="1569" y="1079" type="qcurve" smooth="yes"/>
      <point x="1781" y="1079"/>
      <point x="2054" y="784"/>
      <point x="2077" y="530" type="qcurve" smooth="yes"/>
      <point x="2077" y="526"/>
      <point x="2079" y="512"/>
      <point x="2079" y="508" type="qcurve"/>
      <point x="1106" y="508" type="line"/>
      <point x="1121" y="303"/>
      <point x="1406" y="20"/>
      <point x="1599" y="20" type="qcurve" smooth="yes"/>
      <point x="1726" y="20"/>
      <point x="1940" y="146"/>
      <point x="1980" y="244" type="qcurve"/>
      <point x="2019" y="233" type="line"/>
      <point x="1973" y="123"/>
      <point x="1732" y="-20"/>
      <point x="1595" y="-20" type="qcurve" smooth="yes"/>
      <point x="1423" y="-20"/>
      <point x="1134" y="206"/>
      <point x="1085" y="379" type="qcurve"/>
      <point x="1036" y="199"/>
      <point x="766" y="-20"/>
      <point x="596" y="-20" type="qcurve" smooth="yes"/>
      <point x="459" y="-20"/>
      <point x="228" y="126"/>
      <point x="94" y="377"/>
    </contour>
    <contour>
      <point x="1065" y="666"/>
      <point x="940" y="901"/>
      <point x="727" y="1038"/>
      <point x="602" y="1038" type="qcurve" smooth="yes"/>
      <point x="476" y="1038"/>
      <point x="261" y="899"/>
      <point x="135" y="661"/>
      <point x="135" y="522" type="qcurve" smooth="yes"/>
      <point x="135" y="313"/>
      <point x="406" y="20"/>
      <point x="598" y="20" type="qcurve" smooth="yes"/>
      <point x="725" y="20"/>
      <point x="940" y="156"/>
      <point x="1065" y="390"/>
    </contour>
    <contour>
      <point x="2036" y="549" type="line"/>
      <point x="2023" y="762"/>
      <point x="1758" y="1038"/>
      <point x="1569" y="1038" type="qcurve" smooth="yes"/>
      <point x="1445" y="1038"/>
      <point x="1238" y="912"/>
      <point x="1113" y="688"/>
      <point x="1106" y="549" type="qcurve"/>
    </contour>
  </outline>
</glyph>
<glyph name="Racute" format="2">
  <advance width="1314"/>
  <unicode hex="0154"/>
  <anchor x="0" y="0" name="Anchor-11"/>
  <anchor x="0" y="0" name="Anchor-10"/>
  <anchor x="686" y="1886" name="Anchor-9"/>
  <anchor x="0" y="0" name="Anchor-8"/>
  <anchor x="647" y="0" name="Anchor-7"/>
  <outline>
    <contour>
      <point x="618" y="1712" type="line"/>
      <point x="586" y="1737" type="line"/>
      <point x="717" y="1886" type="line"/>
      <point x="786" y="1886" type="line"/>
    </contour>
    <contour>
      <point x="203" y="0" type="line"/>
      <point x="203" y="1454" type="line"/>
      <point x="795" y="1454" type="line" smooth="yes"/>
      <point x="910" y="1454"/>
      <point x="1101" y="1324"/>
      <point x="1204" y="1123"/>
      <point x="1204" y="1014" type="qcurve" smooth="yes"/>
      <point x="1204" y="841"/>
      <point x="995" y="583"/>
      <point x="834" y="571" type="qcurve"/>
      <point x="1202" y="0" type="line"/>
      <point x="1153" y="0" type="line"/>
      <point x="784" y="571" type="line"/>
      <point x="244" y="571" type="line"/>
      <point x="244" y="0" type="line"/>
    </contour>
    <contour>
      <point x="244" y="612" type="line"/>
      <point x="809" y="612" type="line" smooth="yes"/>
      <point x="914" y="612"/>
      <point x="1079" y="730"/>
      <point x="1163" y="912"/>
      <point x="1163" y="1014" type="qcurve" smooth="yes"/>
      <point x="1163" y="1172"/>
      <point x="946" y="1413"/>
      <point x="795" y="1413" type="qcurve" smooth="yes"/>
      <point x="244" y="1413" type="line"/>
    </contour>
  </outline>
</glyph>
<glyph name="Scedilla" format="2">
  <advance width="1232"/>
  <unicode hex="015E"/>
  <anchor x="0" y="0" name="Anchor-11"/>
  <anchor x="0" y="0" name="Anchor-10"/>
  <anchor x="641" y="1493" name="Anchor-9"/>
  <anchor x="0" y="0" name="Anchor-8"/>
  <anchor x="637" y="0" name="Anchor-7"/>
  <outline>
    <contour>
      <point x="1157" y="356" type="qcurve" smooth="yes"/>
      <point x="1157" y="192"/>
      <point x="916" y="3"/>
      <point x="700" y="-8" type="qcurve"/>
      <point x="758" y="-47"/>
      <point x="815" y="-130"/>
      <point x="815" y="-184" type="qcurve" smooth="yes"/>
      <point x="815" y="-260"/>
      <point x="707" y="-336"/>
      <point x="616" y="-336" type="qcurve" smooth="yes"/>
      <point x="493" y="-336"/>
      <point x="391" y="-285" type="qcurve"/>
      <point x="414" y="-250" type="line"/>
      <point x="472" y="-276"/>
      <point x="556" y="-299"/>
      <point x="610" y="-299" type="qcurve" smooth="yes"/>
      <point x="774" y="-299"/>
      <point x="774" y="-184" type="qcurve" smooth="yes"/>
      <point x="774" y="-130"/>
      <point x="707" y="-51"/>
      <point x="635" y="-10" type="qcurve"/>
      <point x="464" y="-9"/>
      <point x="196" y="101"/>
      <point x="80" y="215" type="qcurve"/>
      <point x="111" y="242" type="line"/>
      <point x="220" y="129"/>
      <point x="480" y="25"/>
      <point x="647" y="25" type="qcurve" smooth="yes"/>
      <point x="868" y="25"/>
      <point x="1116" y="190"/>
      <point x="1116" y="350" type="qcurve" smooth="yes"/>
      <point x="1116" y="431"/>
      <point x="1061" y="545"/>
      <point x="935" y="628"/>
      <point x="764" y="683"/>
      <point x="631" y="709" type="qcurve" smooth="yes"/>
      <point x="523" y="729"/>
      <point x="384" y="765"/>
      <point x="249" y="822"/>
      <point x="174" y="894"/>
      <point x="129" y="1002"/>
      <point x="129" y="1073" type="qcurve" smooth="yes"/>
      <point x="129" y="1259"/>
      <point x="402" y="1464"/>
      <point x="637" y="1464" type="qcurve" smooth="yes"/>
      <point x="777" y="1464"/>
      <point x="984" y="1382"/>
      <point x="1069" y="1290" type="qcurve"/>
      <point x="1042" y="1262" type="line"/>
      <point x="959" y="1354"/>
      <point x="775" y="1425"/>
      <point x="641" y="1425" type="qcurve" smooth="yes"/>
      <point x="400" y="1425"/>
      <point x="170" y="1242"/>
      <point x="170" y="1077" type="qcurve" smooth="yes"/>
      <point x="170" y="1032"/>
      <point x="188" y="960"/>
      <point x="220" y="904"/>
      <point x="278" y="857"/>
      <point x="345" y="822"/>
      <point x="448" y="789"/>
      <point x="554" y="763"/>
      <point x="629" y="748" type="qcurve" smooth="yes"/>
      <point x="738" y="726"/>
      <point x="882" y="687"/>
      <point x="1025" y="624"/>
      <point x="1107" y="547"/>
      <point x="1157" y="431"/>
    </contour>
  </outline>
</glyph>
<glyph name="scaron" format="2">
  <advance width="964"/>
  <unicode hex="0161"/>
  <anchor x="0" y="0" name="Anchor-11"/>
  <anchor x="0" y="0" name="Anchor-10"/>
  <anchor x="492" y="1495" name="Anchor-9"/>
  <anchor x="0" y="0" name="Anchor-8"/>
  <anchor x="481" y="0" name="Anchor-7"/>
  <outline>
    <contour>
      <point x="317" y="1495" type="line"/>
      <point x="492" y="1366" type="line"/>
      <point x="666" y="1495" type="line"/>
      <point x="698" y="1470" type="line"/>
      <point x="508" y="1319" type="line"/>
      <point x="475" y="1319" type="line"/>
      <point x="285" y="1470" type="line"/>
    </contour>
    <contour>
      <point x="481" y="-20" type="qcurve" smooth="yes"/>
      <point x="232" y="-20"/>
      <point x="76" y="152" type="qcurve"/>
      <point x="106" y="178" type="line"/>
      <point x="189" y="97"/>
      <point x="369" y="20"/>
      <point x="481" y="20" type="qcurve" smooth="yes"/>
      <point x="640" y="20"/>
      <point x="836" y="159"/>
      <point x="836" y="279" type="qcurve" smooth="yes"/>
      <point x="836" y="317"/>
      <point x="816" y="376"/>
      <point x="767" y="423"/>
      <point x="714" y="456"/>
      <point x="617" y="488"/>
      <point x="535" y="510"/>
      <point x="465" y="526" type="qcurve" smooth="yes"/>
      <point x="420" y="537"/>
      <point x="372" y="549"/>
      <point x="302" y="570"/>
      <point x="265" y="585"/>
      <point x="215" y="609"/>
      <point x="191" y="632"/>
      <point x="161" y="665"/>
      <point x="148" y="703"/>
      <point x="139" y="750"/>
      <point x="139" y="778" type="qcurve" smooth="yes"/>
      <point x="139" y="855"/>
      <point x="199" y="973"/>
      <point x="304" y="1043"/>
      <point x="437" y="1079"/>
      <point x="514" y="1079" type="qcurve" smooth="yes"/>
      <point x="639" y="1079"/>
      <point x="824" y="994"/>
      <point x="860" y="926" type="qcurve"/>
      <point x="823" y="909" type="line"/>
      <point x="786" y="970"/>
      <point x="611" y="1038"/>
      <point x="506" y="1038" type="qcurve" smooth="yes"/>
      <point x="414" y="1038"/>
      <point x="271" y="987"/>
      <point x="180" y="870"/>
      <point x="180" y="784" type="qcurve" smooth="yes"/>
      <point x="180" y="749"/>
      <point x="193" y="696"/>
      <point x="229" y="655"/>
      <point x="267" y="627"/>
      <point x="343" y="600"/>
      <point x="408" y="581"/>
      <point x="467" y="567" type="qcurve" smooth="yes"/>
      <point x="535" y="551"/>
      <point x="607" y="533"/>
      <point x="710" y="502"/>
      <point x="763" y="476"/>
      <point x="826" y="434"/>
      <point x="856" y="387"/>
      <point x="877" y="324"/>
      <point x="877" y="285" type="qcurve" smooth="yes"/>
      <point x="877" y="146"/>
      <point x="660" y="-20"/>
    </contour>
  </outline>
</glyph>
<glyph name="Tcedilla" format="2">
  <advance width="1228"/>
  <unicode hex="0162"/>
  <anchor x="0" y="0" name="Anchor-11"/>
  <anchor x="0" y="0" name="Anchor-10"/>
  <anchor x="614" y="1448" name="Anchor-9"/>
  <anchor x="0" y="0" name="Anchor-8"/>
  <anchor x="614" y="0" name="Anchor-7"/>
  <outline>
    <contour>
      <point x="1192" y="1413" type="line"/>
      <point x="635" y="1413" type="line"/>
      <point x="635" y="16" type="line"/>
      <point x="715" y="-29"/>
      <point x="793" y="-120"/>
      <point x="793" y="-184" type="qcurve" smooth="yes"/>
      <point x="793" y="-260"/>
      <point x="685" y="-336"/>
      <point x="594" y="-336" type="qcurve" smooth="yes"/>
      <point x="471" y="-336"/>
      <point x="369" y="-285" type="qcurve"/>
      <point x="391" y="-250" type="line"/>
      <point x="449" y="-275"/>
      <point x="534" y="-299"/>
      <point x="588" y="-299" type="qcurve" smooth="yes"/>
      <point x="752" y="-299"/>
      <point x="752" y="-184" type="qcurve" smooth="yes"/>
      <point x="752" y="-127"/>
      <point x="676" y="-44"/>
      <point x="594" y="0" type="qcurve"/>
      <point x="594" y="1413" type="line"/>
      <point x="37" y="1413" type="line"/>
      <point x="37" y="1454" type="line"/>
      <point x="1192" y="1454" type="line"/>
    </contour>
  </outline>
</glyph>
<glyph name="tcedilla" format="2">
  <advance width="604"/>
  <unicode hex="0163"/>
  <anchor x="410" y="1063" name="Anchor-11"/>
  <anchor x="270" y="633" name="Anchor-10"/>
  <anchor x="231" y="1454" name="Anchor-9"/>
  <anchor x="0" y="0" name="Anchor-8"/>
  <anchor x="389" y="0" name="Anchor-7"/>
  <outline>
    <contour>
      <point x="446" y="-6" type="qcurve"/>
      <point x="567" y="-81"/>
      <point x="567" y="-184" type="qcurve" smooth="yes"/>
      <point x="567" y="-260"/>
      <point x="460" y="-336"/>
      <point x="369" y="-336" type="qcurve" smooth="yes"/>
      <point x="245" y="-336"/>
      <point x="143" y="-285" type="qcurve"/>
      <point x="166" y="-250" type="line"/>
      <point x="224" y="-276"/>
      <point x="308" y="-299"/>
      <point x="362" y="-299" type="qcurve" smooth="yes"/>
      <point x="526" y="-299"/>
      <point x="526" y="-184" type="qcurve" smooth="yes"/>
      <point x="526" y="-130"/>
      <point x="459" y="-51"/>
      <point x="387" y="-10" type="qcurve"/>
      <point x="313" y="-8"/>
      <point x="207" y="84"/>
      <point x="207" y="154" type="qcurve" smooth="yes"/>
      <point x="207" y="1022" type="line"/>
      <point x="53" y="1022" type="line"/>
      <point x="53" y="1063" type="line"/>
      <point x="207" y="1063" type="line"/>
      <point x="207" y="1434" type="line"/>
      <point x="248" y="1434" type="line"/>
      <point x="248" y="1063" type="line"/>
      <point x="504" y="1063" type="line"/>
      <point x="504" y="1022" type="line"/>
      <point x="248" y="1022" type="line"/>
      <point x="248" y="154" type="line"/>
      <point x="252" y="96"/>
      <point x="334" y="31"/>
      <point x="391" y="31" type="qcurve" smooth="yes"/>
      <point x="433" y="31"/>
      <point x="518" y="56"/>
      <point x="559" y="78"/>
      <point x="563" y="82" type="qcurve"/>
      <point x="586" y="49" type="line"/>
      <point x="583" y="46"/>
      <point x="553" y="28"/>
      <point x="483" y="0"/>
    </contour>
  </outline>
</glyph>
